G04 #@! TF.GenerationSoftware,KiCad,Pcbnew,(5.1.4-0-10_14)*
G04 #@! TF.CreationDate,2019-11-29T22:27:59+01:00*
G04 #@! TF.ProjectId,Eurocard_6U_233x160_VME,4575726f-6361-4726-945f-36555f323333,rev?*
G04 #@! TF.SameCoordinates,Original*
G04 #@! TF.FileFunction,Legend,Top*
G04 #@! TF.FilePolarity,Positive*
%FSLAX46Y46*%
G04 Gerber Fmt 4.6, Leading zero omitted, Abs format (unit mm)*
G04 Created by KiCad (PCBNEW (5.1.4-0-10_14)) date 2019-11-29 22:27:59*
%MOMM*%
%LPD*%
G04 APERTURE LIST*
%ADD10C,0.150000*%
%ADD11C,0.300000*%
%ADD12C,0.120000*%
G04 APERTURE END LIST*
D10*
X9883452Y13147619D02*
X10502500Y13147619D01*
X10169166Y12766666D01*
X10312023Y12766666D01*
X10407261Y12719047D01*
X10454880Y12671428D01*
X10502500Y12576190D01*
X10502500Y12338095D01*
X10454880Y12242857D01*
X10407261Y12195238D01*
X10312023Y12147619D01*
X10026309Y12147619D01*
X9931071Y12195238D01*
X9883452Y12242857D01*
X10883452Y13052380D02*
X10931071Y13100000D01*
X11026309Y13147619D01*
X11264404Y13147619D01*
X11359642Y13100000D01*
X11407261Y13052380D01*
X11454880Y12957142D01*
X11454880Y12861904D01*
X11407261Y12719047D01*
X10835833Y12147619D01*
X11454880Y12147619D01*
X27835833Y13052380D02*
X27883452Y13100000D01*
X27978690Y13147619D01*
X28216785Y13147619D01*
X28312023Y13100000D01*
X28359642Y13052380D01*
X28407261Y12957142D01*
X28407261Y12861904D01*
X28359642Y12719047D01*
X27788214Y12147619D01*
X28407261Y12147619D01*
X29312023Y13147619D02*
X28835833Y13147619D01*
X28788214Y12671428D01*
X28835833Y12719047D01*
X28931071Y12766666D01*
X29169166Y12766666D01*
X29264404Y12719047D01*
X29312023Y12671428D01*
X29359642Y12576190D01*
X29359642Y12338095D01*
X29312023Y12242857D01*
X29264404Y12195238D01*
X29169166Y12147619D01*
X28931071Y12147619D01*
X28835833Y12195238D01*
X28788214Y12242857D01*
X40407261Y13052380D02*
X40454880Y13100000D01*
X40550119Y13147619D01*
X40788214Y13147619D01*
X40883452Y13100000D01*
X40931071Y13052380D01*
X40978690Y12957142D01*
X40978690Y12861904D01*
X40931071Y12719047D01*
X40359642Y12147619D01*
X40978690Y12147619D01*
X41597738Y13147619D02*
X41692976Y13147619D01*
X41788214Y13100000D01*
X41835833Y13052380D01*
X41883452Y12957142D01*
X41931071Y12766666D01*
X41931071Y12528571D01*
X41883452Y12338095D01*
X41835833Y12242857D01*
X41788214Y12195238D01*
X41692976Y12147619D01*
X41597738Y12147619D01*
X41502500Y12195238D01*
X41454880Y12242857D01*
X41407261Y12338095D01*
X41359642Y12528571D01*
X41359642Y12766666D01*
X41407261Y12957142D01*
X41454880Y13052380D01*
X41502500Y13100000D01*
X41597738Y13147619D01*
X53550119Y12147619D02*
X52978690Y12147619D01*
X53264404Y12147619D02*
X53264404Y13147619D01*
X53169166Y13004761D01*
X53073928Y12909523D01*
X52978690Y12861904D01*
X54454880Y13147619D02*
X53978690Y13147619D01*
X53931071Y12671428D01*
X53978690Y12719047D01*
X54073928Y12766666D01*
X54312023Y12766666D01*
X54407261Y12719047D01*
X54454880Y12671428D01*
X54502500Y12576190D01*
X54502500Y12338095D01*
X54454880Y12242857D01*
X54407261Y12195238D01*
X54312023Y12147619D01*
X54073928Y12147619D01*
X53978690Y12195238D01*
X53931071Y12242857D01*
X66121547Y12147619D02*
X65550119Y12147619D01*
X65835833Y12147619D02*
X65835833Y13147619D01*
X65740595Y13004761D01*
X65645357Y12909523D01*
X65550119Y12861904D01*
X66740595Y13147619D02*
X66835833Y13147619D01*
X66931071Y13100000D01*
X66978690Y13052380D01*
X67026309Y12957142D01*
X67073928Y12766666D01*
X67073928Y12528571D01*
X67026309Y12338095D01*
X66978690Y12242857D01*
X66931071Y12195238D01*
X66835833Y12147619D01*
X66740595Y12147619D01*
X66645357Y12195238D01*
X66597738Y12242857D01*
X66550119Y12338095D01*
X66502500Y12528571D01*
X66502500Y12766666D01*
X66550119Y12957142D01*
X66597738Y13052380D01*
X66645357Y13100000D01*
X66740595Y13147619D01*
X79407261Y13147619D02*
X78931071Y13147619D01*
X78883452Y12671428D01*
X78931071Y12719047D01*
X79026309Y12766666D01*
X79264404Y12766666D01*
X79359642Y12719047D01*
X79407261Y12671428D01*
X79454880Y12576190D01*
X79454880Y12338095D01*
X79407261Y12242857D01*
X79359642Y12195238D01*
X79264404Y12147619D01*
X79026309Y12147619D01*
X78931071Y12195238D01*
X78883452Y12242857D01*
X89550119Y12147619D02*
X88978690Y12147619D01*
X89264404Y12147619D02*
X89264404Y13147619D01*
X89169166Y13004761D01*
X89073928Y12909523D01*
X88978690Y12861904D01*
X143283452Y13147619D02*
X143902500Y13147619D01*
X143569166Y12766666D01*
X143712023Y12766666D01*
X143807261Y12719047D01*
X143854880Y12671428D01*
X143902500Y12576190D01*
X143902500Y12338095D01*
X143854880Y12242857D01*
X143807261Y12195238D01*
X143712023Y12147619D01*
X143426309Y12147619D01*
X143331071Y12195238D01*
X143283452Y12242857D01*
X144283452Y13052380D02*
X144331071Y13100000D01*
X144426309Y13147619D01*
X144664404Y13147619D01*
X144759642Y13100000D01*
X144807261Y13052380D01*
X144854880Y12957142D01*
X144854880Y12861904D01*
X144807261Y12719047D01*
X144235833Y12147619D01*
X144854880Y12147619D01*
X161235833Y13052380D02*
X161283452Y13100000D01*
X161378690Y13147619D01*
X161616785Y13147619D01*
X161712023Y13100000D01*
X161759642Y13052380D01*
X161807261Y12957142D01*
X161807261Y12861904D01*
X161759642Y12719047D01*
X161188214Y12147619D01*
X161807261Y12147619D01*
X162712023Y13147619D02*
X162235833Y13147619D01*
X162188214Y12671428D01*
X162235833Y12719047D01*
X162331071Y12766666D01*
X162569166Y12766666D01*
X162664404Y12719047D01*
X162712023Y12671428D01*
X162759642Y12576190D01*
X162759642Y12338095D01*
X162712023Y12242857D01*
X162664404Y12195238D01*
X162569166Y12147619D01*
X162331071Y12147619D01*
X162235833Y12195238D01*
X162188214Y12242857D01*
X173807261Y13052380D02*
X173854880Y13100000D01*
X173950119Y13147619D01*
X174188214Y13147619D01*
X174283452Y13100000D01*
X174331071Y13052380D01*
X174378690Y12957142D01*
X174378690Y12861904D01*
X174331071Y12719047D01*
X173759642Y12147619D01*
X174378690Y12147619D01*
X174997738Y13147619D02*
X175092976Y13147619D01*
X175188214Y13100000D01*
X175235833Y13052380D01*
X175283452Y12957142D01*
X175331071Y12766666D01*
X175331071Y12528571D01*
X175283452Y12338095D01*
X175235833Y12242857D01*
X175188214Y12195238D01*
X175092976Y12147619D01*
X174997738Y12147619D01*
X174902500Y12195238D01*
X174854880Y12242857D01*
X174807261Y12338095D01*
X174759642Y12528571D01*
X174759642Y12766666D01*
X174807261Y12957142D01*
X174854880Y13052380D01*
X174902500Y13100000D01*
X174997738Y13147619D01*
X186950119Y12147619D02*
X186378690Y12147619D01*
X186664404Y12147619D02*
X186664404Y13147619D01*
X186569166Y13004761D01*
X186473928Y12909523D01*
X186378690Y12861904D01*
X187854880Y13147619D02*
X187378690Y13147619D01*
X187331071Y12671428D01*
X187378690Y12719047D01*
X187473928Y12766666D01*
X187712023Y12766666D01*
X187807261Y12719047D01*
X187854880Y12671428D01*
X187902500Y12576190D01*
X187902500Y12338095D01*
X187854880Y12242857D01*
X187807261Y12195238D01*
X187712023Y12147619D01*
X187473928Y12147619D01*
X187378690Y12195238D01*
X187331071Y12242857D01*
X199521547Y12147619D02*
X198950119Y12147619D01*
X199235833Y12147619D02*
X199235833Y13147619D01*
X199140595Y13004761D01*
X199045357Y12909523D01*
X198950119Y12861904D01*
X200140595Y13147619D02*
X200235833Y13147619D01*
X200331071Y13100000D01*
X200378690Y13052380D01*
X200426309Y12957142D01*
X200473928Y12766666D01*
X200473928Y12528571D01*
X200426309Y12338095D01*
X200378690Y12242857D01*
X200331071Y12195238D01*
X200235833Y12147619D01*
X200140595Y12147619D01*
X200045357Y12195238D01*
X199997738Y12242857D01*
X199950119Y12338095D01*
X199902500Y12528571D01*
X199902500Y12766666D01*
X199950119Y12957142D01*
X199997738Y13052380D01*
X200045357Y13100000D01*
X200140595Y13147619D01*
X212807261Y13147619D02*
X212331071Y13147619D01*
X212283452Y12671428D01*
X212331071Y12719047D01*
X212426309Y12766666D01*
X212664404Y12766666D01*
X212759642Y12719047D01*
X212807261Y12671428D01*
X212854880Y12576190D01*
X212854880Y12338095D01*
X212807261Y12242857D01*
X212759642Y12195238D01*
X212664404Y12147619D01*
X212426309Y12147619D01*
X212331071Y12195238D01*
X212283452Y12242857D01*
X222950119Y12147619D02*
X222378690Y12147619D01*
X222664404Y12147619D02*
X222664404Y13147619D01*
X222569166Y13004761D01*
X222473928Y12909523D01*
X222378690Y12861904D01*
D11*
X225657142Y10142857D02*
X225514285Y10071428D01*
X225228571Y10071428D01*
X225085714Y10142857D01*
X225014285Y10214285D01*
X224942857Y10357142D01*
X224942857Y10785714D01*
X225014285Y10928571D01*
X225085714Y11000000D01*
X225228571Y11071428D01*
X225514285Y11071428D01*
X225657142Y11000000D01*
X224978571Y7521428D02*
X224978571Y9021428D01*
X224978571Y8450000D02*
X225121428Y8521428D01*
X225407142Y8521428D01*
X225550000Y8450000D01*
X225621428Y8378571D01*
X225692857Y8235714D01*
X225692857Y7807142D01*
X225621428Y7664285D01*
X225550000Y7592857D01*
X225407142Y7521428D01*
X225121428Y7521428D01*
X224978571Y7592857D01*
X225621428Y4971428D02*
X225621428Y5757142D01*
X225550000Y5900000D01*
X225407142Y5971428D01*
X225121428Y5971428D01*
X224978571Y5900000D01*
X225621428Y5042857D02*
X225478571Y4971428D01*
X225121428Y4971428D01*
X224978571Y5042857D01*
X224907142Y5185714D01*
X224907142Y5328571D01*
X224978571Y5471428D01*
X225121428Y5542857D01*
X225478571Y5542857D01*
X225621428Y5614285D01*
X141857142Y9942857D02*
X141714285Y9871428D01*
X141428571Y9871428D01*
X141285714Y9942857D01*
X141214285Y10014285D01*
X141142857Y10157142D01*
X141142857Y10585714D01*
X141214285Y10728571D01*
X141285714Y10800000D01*
X141428571Y10871428D01*
X141714285Y10871428D01*
X141857142Y10800000D01*
X141178571Y7321428D02*
X141178571Y8821428D01*
X141178571Y8250000D02*
X141321428Y8321428D01*
X141607142Y8321428D01*
X141750000Y8250000D01*
X141821428Y8178571D01*
X141892857Y8035714D01*
X141892857Y7607142D01*
X141821428Y7464285D01*
X141750000Y7392857D01*
X141607142Y7321428D01*
X141321428Y7321428D01*
X141178571Y7392857D01*
X141821428Y4771428D02*
X141821428Y5557142D01*
X141750000Y5700000D01*
X141607142Y5771428D01*
X141321428Y5771428D01*
X141178571Y5700000D01*
X141821428Y4842857D02*
X141678571Y4771428D01*
X141321428Y4771428D01*
X141178571Y4842857D01*
X141107142Y4985714D01*
X141107142Y5128571D01*
X141178571Y5271428D01*
X141321428Y5342857D01*
X141678571Y5342857D01*
X141821428Y5414285D01*
X8457142Y10042857D02*
X8314285Y9971428D01*
X8028571Y9971428D01*
X7885714Y10042857D01*
X7814285Y10114285D01*
X7742857Y10257142D01*
X7742857Y10685714D01*
X7814285Y10828571D01*
X7885714Y10900000D01*
X8028571Y10971428D01*
X8314285Y10971428D01*
X8457142Y10900000D01*
X7778571Y7421428D02*
X7778571Y8921428D01*
X7778571Y8350000D02*
X7921428Y8421428D01*
X8207142Y8421428D01*
X8350000Y8350000D01*
X8421428Y8278571D01*
X8492857Y8135714D01*
X8492857Y7707142D01*
X8421428Y7564285D01*
X8350000Y7492857D01*
X8207142Y7421428D01*
X7921428Y7421428D01*
X7778571Y7492857D01*
X8421428Y4871428D02*
X8421428Y5657142D01*
X8350000Y5800000D01*
X8207142Y5871428D01*
X7921428Y5871428D01*
X7778571Y5800000D01*
X8421428Y4942857D02*
X8278571Y4871428D01*
X7921428Y4871428D01*
X7778571Y4942857D01*
X7707142Y5085714D01*
X7707142Y5228571D01*
X7778571Y5371428D01*
X7921428Y5442857D01*
X8278571Y5442857D01*
X8421428Y5514285D01*
X92357142Y10042857D02*
X92214285Y9971428D01*
X91928571Y9971428D01*
X91785714Y10042857D01*
X91714285Y10114285D01*
X91642857Y10257142D01*
X91642857Y10685714D01*
X91714285Y10828571D01*
X91785714Y10900000D01*
X91928571Y10971428D01*
X92214285Y10971428D01*
X92357142Y10900000D01*
X91678571Y7421428D02*
X91678571Y8921428D01*
X91678571Y8350000D02*
X91821428Y8421428D01*
X92107142Y8421428D01*
X92250000Y8350000D01*
X92321428Y8278571D01*
X92392857Y8135714D01*
X92392857Y7707142D01*
X92321428Y7564285D01*
X92250000Y7492857D01*
X92107142Y7421428D01*
X91821428Y7421428D01*
X91678571Y7492857D01*
X92321428Y4871428D02*
X92321428Y5657142D01*
X92250000Y5800000D01*
X92107142Y5871428D01*
X91821428Y5871428D01*
X91678571Y5800000D01*
X92321428Y4942857D02*
X92178571Y4871428D01*
X91821428Y4871428D01*
X91678571Y4942857D01*
X91607142Y5085714D01*
X91607142Y5228571D01*
X91678571Y5371428D01*
X91821428Y5442857D01*
X92178571Y5442857D01*
X92321428Y5514285D01*
D10*
X116414285Y153028571D02*
X117176190Y153028571D01*
X116795238Y152647619D02*
X116795238Y153409523D01*
X118128571Y153647619D02*
X117652380Y153647619D01*
X117604761Y153171428D01*
X117652380Y153219047D01*
X117747619Y153266666D01*
X117985714Y153266666D01*
X118080952Y153219047D01*
X118128571Y153171428D01*
X118176190Y153076190D01*
X118176190Y152838095D01*
X118128571Y152742857D01*
X118080952Y152695238D01*
X117985714Y152647619D01*
X117747619Y152647619D01*
X117652380Y152695238D01*
X117604761Y152742857D01*
X118461904Y153647619D02*
X118795238Y152647619D01*
X119128571Y153647619D01*
X116514285Y13428571D02*
X117276190Y13428571D01*
X116895238Y13047619D02*
X116895238Y13809523D01*
X118228571Y14047619D02*
X117752380Y14047619D01*
X117704761Y13571428D01*
X117752380Y13619047D01*
X117847619Y13666666D01*
X118085714Y13666666D01*
X118180952Y13619047D01*
X118228571Y13571428D01*
X118276190Y13476190D01*
X118276190Y13238095D01*
X118228571Y13142857D01*
X118180952Y13095238D01*
X118085714Y13047619D01*
X117847619Y13047619D01*
X117752380Y13095238D01*
X117704761Y13142857D01*
X118561904Y14047619D02*
X118895238Y13047619D01*
X119228571Y14047619D01*
X226238095Y14000000D02*
X226142857Y14047619D01*
X226000000Y14047619D01*
X225857142Y14000000D01*
X225761904Y13904761D01*
X225714285Y13809523D01*
X225666666Y13619047D01*
X225666666Y13476190D01*
X225714285Y13285714D01*
X225761904Y13190476D01*
X225857142Y13095238D01*
X226000000Y13047619D01*
X226095238Y13047619D01*
X226238095Y13095238D01*
X226285714Y13142857D01*
X226285714Y13476190D01*
X226095238Y13476190D01*
X226714285Y13047619D02*
X226714285Y14047619D01*
X227285714Y13047619D01*
X227285714Y14047619D01*
X227761904Y13047619D02*
X227761904Y14047619D01*
X228000000Y14047619D01*
X228142857Y14000000D01*
X228238095Y13904761D01*
X228285714Y13809523D01*
X228333333Y13619047D01*
X228333333Y13476190D01*
X228285714Y13285714D01*
X228238095Y13190476D01*
X228142857Y13095238D01*
X228000000Y13047619D01*
X227761904Y13047619D01*
X226238095Y153700000D02*
X226142857Y153747619D01*
X226000000Y153747619D01*
X225857142Y153700000D01*
X225761904Y153604761D01*
X225714285Y153509523D01*
X225666666Y153319047D01*
X225666666Y153176190D01*
X225714285Y152985714D01*
X225761904Y152890476D01*
X225857142Y152795238D01*
X226000000Y152747619D01*
X226095238Y152747619D01*
X226238095Y152795238D01*
X226285714Y152842857D01*
X226285714Y153176190D01*
X226095238Y153176190D01*
X226714285Y152747619D02*
X226714285Y153747619D01*
X227285714Y152747619D01*
X227285714Y153747619D01*
X227761904Y152747619D02*
X227761904Y153747619D01*
X228000000Y153747619D01*
X228142857Y153700000D01*
X228238095Y153604761D01*
X228285714Y153509523D01*
X228333333Y153319047D01*
X228333333Y153176190D01*
X228285714Y152985714D01*
X228238095Y152890476D01*
X228142857Y152795238D01*
X228000000Y152747619D01*
X227761904Y152747619D01*
X122138095Y153600000D02*
X122042857Y153647619D01*
X121900000Y153647619D01*
X121757142Y153600000D01*
X121661904Y153504761D01*
X121614285Y153409523D01*
X121566666Y153219047D01*
X121566666Y153076190D01*
X121614285Y152885714D01*
X121661904Y152790476D01*
X121757142Y152695238D01*
X121900000Y152647619D01*
X121995238Y152647619D01*
X122138095Y152695238D01*
X122185714Y152742857D01*
X122185714Y153076190D01*
X121995238Y153076190D01*
X122614285Y152647619D02*
X122614285Y153647619D01*
X123185714Y152647619D01*
X123185714Y153647619D01*
X123661904Y152647619D02*
X123661904Y153647619D01*
X123900000Y153647619D01*
X124042857Y153600000D01*
X124138095Y153504761D01*
X124185714Y153409523D01*
X124233333Y153219047D01*
X124233333Y153076190D01*
X124185714Y152885714D01*
X124138095Y152790476D01*
X124042857Y152695238D01*
X123900000Y152647619D01*
X123661904Y152647619D01*
X111938095Y153500000D02*
X111842857Y153547619D01*
X111700000Y153547619D01*
X111557142Y153500000D01*
X111461904Y153404761D01*
X111414285Y153309523D01*
X111366666Y153119047D01*
X111366666Y152976190D01*
X111414285Y152785714D01*
X111461904Y152690476D01*
X111557142Y152595238D01*
X111700000Y152547619D01*
X111795238Y152547619D01*
X111938095Y152595238D01*
X111985714Y152642857D01*
X111985714Y152976190D01*
X111795238Y152976190D01*
X112414285Y152547619D02*
X112414285Y153547619D01*
X112985714Y152547619D01*
X112985714Y153547619D01*
X113461904Y152547619D02*
X113461904Y153547619D01*
X113700000Y153547619D01*
X113842857Y153500000D01*
X113938095Y153404761D01*
X113985714Y153309523D01*
X114033333Y153119047D01*
X114033333Y152976190D01*
X113985714Y152785714D01*
X113938095Y152690476D01*
X113842857Y152595238D01*
X113700000Y152547619D01*
X113461904Y152547619D01*
X122138095Y14000000D02*
X122042857Y14047619D01*
X121900000Y14047619D01*
X121757142Y14000000D01*
X121661904Y13904761D01*
X121614285Y13809523D01*
X121566666Y13619047D01*
X121566666Y13476190D01*
X121614285Y13285714D01*
X121661904Y13190476D01*
X121757142Y13095238D01*
X121900000Y13047619D01*
X121995238Y13047619D01*
X122138095Y13095238D01*
X122185714Y13142857D01*
X122185714Y13476190D01*
X121995238Y13476190D01*
X122614285Y13047619D02*
X122614285Y14047619D01*
X123185714Y13047619D01*
X123185714Y14047619D01*
X123661904Y13047619D02*
X123661904Y14047619D01*
X123900000Y14047619D01*
X124042857Y14000000D01*
X124138095Y13904761D01*
X124185714Y13809523D01*
X124233333Y13619047D01*
X124233333Y13476190D01*
X124185714Y13285714D01*
X124138095Y13190476D01*
X124042857Y13095238D01*
X123900000Y13047619D01*
X123661904Y13047619D01*
X111938095Y14000000D02*
X111842857Y14047619D01*
X111700000Y14047619D01*
X111557142Y14000000D01*
X111461904Y13904761D01*
X111414285Y13809523D01*
X111366666Y13619047D01*
X111366666Y13476190D01*
X111414285Y13285714D01*
X111461904Y13190476D01*
X111557142Y13095238D01*
X111700000Y13047619D01*
X111795238Y13047619D01*
X111938095Y13095238D01*
X111985714Y13142857D01*
X111985714Y13476190D01*
X111795238Y13476190D01*
X112414285Y13047619D02*
X112414285Y14047619D01*
X112985714Y13047619D01*
X112985714Y14047619D01*
X113461904Y13047619D02*
X113461904Y14047619D01*
X113700000Y14047619D01*
X113842857Y14000000D01*
X113938095Y13904761D01*
X113985714Y13809523D01*
X114033333Y13619047D01*
X114033333Y13476190D01*
X113985714Y13285714D01*
X113938095Y13190476D01*
X113842857Y13095238D01*
X113700000Y13047619D01*
X113461904Y13047619D01*
X5238095Y13700000D02*
X5142857Y13747619D01*
X4999999Y13747619D01*
X4857142Y13700000D01*
X4761904Y13604761D01*
X4714285Y13509523D01*
X4666666Y13319047D01*
X4666666Y13176190D01*
X4714285Y12985714D01*
X4761904Y12890476D01*
X4857142Y12795238D01*
X4999999Y12747619D01*
X5095238Y12747619D01*
X5238095Y12795238D01*
X5285714Y12842857D01*
X5285714Y13176190D01*
X5095238Y13176190D01*
X5714285Y12747619D02*
X5714285Y13747619D01*
X6285714Y12747619D01*
X6285714Y13747619D01*
X6761904Y12747619D02*
X6761904Y13747619D01*
X7000000Y13747619D01*
X7142857Y13700000D01*
X7238095Y13604761D01*
X7285714Y13509523D01*
X7333333Y13319047D01*
X7333333Y13176190D01*
X7285714Y12985714D01*
X7238095Y12890476D01*
X7142857Y12795238D01*
X7000000Y12747619D01*
X6761904Y12747619D01*
X5238095Y153600000D02*
X5142857Y153647619D01*
X4999999Y153647619D01*
X4857142Y153600000D01*
X4761904Y153504761D01*
X4714285Y153409523D01*
X4666666Y153219047D01*
X4666666Y153076190D01*
X4714285Y152885714D01*
X4761904Y152790476D01*
X4857142Y152695238D01*
X4999999Y152647619D01*
X5095238Y152647619D01*
X5238095Y152695238D01*
X5285714Y152742857D01*
X5285714Y153076190D01*
X5095238Y153076190D01*
X5714285Y152647619D02*
X5714285Y153647619D01*
X6285714Y152647619D01*
X6285714Y153647619D01*
X6761904Y152647619D02*
X6761904Y153647619D01*
X7000000Y153647619D01*
X7142857Y153600000D01*
X7238095Y153504761D01*
X7285714Y153409523D01*
X7333333Y153219047D01*
X7333333Y153076190D01*
X7285714Y152885714D01*
X7238095Y152790476D01*
X7142857Y152695238D01*
X7000000Y152647619D01*
X6761904Y152647619D01*
X91900000Y4860000D02*
X91900000Y5360000D01*
X91900000Y5360000D02*
X97100000Y5360000D01*
X97100000Y5360000D02*
X97100000Y260000D01*
X8100000Y4860000D02*
X8100000Y5360000D01*
X8100000Y5360000D02*
X2900000Y5360000D01*
X2900000Y5360000D02*
X2900000Y260000D01*
D12*
X90720000Y5300000D02*
X91320000Y5000000D01*
X91320000Y5000000D02*
X91320000Y5600000D01*
X91320000Y5600000D02*
X90720000Y5300000D01*
D10*
X225250000Y4860000D02*
X225250000Y5360000D01*
X225250000Y5360000D02*
X230450000Y5360000D01*
X230450000Y5360000D02*
X230450000Y260000D01*
X141450000Y4860000D02*
X141450000Y5360000D01*
X141450000Y5360000D02*
X136250000Y5360000D01*
X136250000Y5360000D02*
X136250000Y260000D01*
D12*
X224070000Y5300000D02*
X224670000Y5000000D01*
X224670000Y5000000D02*
X224670000Y5600000D01*
X224670000Y5600000D02*
X224070000Y5300000D01*
D10*
X94116666Y7117619D02*
X94116666Y6403333D01*
X94069047Y6260476D01*
X93973809Y6165238D01*
X93830952Y6117619D01*
X93735714Y6117619D01*
X94545238Y7022380D02*
X94592857Y7070000D01*
X94688095Y7117619D01*
X94926190Y7117619D01*
X95021428Y7070000D01*
X95069047Y7022380D01*
X95116666Y6927142D01*
X95116666Y6831904D01*
X95069047Y6689047D01*
X94497619Y6117619D01*
X95116666Y6117619D01*
X227466666Y7117619D02*
X227466666Y6403333D01*
X227419047Y6260476D01*
X227323809Y6165238D01*
X227180952Y6117619D01*
X227085714Y6117619D01*
X228466666Y6117619D02*
X227895238Y6117619D01*
X228180952Y6117619D02*
X228180952Y7117619D01*
X228085714Y6974761D01*
X227990476Y6879523D01*
X227895238Y6831904D01*
M02*
