M48
; DRILL file {KiCad (5.1.4-0-10_14)} date Saturday, 30 November 2019 at 07:52:05
; FORMAT={-:-/ absolute / inch / decimal}
; #@! TF.CreationDate,2019-11-30T07:52:05+01:00
; #@! TF.GenerationSoftware,Kicad,Pcbnew,(5.1.4-0-10_14)
FMAT,2
INCH
T1C0.0394
T2C0.1063
T3C0.1102
%
G90
G05
T1
X7.7362Y4.4299
X2.7362Y5.2299
X1.9362Y5.9299
X6.9362Y5.9299
X6.0362Y4.4299
X8.2362Y4.4299
X1.2362Y5.9299
X8.9362Y4.6299
X8.9362Y3.5299
X1.6362Y1.8299
X5.6362Y2.3299
X0.5362Y2.3299
X3.7362Y2.2299
X7.1362Y2.5299
X7.0362Y2.4299
X5.9362Y2.4299
X1.9362Y2.4299
X2.9362Y2.0299
X1.8362Y2.0299
X8.0362Y1.9299
X3.2362Y0.8299
X2.1362Y0.8299
X0.9362Y0.8299
X8.2362Y0.7299
X6.0362Y0.7299
X7.1362Y0.6299
X3.4362Y0.6299
X3.5362Y1.8299
X0.5362Y1.0299
X1.4362Y1.1299
X6.9362Y1.1299
X8.0362Y1.1299
X6.5362Y2.4299
X5.1362Y2.3299
X3.2362Y2.2299
X5.8362Y5.9299
X8.9362Y1.8299
X8.9362Y4.1299
X8.9362Y3.0299
X6.2362Y2.3299
X8.9362Y2.9299
X0.2362Y1.3299
X2.2362Y1.8299
X7.3362Y2.3299
X6.1362Y2.2299
X8.3362Y2.2299
X3.1362Y2.2299
X8.3362Y2.5299
X7.2362Y2.0299
X5.7362Y5.9299
X7.7362Y2.5299
X5.5362Y2.5299
X3.8362Y1.6299
X3.7362Y2.5299
X5.4362Y2.4299
X8.9362Y4.0299
X2.5362Y2.5299
X5.3362Y2.0299
X8.7362Y2.4299
X5.2362Y2.0299
X7.5362Y2.4299
X1.6362Y0.8299
X7.7362Y0.7299
X6.5362Y4.4299
X8.5362Y1.9299
X5.7362Y0.8299
X4.2362Y2.2299
X1.3362Y2.0299
X2.7362Y0.8299
X2.8362Y5.9299
X1.3362Y0.7299
X6.6362Y0.6299
X2.9362Y0.6299
X4.2362Y1.9299
X2.1362Y1.9299
X8.4362Y1.0299
X6.2362Y1.0299
X0.9362Y1.9299
X4.1362Y1.8299
X1.0362Y1.1299
X8.5362Y1.1299
X2.2362Y1.2299
X4.0362Y1.2299
X7.6362Y0.6299
X3.0362Y1.8299
X8.9362Y0.6299
X4.0362Y1.8299
X1.0362Y1.0299
X2.3362Y1.1299
X3.9362Y1.2299
X2.3362Y5.9299
X6.1362Y1.2299
X6.0362Y1.2299
X7.8362Y1.2299
X2.4362Y1.3299
X8.6362Y1.2299
X1.5362Y1.4299
X1.4362Y1.4299
X5.8362Y1.4299
X8.0362Y1.4299
X6.9362Y1.6299
X7.2362Y1.6299
X1.4362Y1.7299
X8.6362Y1.6299
X2.5362Y1.7299
X4.2362Y0.2654
X4.3362Y0.3654
X5.1362Y0.3654
X4.7362Y0.1654
X5.6362Y3.9299
X3.0362Y3.9299
X6.3362Y3.9299
X8.6362Y5.1299
X7.3362Y5.3299
X7.7362Y3.3299
X4.2362Y3.4299
X8.2362Y3.4299
X2.6362Y3.5299
X2.8362Y3.5299
X6.5362Y2.8299
X0.5362Y2.9299
X7.3362Y3.6299
X7.6362Y3.6299
X8.1362Y2.0299
X1.9362Y2.1299
X6.8362Y2.1299
X5.7362Y2.6299
X1.5362Y2.7299
X2.1362Y2.7299
X5.2362Y2.7299
X5.8362Y2.7299
X3.1362Y4.5299
X8.5362Y4.5299
X3.4362Y4.6299
X1.2362Y4.8299
X2.7362Y5.4299
X2.8362Y5.4299
X3.6362Y5.4299
X4.0362Y5.4299
X0.7362Y5.8299
X1.8362Y5.5299
X3.6362Y5.5299
X2.4362Y5.5299
X1.4362Y5.7299
X6.2362Y5.7299
X3.2362Y1.6299
X1.0362Y2.6299
X2.7362Y3.0299
X7.7362Y3.0299
X3.8362Y3.0299
X6.5362Y3.7299
X3.0362Y3.8299
X1.8362Y3.9299
X6.9362Y3.8299
X7.8362Y3.9299
X3.6362Y4.0299
X6.7362Y4.0299
X0.9362Y5.6299
X0.2362Y4.5299
X5.9362Y5.8299
X4.8362Y5.7299
X8.7362Y4.6299
X2.1362Y4.7299
X1.8362Y5.2299
X7.9362Y5.8299
X4.6362Y2.2299
X1.5362Y2.3299
X6.6362Y2.2299
X2.5362Y2.2299
X1.9362Y2.5299
X4.0362Y2.4299
X5.7362Y2.0299
X0.6362Y2.0299
X7.2362Y0.8299
X7.0362Y0.7299
X5.9362Y0.6299
X3.3362Y1.4299
X8.6362Y1.4299
X3.5362Y1.5299
X6.8362Y1.5299
X3.1362Y1.7299
X6.5362Y1.7299
X5.0362Y0.2654
X3.6362Y4.1299
X4.1362Y3.9299
X5.2362Y4.6299
X7.4362Y1.4299
X1.3362Y5.1299
X6.6362Y3.9299
X6.2362Y1.5299
X2.7362Y3.9299
X7.7362Y5.1299
X7.1362Y5.1299
X5.6362Y5.1299
X3.0362Y5.1299
X0.6362Y4.9299
X0.5362Y4.9299
X0.8362Y5.0299
X8.2362Y5.1299
X8.1362Y5.1299
X3.9362Y5.0299
X8.5362Y5.1299
X6.5362Y5.2299
X1.9362Y0.6299
X0.5362Y5.0299
X1.0362Y0.6299
X7.8362Y4.9299
X7.1362Y1.6299
X2.2362Y4.9299
X1.4362Y5.3299
X0.9362Y5.5299
X1.4362Y3.4299
X3.2362Y3.5299
X6.7362Y4.3299
X8.2362Y3.5299
X8.5362Y3.5299
X2.8362Y3.6299
X5.3362Y2.1299
X3.1362Y2.1299
X4.0362Y2.6299
X5.7362Y2.7299
X8.5362Y2.7299
X1.6362Y5.3299
X5.3362Y4.3299
X1.6362Y2.9299
X1.9362Y2.9299
X2.8362Y5.3299
X6.4362Y5.3299
X5.5362Y2.9299
X7.8362Y3.6299
X5.4362Y2.8299
X6.6362Y4.2299
X6.8362Y4.2299
X2.5362Y4.3299
X4.2362Y4.3299
X3.2362Y3.6299
X8.1362Y4.5299
X5.2362Y4.7299
X2.6362Y5.4299
X8.4362Y4.5299
X0.9362Y4.6299
X2.9362Y4.6299
X5.6362Y4.7299
X3.3362Y4.8299
X5.9362Y4.8299
X6.0362Y5.4299
X7.4362Y5.4299
X8.6362Y5.4299
X7.0362Y4.5299
X6.8362Y5.4299
X5.4362Y5.5299
X3.7362Y5.2299
X7.2362Y1.5299
X0.4362Y2.6299
X0.5362Y2.6299
X1.7362Y2.6299
X2.2362Y3.0299
X8.3362Y3.0299
X6.2362Y3.0299
X3.3362Y3.0299
X2.1362Y3.1299
X6.1362Y3.2299
X1.7362Y3.3299
X3.8362Y3.3299
X6.0362Y3.7299
X2.0362Y3.8299
X1.3362Y3.9299
X3.1362Y4.0299
X7.3362Y4.0299
X6.2362Y4.0299
X4.4362Y5.5299
X0.7362Y1.6299
X3.8362Y3.7299
X1.9362Y3.8299
X0.5362Y4.2299
X4.6362Y4.1299
X4.6362Y3.9299
X4.6362Y2.9299
X3.6362Y5.7299
X4.1362Y5.7299
X1.8362Y1.6299
X1.6362Y4.2299
X5.1362Y5.6299
X4.4362Y4.5299
X7.1362Y3.7299
X8.4362Y4.0299
X0.2362Y3.8299
X2.2362Y3.2299
X3.2362Y3.1299
X5.2362Y5.6299
X2.2362Y5.8299
X4.6362Y2.8299
X2.0362Y4.4299
X3.2362Y4.4299
X3.1362Y2.6299
X4.6362Y1.8299
X5.3362Y3.8299
X4.6362Y1.3299
X4.6362Y1.7299
X4.8362Y5.6299
X6.8362Y5.8299
X5.2362Y4.0299
X8.7362Y4.4299
X2.7362Y4.7299
X1.6362Y4.7299
X8.0362Y5.9299
X8.9362Y5.4299
X1.1362Y2.4299
X1.0362Y2.3299
X7.2362Y2.2299
X2.0362Y2.2299
X1.4362Y2.5299
X3.5362Y2.4299
X2.4362Y2.4299
X3.4362Y2.0299
X2.3362Y2.0299
X6.7362Y0.8299
X8.7362Y0.7299
X3.1362Y1.9299
X8.2362Y1.8299
X5.0362Y1.0299
X5.2362Y1.1299
X8.7362Y1.1299
X3.2362Y1.2299
X1.3362Y1.3299
X3.0362Y1.3299
X5.1362Y1.3299
X2.4362Y1.5299
X1.2362Y1.5299
X1.9362Y1.7299
X4.2362Y1.7299
X3.7362Y3.9299
X5.3362Y3.9299
X2.0362Y2.3299
X5.1362Y4.4299
X8.1362Y4.6299
X1.7362Y5.9299
X3.9362Y5.9299
X8.7362Y5.9299
X8.9362Y5.3299
X8.3362Y2.3299
X3.2362Y2.3299
X2.1362Y2.3299
X6.5362Y2.5299
X7.8362Y0.8299
X3.5362Y0.7299
X8.1362Y1.8299
X7.0362Y1.8299
X2.1362Y1.0299
X7.2362Y1.0299
X5.7362Y1.1299
X7.4362Y1.1299
X3.8362Y1.3299
X6.0362Y1.3299
X2.3362Y1.5299
X4.1362Y1.7299
X5.2362Y1.7299
X8.1362Y1.7299
X4.7362Y0.3654
X6.0362Y4.1299
X5.7362Y4.6299
X1.0362Y4.1299
X7.6362Y4.8299
X1.0362Y4.9299
X2.4362Y5.1299
X2.4362Y4.1299
X5.4362Y4.9299
X7.4362Y3.4299
X7.2362Y1.9299
X6.9362Y5.0299
X7.6362Y5.0299
X8.1362Y5.0299
X2.9362Y4.1299
X3.6362Y4.9299
X1.8362Y5.0299
X5.8362Y5.2299
X1.2362Y5.3299
X6.2362Y3.3299
X6.6362Y3.3299
X3.2362Y4.9299
X2.3362Y3.4299
X3.3362Y3.4299
X3.9362Y3.4299
X2.5362Y5.2299
X6.1362Y1.5299
X5.9362Y1.6299
X6.3362Y1.6299
X0.7362Y1.7299
X7.5362Y1.7299
X5.1362Y0.1654
X0.9362Y0.6299
X2.2362Y3.9299
X3.9362Y5.1299
X2.3362Y5.0299
X5.3362Y5.2299
X3.5362Y5.3299
X8.2362Y3.3299
X1.7362Y3.5299
X6.0362Y4.3299
X2.9362Y2.9299
X5.9362Y3.6299
X8.6362Y2.0299
X8.4362Y2.1299
X6.5362Y2.6299
X2.6362Y2.7299
X4.0362Y2.8299
X7.1362Y4.2299
X3.6362Y4.5299
X5.3362Y4.5299
X7.3362Y4.8299
X4.1362Y5.5299
X1.9362Y5.7299
X5.3362Y5.7299
X6.7362Y5.7299
X1.7362Y1.6299
X1.5362Y2.6299
X3.0362Y2.6299
X3.1362Y3.1299
X0.9362Y3.1299
X6.6362Y3.2299
X6.9362Y3.2299
X7.0362Y3.7299
X2.8362Y3.8299
X7.4362Y3.8299
X8.3362Y3.9299
X4.2362Y4.0299
X2.7362Y4.2299
X3.2362Y5.6299
X1.3362Y5.6299
X1.1362Y5.6299
X4.6362Y0.7299
X4.4362Y5.3299
X6.4362Y5.8299
X3.1362Y4.4299
X7.5362Y4.4299
X0.5362Y4.7299
X0.7362Y4.7299
X8.4362Y5.8299
X4.6362Y2.4299
X8.9362Y1.6299
X2.0362Y1.8299
X6.0362Y2.3299
X4.2362Y2.3299
X7.1362Y2.2299
X5.9362Y2.2299
X6.3362Y2.4299
X5.2362Y2.4299
X6.2362Y2.0299
X7.7362Y0.8299
X7.5362Y0.7299
X6.4362Y0.7299
X2.3362Y0.7299
X6.4362Y0.6299
X7.7362Y3.5299
X2.7362Y0.6299
X6.9362Y1.8299
X2.8362Y1.8299
X2.0362Y1.0299
X7.1362Y1.0299
X6.0362Y1.0299
X1.5362Y1.2299
X7.0362Y1.2299
X7.5362Y1.3299
X8.4362Y1.4299
X6.6362Y1.5299
X4.0362Y1.7299
X2.9362Y1.7299
X6.3362Y1.7299
X4.8362Y0.2654
X3.4362Y3.9299
X1.1362Y5.1299
X6.9362Y5.1299
X6.7362Y3.9299
X4.2362Y5.1299
X7.1362Y4.3299
X2.0362Y4.9299
X8.7362Y4.9299
X1.3362Y5.2299
X6.2362Y5.3299
X7.3362Y3.4299
X3.2362Y3.4299
X6.2362Y3.4299
X6.4362Y2.9299
X5.3362Y2.9299
X7.5362Y2.9299
X3.1362Y4.9299
X0.8362Y3.5299
X6.7362Y3.6299
X6.9362Y2.8299
X6.2362Y3.5299
X8.4362Y4.3299
X8.5362Y4.3299
X7.0362Y2.8299
X3.8362Y3.4299
X8.4362Y2.8299
X6.7362Y3.5299
X5.6362Y5.0299
X3.9362Y3.6299
X1.5362Y3.7299
X2.4362Y2.1299
X1.3362Y2.1299
X3.7362Y2.1299
X1.1362Y2.8299
X2.5362Y2.8299
X8.1362Y4.2299
X8.3362Y4.2299
X8.7362Y4.2299
X0.7362Y4.3299
X0.9362Y4.3299
X1.8362Y4.3299
X2.4362Y4.3299
X2.6362Y4.3299
X4.2362Y2.1299
X7.2362Y2.1299
X8.7362Y2.6299
X8.6362Y3.6299
X7.3362Y2.6299
X0.9362Y2.7299
X4.0362Y2.7299
X5.1362Y2.8299
X1.4362Y3.7299
X3.6362Y2.6299
X5.4362Y2.6299
X0.8362Y2.7299
X3.5362Y4.3299
X2.5362Y4.5299
X6.9362Y4.8299
X5.8362Y5.4299
X7.7362Y5.4299
X5.6362Y5.7299
X4.2362Y4.7299
X2.9362Y5.5299
X5.6362Y5.5299
X7.9362Y5.6299
X6.9362Y4.7299
X8.0362Y4.7299
X1.7362Y4.8299
X2.4362Y4.5299
X2.8362Y4.5299
X1.7362Y4.6299
X0.6362Y4.8299
X7.1362Y5.6299
X8.4362Y5.7299
X2.8362Y1.6299
X7.9362Y1.5299
X8.4362Y2.5299
X4.2362Y3.2299
X8.1362Y3.2299
X2.7362Y3.3299
X7.3362Y3.9299
X3.2362Y3.2299
X8.5362Y3.8299
X1.0362Y3.2299
X8.3362Y3.1299
X6.1362Y3.1299
X5.0362Y3.1299
X5.5362Y3.3299
X2.5362Y2.6299
X0.5362Y3.0299
X1.3362Y3.0299
X2.9362Y3.0299
X7.2362Y3.0299
X5.0362Y3.0299
X1.8362Y4.0299
X5.2362Y4.1299
X0.4362Y3.0299
X6.3362Y3.8299
X7.7362Y4.1299
X5.1362Y4.1299
X8.3362Y5.5299
X8.1362Y5.5299
X7.1362Y5.5299
X6.5362Y4.5299
X0.7362Y4.6299
X2.7362Y4.6299
X5.1362Y4.7299
X3.1362Y4.8299
X4.2362Y5.4299
X0.6362Y5.5299
X7.1362Y3.0299
X6.0362Y3.0299
X3.1362Y3.0299
X0.9362Y3.2299
X7.1362Y3.1299
X1.9362Y3.1299
X5.9362Y3.2299
X2.6362Y3.3299
X8.7362Y3.2299
X7.9362Y3.7299
X4.4362Y1.2299
X1.3362Y4.5299
X6.3362Y5.6299
X7.6362Y5.8299
X5.3362Y5.8299
X5.2362Y5.8299
X4.8362Y1.2299
X1.5362Y4.5299
X4.6362Y1.4299
X2.9362Y5.8299
X2.8362Y5.8299
X7.1362Y4.0299
X0.2362Y5.4299
X4.4362Y2.8299
X8.2362Y5.5299
X4.6362Y5.6299
X1.1362Y3.9299
X8.0362Y5.5299
X4.4362Y4.3299
X6.3362Y4.4299
X8.5362Y4.4299
X2.5362Y4.7299
X1.4362Y4.7299
X1.5362Y5.9299
X7.1362Y2.3299
X6.7362Y5.9299
X5.6362Y5.9299
X2.7362Y5.9299
X7.8362Y5.9299
X6.8362Y5.9299
X2.6362Y5.9299
X8.9362Y2.8299
X0.2362Y1.1299
X7.2362Y2.3299
X8.2362Y2.2299
X3.0362Y2.2299
X3.5362Y2.5299
X8.6362Y2.4299
X1.4362Y2.2299
X7.4362Y2.4299
X2.1362Y2.0299
X8.5362Y0.7299
X1.2362Y0.7299
X3.3362Y2.4299
X4.1362Y1.9299
X8.9362Y3.8299
X5.1362Y2.0299
X2.5362Y0.8299
X7.5362Y2.5299
X8.7362Y0.6299
X4.1362Y2.2299
X7.6362Y2.5299
X5.4362Y2.5299
X7.4362Y2.5299
X2.2362Y2.4299
X3.2362Y2.0299
X1.1362Y2.0299
X8.3362Y1.9299
X1.4362Y0.8299
X2.4362Y2.5299
X8.6362Y0.6299
X7.5362Y0.6299
X0.8362Y2.3299
X3.7362Y1.6299
X6.5362Y0.8299
X2.9362Y1.9299
X1.9362Y1.9299
X0.8362Y1.9299
X5.8362Y1.8299
X3.8362Y1.2299
X2.3362Y1.3299
X8.4362Y1.1299
X2.1362Y1.2299
X7.7362Y1.2299
X0.4362Y1.4299
X3.9362Y1.8299
X8.3362Y1.0299
X0.9362Y1.1299
X8.2362Y1.0299
X2.2362Y1.1299
X5.9362Y1.2299
X8.2362Y1.3299
X8.7362Y1.3299
X0.8362Y1.0299
X5.4362Y1.4299
X7.3362Y1.4299
X4.0362Y4.6299
X5.8362Y1.6299
X1.7362Y0.6299
X6.2362Y5.2299
X3.0362Y1.2299
X1.0362Y1.5299
X5.2362Y1.5299
X6.1362Y4.6299
X7.3362Y4.6299
X6.0362Y1.5299
X4.0362Y0.1654
X6.0362Y3.9299
X5.9362Y3.9299
X2.6362Y3.9299
X3.3362Y1.5299
X7.0362Y1.6299
X1.7362Y1.7299
X0.6362Y1.7299
X0.4362Y0.6299
X2.5362Y3.9299
X7.8362Y5.0299
X8.3362Y1.1299
X3.2362Y1.4299
X7.6362Y1.6299
X7.4362Y1.7299
X3.8362Y5.0299
X5.5362Y5.1299
X2.6362Y5.1299
X0.4362Y4.9299
X0.7362Y5.0299
X6.8362Y5.0299
X8.4362Y5.1299
X1.2362Y3.4299
X2.6362Y3.6299
X1.5362Y3.6299
X2.2362Y5.0299
X2.7362Y5.3299
X3.4362Y5.3299
X8.7362Y3.5299
X7.9362Y5.2299
X2.4362Y3.5299
X8.1362Y3.3299
X5.9362Y4.3299
X1.4362Y3.6299
X0.7362Y3.7299
X3.7362Y5.0299
X1.3362Y4.4299
X0.6362Y5.0299
X1.6362Y3.5299
X1.5362Y2.9299
X6.6362Y4.9299
X0.5362Y5.2299
X2.8362Y2.9299
X6.7362Y2.9299
X8.5362Y2.0299
X0.7362Y5.2299
X5.0362Y2.1299
X7.3362Y2.1299
X0.2362Y3.0299
X8.5362Y4.8299
X5.2362Y4.9299
X1.1362Y5.0299
X2.7362Y3.7299
X6.6362Y2.9299
X7.1362Y2.9299
X2.2362Y2.1299
X8.5362Y2.6299
X3.0362Y2.8299
X1.9362Y4.1299
X1.6362Y5.0299
X6.0362Y3.3299
X6.4362Y3.3299
X7.6362Y3.3299
X1.5362Y3.5299
X1.1362Y2.1299
X6.3362Y2.1299
X6.6362Y2.1299
X2.4362Y2.7299
X7.2362Y2.7299
X0.9362Y2.8299
X2.3362Y2.8299
X6.4362Y4.4299
X8.6362Y4.4299
X2.6362Y4.7299
X1.5362Y4.7299
X6.7362Y4.2299
X5.3362Y2.8299
X5.0362Y4.2299
X6.5362Y4.2299
X4.1362Y4.3299
X8.0362Y4.5299
X6.9362Y4.5299
X8.3362Y4.5299
X5.5362Y4.7299
X5.8362Y4.8299
X7.0362Y5.4299
X8.4362Y5.4299
X8.5362Y5.4299
X0.7362Y5.5299
X3.6362Y3.3299
X5.8362Y3.7299
X1.9362Y4.4299
X1.6362Y5.9299
X7.9362Y5.9299
X5.3362Y5.5299
X3.5362Y5.7299
X7.9362Y5.7299
X0.6362Y1.6299
X2.1362Y3.2299
X1.5362Y3.3299
X3.7362Y3.7299
X1.8362Y3.8299
X0.7362Y3.8299
X5.2362Y3.8299
X2.9362Y4.0299
X1.5362Y4.2299
X0.4362Y4.2299
X8.3362Y4.0299
X6.0362Y4.0299
X5.0362Y5.6299
X0.2362Y3.6299
X6.7362Y5.8299
X4.6362Y4.0299
X5.0362Y4.4299
X8.0362Y4.6299
X1.4362Y2.6299
X3.5362Y2.8299
X3.9362Y2.8299
X5.2362Y4.2299
X3.5362Y4.5299
X5.1362Y4.5299
X5.2362Y4.5299
X8.2362Y4.5299
X4.0362Y4.7299
X5.4362Y4.7299
X1.6362Y5.5299
X5.2362Y5.5299
X1.8362Y5.7299
X1.6362Y1.6299
X2.9362Y2.6299
X2.0362Y3.0299
X8.1362Y3.0299
X3.0362Y3.1299
X6.8362Y3.2299
X3.6362Y3.7299
X6.9362Y3.7299
X3.4362Y3.8299
X1.3362Y1.8299
X7.3362Y3.8299
X4.1362Y4.0299
X7.4362Y4.4299
X8.9362Y5.2299
X1.2362Y2.2299
X1.0362Y2.4299
X6.4362Y5.6299
X1.3362Y2.2299
X0.9362Y2.4299
X8.2362Y4.0299
X1.2362Y5.6299
X0.2362Y4.9299
X8.4362Y5.9299
X0.4362Y4.0299
X8.3362Y5.8299
X8.2362Y2.3299
X6.3362Y5.8299
X2.4362Y5.2299
X3.8362Y5.9299
X3.1362Y5.6299
X4.8362Y2.6299
X8.9362Y3.9299
X1.9362Y1.8299
X5.9362Y2.3299
X4.1362Y2.3299
X3.6362Y2.5299
X1.3362Y2.5299
X3.1362Y2.3299
X1.2362Y2.5299
X1.9362Y2.3299
X0.9362Y2.3299
X1.9362Y2.2299
X1.8362Y2.2299
X6.4362Y2.5299
X5.8362Y2.2299
X6.3362Y2.5299
X1.1362Y2.5299
X4.2362Y4.2299
X3.4362Y2.4299
X2.3362Y2.4299
X3.3362Y2.0299
X2.2362Y2.0299
X8.4362Y1.9299
X6.6362Y0.8299
X8.6362Y0.7299
X3.0362Y1.9299
X0.9362Y1.0299
X4.2362Y1.0299
X5.1362Y1.1299
X8.6362Y1.1299
X3.1362Y1.2299
X1.2362Y1.3299
X2.9362Y1.3299
X1.3362Y1.4299
X3.1362Y1.4299
X3.4362Y1.5299
X1.1362Y1.5299
X1.8362Y1.7299
X5.2362Y3.9299
X6.2362Y4.6299
X7.5362Y5.0299
X8.0362Y5.0299
X2.0362Y5.1299
X2.3362Y4.1299
X0.9362Y4.9299
X5.3362Y4.9299
X1.7362Y5.0299
X6.1362Y3.3299
X6.5362Y3.3299
X2.9362Y3.5299
X0.5362Y4.4299
X8.0362Y4.3299
X7.9362Y4.3299
X7.8362Y4.3299
X8.0362Y2.8299
X6.1362Y3.5299
X5.2362Y3.6299
X2.3362Y2.1299
X1.2362Y2.1299
X3.5362Y2.1299
X3.6362Y2.1299
X6.7362Y2.1299
X8.3362Y2.1299
X5.0362Y2.6299
X8.6362Y2.6299
X2.5362Y2.7299
X7.3362Y2.7299
X1.0362Y2.8299
X2.4362Y2.8299
X3.4362Y4.2299
X8.6362Y4.2299
X0.6362Y4.3299
X1.7362Y4.3299
X1.6362Y4.6299
X1.6362Y4.8299
X5.7362Y5.4299
X3.4362Y4.5299
X7.1362Y3.4299
X7.6362Y5.4299
X4.0362Y5.5299
X6.6362Y5.7299
X7.8362Y1.5299
X1.2362Y3.0299
X4.2362Y3.0299
X6.0362Y3.1299
X4.2362Y3.1299
X4.1362Y3.2299
X5.4362Y3.3299
X8.4362Y3.8299
X7.2362Y3.9299
X8.2362Y3.9299
X0.6362Y4.0299
X2.6362Y4.2299
X4.4362Y1.1299
X0.2362Y5.3299
X4.4362Y2.7299
X4.4362Y1.7299
X7.5362Y5.8299
X4.6362Y5.5299
X4.6362Y3.8299
X1.2362Y4.5299
X8.9362Y2.7299
X0.2362Y1.0299
X8.1362Y2.2299
X7.0362Y2.2299
X2.9362Y2.2299
X5.3362Y2.5299
X8.5362Y2.4299
X5.0362Y2.0299
X1.0362Y2.0299
X2.4362Y0.8299
X1.3362Y0.8299
X4.0362Y1.9299
X1.8362Y1.9299
X0.7362Y1.9299
X5.7362Y1.8299
X5.9362Y1.0299
X0.8362Y1.1299
X7.6362Y1.2299
X2.2362Y1.3299
X5.1362Y1.4299
X6.4362Y1.4299
X7.2362Y1.4299
X2.8362Y1.7299
X3.9362Y4.6299
X6.8362Y1.9299
X7.2362Y4.6299
X4.0362Y5.1299
X3.8362Y5.1299
X5.4362Y5.1299
X8.7362Y4.8299
X6.7362Y5.0299
X5.5362Y5.0299
X7.4362Y5.2299
X2.6362Y5.3299
X6.6362Y3.6299
X1.1362Y4.4299
X7.3362Y4.3299
X1.4362Y2.9299
X6.3362Y2.9299
X7.2362Y2.9299
X8.6362Y3.5299
X2.0362Y3.7299
X2.5362Y3.6299
X6.1362Y3.6299
X8.3362Y2.7299
X5.9362Y2.8299
X5.2362Y2.8299
X6.4362Y4.2299
X4.0362Y4.3299
X7.9362Y4.5299
X6.8362Y4.5299
X2.6362Y4.6299
X5.7362Y4.8299
X0.5362Y5.8299
X0.9362Y5.4299
X5.5362Y5.4299
X5.6362Y5.4299
X6.9362Y5.4299
X3.4362Y5.7299
X7.8362Y5.7299
X0.5362Y1.6299
X5.9362Y3.0299
X3.0362Y3.0299
X2.0362Y3.2299
X1.4362Y3.3299
X3.5362Y3.3299
X5.7362Y3.7299
X1.7362Y3.8299
X0.6362Y3.8299
X1.0362Y3.9299
X5.1362Y3.8299
X2.8362Y4.0299
X1.4362Y4.2299
X8.7362Y4.1299
X5.9362Y4.0299
X4.2362Y5.6299
X1.4362Y4.5299
X0.2362Y3.5299
X0.2362Y3.4299
X4.8362Y3.9299
X1.8362Y4.4299
X4.2362Y4.4299
X7.9362Y4.6299
X1.3362Y4.7299
X7.7362Y5.9299
X3.7362Y5.9299
X8.9362Y5.1299
X8.7362Y1.7299
X1.2362Y1.8299
X0.8362Y2.4299
X8.1362Y2.3299
X3.0362Y2.3299
X1.7362Y2.2299
X2.3362Y2.5299
X6.4362Y0.8299
X3.3362Y0.7299
X8.5362Y0.6299
X7.9362Y1.8299
X8.1362Y1.0299
X4.0362Y1.0299
X4.2362Y1.1299
X7.2362Y1.1299
X2.9362Y1.2299
X3.7362Y1.2299
X1.0362Y1.3299
X2.7362Y1.3299
X0.7362Y1.4299
X2.9362Y1.4299
X2.1362Y1.5299
X5.0362Y1.5299
X4.5362Y0.3654
X7.0362Y1.9299
X2.7362Y4.1299
X0.6362Y5.1299
X7.4362Y4.9299
X1.5362Y5.0299
X0.4362Y5.3299
X1.1362Y5.3299
X2.3362Y5.3299
X2.1362Y3.4299
X6.0362Y3.4299
X1.0362Y4.4299
X1.2362Y3.5299
X1.4362Y3.5299
X1.0362Y2.9299
X5.7362Y3.5299
X0.8362Y3.6299
X5.0362Y3.6299
X0.4362Y3.7299
X8.1362Y2.1299
X7.1362Y2.6299
X8.4362Y2.6299
X7.5362Y2.7299
X0.8362Y2.8299
X2.2362Y2.8299
X4.2362Y2.8299
X6.2362Y4.2299
X3.3362Y4.3299
X2.2362Y4.5299
X5.9362Y4.5299
X1.5362Y4.6299
X1.2362Y4.3299
X1.4362Y4.6299
X6.7362Y4.7299
X1.5362Y4.8299
X3.1362Y5.4299
X7.5362Y5.4299
X2.0362Y5.5299
X3.9362Y5.5299
X1.1362Y5.8299
X1.7362Y5.7299
X6.5362Y5.7299
X7.7362Y1.5299
X1.3362Y2.6299
X8.0362Y3.0299
X4.1362Y3.0299
X5.9362Y3.1299
X5.3362Y3.3299
X7.2362Y3.8299
X2.6362Y1.6299
X8.1362Y3.9299
X4.0362Y3.1299
X3.9362Y4.0299
X8.7362Y5.7299
X6.9362Y5.6299
X3.9362Y3.2299
X7.9362Y3.2299
X2.5362Y4.2299
X7.8362Y4.7299
X0.4362Y4.8299
X5.1362Y4.8299
X6.7362Y4.8299
X2.3362Y2.6299
X8.6362Y2.9299
X1.0362Y3.0299
X5.2362Y3.3299
X1.6362Y4.0299
X5.6362Y1.1299
X4.4362Y5.8299
X4.4362Y1.0299
X0.2362Y5.2299
X4.4362Y2.6299
X7.4362Y5.8299
X4.6362Y3.7299
X3.0362Y4.4299
X1.1362Y4.5299
X8.2362Y5.8299
X8.9362Y1.5299
X8.9362Y2.6299
X0.2362Y0.9299
X1.8362Y2.3299
X8.0362Y2.2299
X6.9362Y2.2299
X6.1362Y2.0299
X2.8362Y2.2299
X5.1362Y2.4299
X8.4362Y2.4299
X2.8362Y1.3299
X3.5362Y0.8299
X5.0362Y1.1299
X2.2362Y0.7299
X5.5362Y1.2299
X0.9362Y2.0299
X4.1362Y1.0299
X2.7362Y1.8299
X3.7362Y1.3299
X1.9362Y1.0299
X2.6362Y0.6299
X1.1362Y1.3299
X6.3362Y0.6299
X1.4362Y1.2299
X6.9362Y1.2299
X4.2362Y2.0299
X8.0362Y1.8299
X7.4362Y0.7299
X3.4362Y0.7299
X6.8362Y1.8299
X7.6362Y0.8299
X7.3362Y1.1299
X6.3362Y0.7299
X3.1362Y1.0299
X7.0362Y1.0299
X2.3362Y0.8299
X6.2362Y0.7299
X3.9362Y1.9299
X1.7362Y1.9299
X0.6362Y1.9299
X5.6362Y1.8299
X3.0362Y1.0299
X5.8362Y1.0299
X0.7362Y1.1299
X7.5362Y1.2299
X8.6362Y0.8299
X7.5362Y4.1299
X4.2362Y4.1299
X4.4362Y2.1299
X5.0362Y5.8299
X2.6362Y5.8299
X4.6362Y5.3299
X2.9362Y4.4299
X7.3362Y4.4299
X1.0362Y4.5299
X3.2362Y5.2299
X0.4362Y5.9299
X6.5362Y5.9299
X5.4362Y5.9299
X8.9362Y1.4299
X8.9362Y4.8299
X6.9362Y2.3299
X4.1362Y2.0299
X3.4362Y0.8299
X1.1362Y0.8299
X7.3362Y0.6299
X3.8362Y1.9299
X5.9362Y1.3299
X1.8362Y1.8299
X8.3362Y2.4299
X5.7362Y1.2299
X7.4362Y1.2299
X3.5362Y1.3299
X7.4362Y1.3299
X8.1362Y1.3299
X5.8362Y2.3299
X7.2362Y2.4299
X3.7362Y1.8299
X2.0362Y1.3299
X8.3362Y1.3299
X2.3362Y1.4299
X5.1362Y1.7299
X8.0362Y1.7299
X4.6362Y0.2654
X5.6362Y4.6299
X2.2362Y1.4299
X3.0362Y1.4299
X3.8362Y4.6299
X5.2362Y1.4299
X4.7362Y0.2654
X3.3362Y3.9299
X6.2362Y1.4299
X2.2362Y1.5299
X4.6362Y0.3654
X8.3362Y1.4299
X7.1362Y1.4299
X8.2362Y1.4299
X5.1362Y1.5299
X5.6362Y1.6299
X3.9362Y1.7299
X7.2362Y1.7299
X6.2362Y1.7299
X2.7362Y1.7299
X6.1362Y1.7299
X4.9362Y0.1654
X7.1362Y1.9299
X6.5362Y1.5299
X7.4362Y1.6299
X0.4362Y1.7299
X0.8362Y0.6299
X5.0362Y2.4299
X2.2362Y4.1299
X7.5362Y4.9299
X2.2362Y3.4299
X7.2362Y3.4299
X6.1362Y3.4299
X5.4362Y4.3299
X5.1362Y3.6299
X6.3362Y4.9299
X0.9362Y5.2299
X1.2362Y5.2299
X3.8362Y3.6299
X3.9362Y2.7299
X1.9362Y4.9299
X3.0362Y4.9299
X6.1362Y5.3299
X8.2362Y2.1299
X0.8362Y4.9299
X1.2362Y3.7299
X3.1362Y3.4299
X3.7362Y3.4299
X7.2362Y2.6299
X1.0362Y5.1299
X8.6362Y4.9299
X0.5362Y3.5299
X0.6362Y3.5299
X1.3362Y3.5299
X6.8362Y2.8299
X7.2362Y3.5299
X7.4362Y2.1299
X3.8362Y2.7299
X5.0362Y2.8299
X6.8362Y5.1299
X2.6362Y3.7299
X5.4362Y3.5299
X5.8362Y2.8299
X7.1362Y2.1299
X8.0362Y4.2299
X8.2362Y4.2299
X0.5362Y4.3299
X3.4362Y4.3299
X7.4362Y4.8299
X2.3362Y4.5299
X6.8362Y4.7299
X7.9362Y4.7299
X0.5362Y4.8299
X6.8362Y4.8299
X1.2362Y5.8299
X2.8362Y5.5299
X6.2362Y2.9299
X5.5362Y5.5299
X7.0362Y5.6299
X2.7362Y1.6299
X2.7362Y4.5299
X6.4362Y4.5299
X0.6362Y4.6299
X2.4362Y4.8299
X2.4362Y2.6299
X8.7362Y2.9299
X1.1362Y3.0299
X0.4362Y5.8299
X4.2362Y5.5299
X1.8362Y3.1299
X6.2362Y3.8299
X6.1362Y3.8299
X1.7362Y4.0299
X7.0362Y3.0299
X3.1362Y3.2299
X3.0362Y3.2299
X0.8362Y3.2299
X0.7362Y3.1299
X8.0362Y3.2299
X5.2362Y5.4299
X6.2362Y5.4299
X2.7362Y5.5299
X8.2362Y3.1299
X2.5362Y3.3299
X8.6362Y3.2299
X8.3362Y3.8299
X5.0362Y4.1299
X3.0362Y4.8299
X8.1362Y3.1299
X4.1362Y3.1299
X7.0362Y3.1299
X0.8362Y3.1299
X5.8362Y3.2299
X4.0362Y3.2299
X7.6362Y4.1299
X7.0362Y4.0299
X7.9362Y5.5299
X7.0362Y5.5299
X6.3362Y4.2299
X0.9362Y5.1299
X3.4362Y5.1299
X5.4362Y5.0299
X1.1362Y5.2299
X7.3362Y5.2299
X0.7362Y5.3299
X2.5362Y5.3299
X0.8362Y4.4299
X3.0362Y3.5299
X6.5362Y3.6299
X1.6362Y3.7299
X1.3362Y2.9299
X7.4362Y2.9299
X2.4362Y3.6299
X6.3362Y2.7299
X4.1362Y4.2299
X5.6362Y4.2299
X3.9362Y4.3299
X7.8362Y4.5299
X0.5362Y4.6299
X2.5362Y4.6299
X7.3362Y4.7299
X2.3362Y4.8299
X5.6362Y4.8299
X1.6362Y5.4299
X6.4362Y5.5299
X7.7362Y5.6299
X7.7362Y5.7299
X5.8362Y3.0299
X1.9362Y3.2299
X6.9362Y3.1299
X1.3362Y3.3299
X5.6362Y3.7299
X1.6362Y3.8299
X0.5362Y3.8299
X0.9362Y3.9299
X8.2362Y3.8299
X5.0362Y3.8299
X2.7362Y4.0299
X8.6362Y4.1299
X5.8362Y4.0299
X4.1362Y5.6299
X4.6362Y5.4299
X4.4362Y4.2299
X2.1362Y5.6299
X5.1362Y5.8299
X6.9362Y5.5299
X6.7362Y5.5299
X6.2362Y4.4299
X5.1362Y4.3299
X6.2362Y5.6299
X4.6362Y1.6299
X4.8362Y5.0299
X7.8362Y4.6299
X8.4362Y4.4299
X0.2362Y3.3299
X2.7362Y5.8299
X4.8362Y4.6299
X3.9362Y5.8299
X4.8362Y1.1299
X1.7362Y4.4299
X1.4362Y1.6299
X4.4362Y5.1299
X8.7362Y1.5299
X2.6362Y5.5299
X1.4362Y5.9299
X1.2362Y4.7299
X5.5362Y4.8299
X5.1362Y5.3299
X2.8362Y3.1299
X2.7362Y2.6299
X5.5362Y5.9299
X1.7362Y5.2299
X5.0362Y5.5299
X2.4362Y5.3299
X6.6362Y5.9299
X4.2362Y3.8299
X1.1362Y3.4299
X5.9362Y5.4299
X8.0362Y4.0299
X3.5362Y5.0299
X3.4362Y3.7299
X2.9362Y5.6299
X6.5362Y5.0299
X5.1362Y2.9299
X8.3362Y2.0299
X6.8362Y3.9299
X8.1362Y2.7299
X0.7362Y2.9299
X3.3362Y5.2299
X7.6362Y5.9299
X0.6362Y5.3299
X0.4362Y5.1299
X7.7362Y5.2299
X3.8362Y4.3299
X7.8362Y3.7299
X8.2362Y3.6299
X1.2362Y4.2299
X8.6362Y3.9299
X0.5362Y5.4299
X7.4362Y3.5299
X6.6362Y1.9299
X6.7362Y3.7299
X7.6362Y5.2299
X3.6362Y4.6299
X7.2362Y5.2299
X2.4362Y4.7299
X5.1362Y4.2299
X0.6362Y5.4299
X8.6362Y5.6299
X0.2362Y4.7299
X4.8362Y2.4299
X6.1362Y5.8299
X7.7362Y4.6299
X2.3362Y4.7299
X2.2362Y5.2299
X2.5362Y5.9299
X7.0362Y2.3299
X4.0362Y2.2299
X7.3362Y2.4299
X6.2362Y2.4299
X8.7362Y0.8299
X1.2362Y0.8299
X1.1362Y0.7299
X7.4362Y0.6299
X3.8362Y1.8299
X2.1362Y1.1299
X2.0362Y1.2299
X5.8362Y1.2299
X2.1362Y1.3299
X3.6362Y1.3299
X8.6362Y1.3299
X1.0362Y1.4299
X5.3362Y1.4299
X6.3362Y1.4299
X5.9362Y1.5299
X5.7362Y1.6299
X7.5362Y1.6299
X0.5362Y1.7299
X7.3362Y1.7299
X5.0362Y0.1654
X2.4362Y3.9299
X6.7362Y1.9299
X7.7362Y5.0299
X5.1362Y1.6299
X8.9362Y3.7299
X8.9362Y5.0299
X1.1362Y1.8299
X0.7362Y2.3299
X3.9362Y2.2299
X7.3362Y2.5299
X5.2362Y2.5299
X3.4362Y2.5299
X6.1362Y2.4299
X3.2362Y2.4299
X2.8362Y1.9299
X3.3362Y2.5299
X1.0362Y0.7299
X8.4362Y0.6299
X3.2362Y0.7299
X5.1362Y2.5299
X3.1362Y2.4299
X8.4362Y0.7299
X3.1362Y2.0299
X6.3362Y0.8299
X2.1362Y2.4299
X1.6362Y2.2299
X2.0362Y2.0299
X8.2362Y1.9299
X2.4362Y0.6299
X8.0362Y2.3299
X2.7362Y1.9299
X0.7362Y1.0299
X7.8362Y1.8299
X7.1362Y1.1299
X5.4362Y1.2299
X0.9362Y1.4299
X3.9362Y1.0299
X1.6362Y1.1299
X4.1362Y1.1299
X8.2362Y1.1299
X8.5362Y1.2299
X2.8362Y1.4299
X3.2362Y1.5299
X2.8362Y1.2299
X0.9362Y1.3299
X7.3362Y1.3299
X3.1362Y1.5299
X3.5362Y5.9299
X8.9362Y4.9299
X1.0362Y2.2299
X1.0362Y1.8299
X7.9362Y2.3299
X3.9362Y2.3299
X2.8362Y2.3299
X5.6362Y2.2299
X6.1362Y2.5299
X2.1362Y2.5299
X0.9362Y2.5299
X2.5362Y5.1299
X4.2362Y2.4299
X5.9362Y2.0299
X7.4362Y0.8299
X7.2362Y0.7299
X2.0362Y0.7299
X0.9362Y0.7299
X6.6362Y1.8299
X1.7362Y1.0299
X0.9362Y1.5299
X1.6362Y1.7299
X4.4362Y0.2654
X4.2362Y0.1654
X6.0362Y4.6299
X1.5362Y0.6299
X6.8362Y4.1299
X0.5362Y5.1299
X0.2362Y0.6299
X6.1362Y5.2299
X6.0362Y5.1299
X5.8362Y3.9299
X6.5362Y3.9299
X4.4362Y0.3654
X7.1362Y4.6299
X6.9362Y1.9299
X7.0362Y4.6299
X2.6362Y4.1299
X1.6362Y0.6299
X6.0362Y5.2299
X1.5362Y5.1299
X7.9362Y1.0299
X8.4362Y4.8299
X1.9362Y1.5299
X3.7362Y1.7299
X1.4362Y5.1299
X6.6362Y5.1299
X7.3362Y4.9299
X6.3362Y1.1299
X6.7362Y1.2299
X6.7362Y1.3299
X4.1362Y1.5299
X6.9362Y4.6299
X1.5362Y4.1299
X1.7362Y4.9299
X6.1362Y4.9299
X6.5362Y4.9299
X6.8362Y1.0299
X2.6362Y1.1299
X1.2362Y1.2299
X2.8362Y4.9299
X7.9362Y4.2299
X2.1362Y5.0299
X6.6362Y5.0299
X3.6362Y5.0299
X7.8362Y5.2299
X3.3362Y5.3299
X7.0362Y5.3299
X7.9362Y5.3299
X8.0362Y3.3299
X1.0362Y3.5299
X0.9362Y4.4299
X8.6362Y2.8299
X2.7362Y2.9299
X3.9362Y2.9299
X5.2362Y2.9299
X5.3362Y3.5299
X5.6362Y3.5299
X1.3362Y3.6299
X8.3362Y3.6299
X8.4362Y2.0299
X4.2362Y2.6299
X3.5362Y2.7299
X8.2362Y2.7299
X3.8362Y2.8299
X5.3362Y4.7299
X0.7362Y5.4299
X5.1362Y5.5299
X8.7362Y5.6299
X2.9362Y1.6299
X1.5362Y1.6299
X0.4362Y1.6299
X2.8362Y2.6299
X2.9362Y3.1299
X3.5362Y3.7299
X6.8362Y3.7299
X3.3362Y3.8299
X2.1362Y3.9299
X8.7362Y3.9299
X1.3362Y4.2299
X8.1362Y4.0299
X3.0362Y5.6299
X0.2362Y2.1299
X0.2362Y4.8299
X4.8362Y2.5299
X6.2362Y5.8299
X2.3362Y5.2299
X3.6362Y5.9299
X1.1362Y2.2299
X4.0362Y2.3299
X2.9362Y2.3299
X5.7362Y2.2299
X6.2362Y2.5299
X2.2362Y2.5299
X1.0362Y2.5299
X6.0362Y2.0299
X5.2362Y1.6299
X7.5362Y0.8299
X7.3362Y0.7299
X2.1362Y0.7299
X6.2362Y0.6299
X2.5362Y0.6299
X6.7362Y1.8299
X1.8362Y1.0299
X8.0362Y1.0299
X6.9362Y1.0299
X6.4362Y1.1299
X1.3362Y1.2299
X6.8362Y1.2299
X2.2362Y0.8299
X7.5362Y5.3299
X7.5362Y3.3299
X7.9362Y3.3299
X5.1362Y3.4299
X8.7362Y4.3299
X0.6362Y4.4299
X7.5362Y4.3299
X7.7362Y4.3299
X2.6362Y2.9299
X5.0362Y3.5299
X2.1362Y2.1299
X1.0362Y2.1299
X6.5362Y2.1299
X2.3362Y2.7299
X7.0362Y2.7299
X7.1362Y2.7299
X3.3362Y4.5299
X5.0362Y4.5299
X3.9362Y4.7299
X1.4362Y4.8299
X3.0362Y5.4299
X5.4362Y5.4299
X6.7362Y5.4299
X1.9362Y5.5299
X3.8362Y5.5299
X1.0362Y5.7299
X1.6362Y5.7299
X3.3362Y5.7299
X6.4362Y5.7299
X7.6362Y1.5299
X1.2362Y2.6299
X2.8362Y3.0299
X7.9362Y3.0299
X4.0362Y3.0299
X3.2362Y3.8299
X2.0362Y3.9299
X7.1362Y3.8299
X8.0362Y3.9299
X3.8362Y4.0299
X2.4362Y4.2299
X6.5362Y5.5299
X4.4362Y0.9299
X0.2362Y5.1299
X4.4362Y2.5299
X7.3362Y5.8299
X4.6362Y3.6299
X4.1362Y4.4299
X0.4362Y4.7299
X2.0362Y5.2299
X7.8362Y5.8299
X1.4362Y5.0299
X8.5362Y5.3299
X8.7362Y5.2299
X2.2362Y5.3299
X7.1362Y5.3299
X8.4362Y5.3299
X8.3362Y5.3299
X8.2362Y5.3299
X8.1362Y5.3299
X8.0362Y5.3299
X2.0362Y3.4299
X7.0362Y3.4299
X5.9362Y3.4299
X8.3362Y3.4299
X2.7362Y3.5299
X1.8362Y3.7299
X4.2362Y3.5299
X0.7362Y3.6299
X4.2362Y3.6299
X3.2362Y2.1299
X8.0362Y2.1299
X5.2362Y2.6299
X6.3362Y2.6299
X7.0362Y2.6299
X8.3362Y2.6299
X0.7362Y2.8299
X2.1362Y2.8299
X1.1362Y4.3299
X3.2362Y4.3299
X2.1362Y4.5299
X6.6362Y4.7299
X8.7362Y4.7299
X2.7362Y4.8299
X5.0362Y4.8299
X6.6362Y4.8299
X5.1362Y5.4299
X6.6362Y5.4299
X8.1362Y5.8299
X0.5362Y5.5299
X3.2362Y5.7299
X2.5362Y1.6299
X2.2362Y2.6299
X3.9362Y3.1299
X3.8362Y3.2299
X2.4362Y3.3299
X5.1362Y3.3299
X1.5362Y4.0299
X2.3362Y4.2299
X7.4362Y4.1299
X2.5362Y5.8299
X2.8362Y4.4299
X7.2362Y4.4299
X0.6362Y5.9299
X4.1362Y4.1299
X4.4362Y2.4299
X6.4362Y5.9299
X8.9362Y2.5299
X6.8362Y5.6299
X7.5362Y1.5299
X0.2362Y5.0299
X4.4362Y2.0299
X4.6362Y5.2299
X4.0362Y4.4299
X0.9362Y4.5299
X5.3362Y5.9299
X8.9362Y1.3299
X8.9362Y2.4299
X2.6362Y1.3299
X8.5362Y1.3299
X6.8362Y2.2299
X0.2362Y1.9299
X0.2362Y0.8299
X0.7362Y2.4299
X1.7362Y2.3299
X7.9362Y2.2299
X2.7362Y2.2299
X0.8362Y2.0299
X6.1362Y0.7299
X1.6362Y1.9299
X0.5362Y1.9299
X5.5362Y1.8299
X2.9362Y1.0299
X1.9362Y1.2299
X5.8362Y1.3299
X8.0362Y1.3299
X8.4362Y1.3299
X2.1362Y1.4299
X6.1362Y0.6299
X5.7362Y1.0299
X7.3362Y1.2299
X5.8362Y1.5299
X5.6362Y1.2299
X5.0362Y1.4299
X1.9362Y1.3299
X6.1362Y1.4299
X2.0362Y1.5299
X7.0362Y1.4299
X8.9362Y4.7299
X0.6362Y2.4299
X6.8362Y2.3299
X3.3362Y0.8299
X7.3362Y1.6299
X3.8362Y1.7299
X8.7362Y1.6299
X2.6362Y1.7299
X3.7362Y1.9299
X2.8362Y1.0299
X4.2362Y1.5299
X4.0362Y2.0299
X6.9362Y1.5299
X7.8362Y1.6299
X8.5362Y0.8299
X1.8362Y1.2299
X3.4362Y1.3299
X6.4362Y1.5299
X7.1362Y1.7299
X6.0362Y1.7299
X3.2362Y3.9299
X0.7362Y0.6299
X3.1362Y3.9299
X6.5362Y1.9299
X3.3362Y4.1299
X4.5362Y0.2654
X6.7362Y4.1299
X0.8362Y5.1299
X1.9362Y5.1299
X8.7362Y5.0299
X3.1362Y4.1299
X6.7362Y5.1299
X6.6362Y4.1299
X5.0362Y4.6299
X4.8362Y0.1654
X2.5362Y4.1299
X3.5362Y2.6299
X1.8362Y4.1299
X1.8362Y4.9299
X2.9362Y4.9299
X6.2362Y4.9299
X5.1362Y4.9299
X8.5362Y4.9299
X1.0362Y5.3299
X5.2362Y5.3299
X6.0362Y5.3299
X3.0362Y3.4299
X0.7362Y3.5299
X8.0362Y3.4299
X6.4362Y3.6299
X0.9362Y2.9299
X1.2362Y2.9299
X6.1362Y2.9299
X0.8362Y2.1299
X3.4362Y2.8299
X0.4362Y4.6299
X2.4362Y4.6299
X7.7362Y4.7299
X5.0362Y4.9299
X1.2362Y4.4299
X6.7362Y2.8299
X5.2362Y3.5299
X7.5362Y3.6299
X3.9362Y2.6299
X5.5362Y4.2299
X2.9362Y4.8299
X2.3362Y3.6299
X3.7362Y3.6299
X3.7362Y2.7299
X6.3362Y4.5299
X5.3362Y5.0299
X6.5362Y4.3299
X0.5362Y3.7299
X6.4362Y2.7299
X4.0362Y4.2299
X2.2362Y4.8299
X3.9362Y5.4299
X3.0362Y4.1299
X5.4362Y1.9299
X6.4362Y5.0299
X7.1362Y5.2299
X5.0362Y5.3299
X7.8362Y5.3299
X1.0362Y3.4299
X6.6362Y2.8299
X1.1362Y2.9299
X2.3362Y3.7299
X6.0362Y3.5299
X7.3362Y3.5299
X8.4362Y3.5299
X1.1362Y3.6299
X5.1362Y5.7299
X2.1362Y4.8299
X7.4362Y5.6299
X8.5362Y3.6299
X3.4362Y5.4299
X1.0362Y5.8299
X6.1362Y4.2299
X7.6362Y5.6299
X1.6362Y2.7299
X6.3362Y5.5299
X8.5362Y5.6299
X1.3362Y1.6299
X8.6362Y1.5299
X8.5362Y2.9299
X7.6362Y5.7299
X5.6362Y2.1299
X5.8362Y2.1299
X7.5362Y4.8299
X7.3362Y5.6299
X8.0362Y2.7299
X5.4362Y4.8299
X3.8362Y5.4299
X5.9362Y3.8299
X8.4362Y4.9299
X2.0362Y5.0299
X0.9362Y5.3299
X3.1362Y5.3299
X2.9362Y3.4299
X2.5362Y3.5299
X5.1362Y3.5299
X3.6362Y3.6299
X3.3362Y2.1299
X7.8362Y4.2299
X4.8362Y0.6299
X1.9362Y3.0299
X6.9362Y3.0299
X0.8362Y3.9299
X6.0362Y3.8299
X5.7362Y3.0299
X2.9362Y3.2299
X0.7362Y3.2299
X8.0362Y3.1299
X5.8362Y3.1299
X1.7362Y3.1299
X0.6362Y3.1299
X1.8362Y3.2299
X6.8362Y3.1299
X5.7362Y3.1299
X5.7362Y3.2299
X7.8362Y3.2299
X1.2362Y3.3299
X8.5362Y3.2299
X5.5362Y3.7299
X1.5362Y3.8299
X0.4362Y3.8299
X8.1362Y3.8299
X0.7362Y4.0299
X1.1362Y3.3299
X2.6362Y4.0299
X8.5362Y4.1299
X0.7362Y4.1299
X6.9362Y4.0299
X5.9362Y4.1299
X5.7362Y4.0299
X4.0362Y5.6299
X6.6362Y5.5299
X0.6362Y5.6299
X7.8362Y5.5299
X6.8362Y5.5299
X6.1362Y5.6299
X4.4362Y5.2299
X4.4362Y4.1299
X4.2362Y5.8299
X3.8362Y5.8299
X3.5362Y4.4299
X6.1362Y4.4299
X8.3362Y4.4299
X1.3362Y5.9299
X2.4362Y5.9299
X8.9362Y3.6299
X1.7362Y1.8299
X5.7362Y2.3299
X0.6362Y2.3299
X3.8362Y2.2299
X7.2362Y2.5299
X7.1362Y2.4299
X6.0362Y2.4299
X2.0362Y2.4299
X7.1362Y2.0299
X3.0362Y2.0299
X7.5362Y5.9299
X3.2362Y2.5299
X8.2362Y2.4299
X8.1362Y1.9299
X2.0362Y5.6299
X8.3362Y0.7299
X0.7362Y5.6299
X4.6362Y2.5299
X5.0362Y2.5299
X7.2362Y0.6299
X1.1362Y4.7299
X1.0362Y0.8299
X0.2362Y2.8299
X3.7362Y5.8299
X1.9362Y2.0299
X4.8362Y1.0299
X1.6362Y5.2299
X3.5362Y0.6299
X0.2362Y3.2299
X3.0362Y2.4299
X6.2362Y0.8299
X8.3362Y0.6299
X2.5362Y4.0299
X2.6362Y2.6299
X1.7362Y3.2299
X6.7362Y3.1299
X2.7362Y3.1299
X3.4362Y3.3299
X5.7362Y3.3299
X3.3362Y3.7299
X5.4362Y3.7299
X2.7362Y3.8299
X4.1362Y3.8299
X8.5362Y3.9299
X3.1362Y4.3299
X2.6362Y4.5299
X4.2362Y4.5299
X6.2362Y4.5299
X7.6362Y4.7299
X2.8362Y4.8299
X6.5362Y4.8299
X0.8362Y5.4299
X2.1362Y5.4299
X8.7362Y5.4299
X0.6362Y5.7299
X5.0362Y5.7299
X8.4362Y2.9299
X6.8362Y3.0299
X2.8362Y3.2299
X0.6362Y3.2299
X7.9362Y3.1299
X3.8362Y3.1299
X1.6362Y3.1299
X0.5362Y3.1299
X3.6362Y3.2299
X5.6362Y3.2299
X7.7362Y3.2299
X2.3362Y3.3299
X2.5362Y3.8299
X0.6362Y4.1299
X2.8362Y5.6299
X1.1362Y4.2299
X7.9362Y4.0299
X6.8362Y4.0299
X0.5362Y5.6299
X4.4362Y5.0299
X4.4362Y1.6299
X4.8362Y2.3299
X4.8362Y1.8299
X4.8362Y0.9299
X7.6362Y4.6299
X2.1362Y5.2299
X3.6362Y5.2299
X3.4362Y5.9299
X8.5362Y1.7299
X0.9362Y1.8299
X7.8362Y2.3299
X6.0362Y5.6299
X4.8362Y3.2299
X3.8362Y2.3299
X2.7362Y2.3299
X6.0362Y2.5299
X2.0362Y2.5299
X0.8362Y2.5299
X8.1362Y2.4299
X7.3362Y0.8299
X0.8362Y0.7299
X8.2362Y0.6299
X4.1362Y5.8299
X2.6362Y1.9299
X4.4362Y4.0299
X4.8362Y5.9299
X5.5362Y2.2299
X1.9362Y0.7299
X4.4362Y3.5299
X5.0362Y1.6299
X2.1362Y5.8299
X1.4362Y1.9299
X2.3362Y4.4299
X3.4362Y4.4299
X5.4362Y4.4299
X8.4362Y4.6299
X0.5362Y4.5299
X1.8362Y4.7299
X8.2362Y5.9299
X4.2362Y5.9299
X8.9362Y5.6299
X1.3362Y2.4299
X3.5362Y2.3299
X1.2362Y2.3299
X3.6362Y1.8299
X0.6362Y1.0299
X1.5362Y1.1299
X7.7362Y1.8299
X0.6362Y1.1299
X3.8362Y1.0299
X6.4362Y4.1299
X5.9362Y4.6299
X0.2362Y3.1299
X5.3362Y1.2299
X0.8362Y1.3299
X4.1362Y0.1654
X1.4362Y0.6299
X1.4362Y5.8299
X3.2362Y4.1299
X4.0362Y1.1299
X8.1362Y1.1299
X2.7362Y1.2299
X8.3362Y1.2299
X0.8362Y1.4299
X1.5362Y1.7299
X4.3362Y0.2654
X2.0362Y1.4299
X2.7362Y1.4299
X3.0362Y1.5299
X1.5362Y5.8299
X6.4362Y3.9299
X7.0362Y1.1299
X8.4362Y1.2299
X5.9362Y1.4299
X0.8362Y1.5299
X5.7362Y3.9299
X0.7362Y1.5299
X8.1362Y1.4299
X7.4362Y3.3299
X7.2362Y4.9299
X1.3362Y5.0299
X7.3362Y3.3299
X7.8362Y3.3299
X8.3362Y4.8299
X8.7362Y5.1299
X8.6362Y5.3299
X0.5362Y5.3299
X2.1362Y5.3299
X5.6362Y5.3299
X6.9362Y5.3299
X7.4362Y5.3299
X0.4362Y3.4299
X0.6362Y2.9299
X2.5362Y2.9299
X6.9362Y3.4299
X1.4362Y4.4299
X5.5362Y5.3299
X1.9362Y3.4299
X3.6362Y3.4299
X5.8362Y3.4299
X2.2362Y3.7299
X5.0362Y2.9299
X6.9362Y3.5299
X8.1362Y3.5299
X7.4362Y2.2299
X4.1362Y3.5299
X6.3362Y2.2299
X8.6362Y5.2299
X2.2362Y2.2299
X5.0362Y3.4299
X3.7362Y2.4299
X2.3362Y0.6299
X6.6362Y2.0299
X5.4362Y2.0299
X3.6362Y2.0299
X2.2362Y4.4299
X5.3362Y4.4299
X6.7362Y4.4299
X8.3362Y4.6299
X2.8362Y5.2299
X8.5362Y5.8299
X4.1362Y5.9299
X8.9362Y0.8299
X2.3362Y1.8299
X8.5362Y2.3299
X3.4362Y2.3299
X6.2362Y2.2299
X6.7362Y2.5299
X1.5362Y2.4299
X6.5362Y2.0299
X8.7362Y1.9299
X7.3362Y1.9299
X5.5362Y1.7299
X2.7362Y0.7299
X5.6362Y0.6299
X3.3362Y1.9299
X8.4362Y1.8299
X6.1362Y1.8299
X2.4362Y1.0299
X1.2362Y1.0299
X5.2362Y1.0299
X1.8362Y1.1299
X3.1362Y1.1299
X5.4362Y1.1299
X3.4362Y1.2299
X1.5362Y1.3299
X5.3362Y1.3299
X6.1362Y1.3299
X6.5362Y1.4299
X2.1362Y1.7299
X3.9362Y3.9299
X7.1362Y5.0299
X8.3362Y5.0299
X2.8362Y4.1299
X5.0362Y5.1299
X5.7362Y5.1299
X2.6362Y0.7299
X2.3362Y4.9299
X7.2362Y1.8299
X3.7362Y1.4299
X8.3362Y1.7299
X7.8362Y4.8299
X1.2362Y5.0299
X3.1362Y5.0299
X8.0362Y0.8299
X0.5362Y0.8299
X1.7362Y1.1299
X2.0362Y1.1299
X5.9362Y1.1299
X7.6362Y1.1299
X4.0362Y1.3299
X0.6362Y1.4299
X5.4362Y1.7299
X4.3362Y0.1654
X3.7362Y4.1299
X6.3362Y4.1299
X5.8362Y1.9299
X6.1362Y3.9299
X2.1362Y5.1299
X5.9362Y5.0299
X1.0362Y5.2299
X8.6362Y5.7299
X3.8362Y2.9299
X1.0362Y3.7299
X0.8362Y2.9299
X5.4362Y3.6299
X7.4362Y2.0299
X2.6362Y2.1299
X7.5362Y3.5299
X5.1362Y2.1299
X3.8362Y5.3299
X0.6362Y3.4299
X5.6362Y4.3299
X7.2362Y2.8299
X6.1362Y2.8299
X7.7362Y2.9299
X8.1362Y3.6299
X2.7362Y2.8299
X6.4362Y3.4299
X5.3362Y2.7299
X2.5362Y3.4299
X6.5362Y3.4299
X0.4362Y3.6299
X1.8362Y3.6299
X3.6362Y2.7299
X4.2362Y2.7299
X5.7362Y4.2299
X1.9362Y4.6299
X7.5362Y2.6299
X0.5362Y2.7299
X1.1362Y2.7299
X2.8362Y2.7299
X1.5362Y3.0299
X1.8362Y4.8299
X3.2362Y5.5299
X8.1362Y5.6299
X0.9362Y5.7299
X8.3362Y5.7299
X0.7362Y3.0299
X5.2362Y3.0299
X3.5362Y3.2299
X6.3362Y3.1299
X6.3362Y3.2299
X1.0362Y3.8299
X8.3362Y3.7299
X3.4362Y3.2299
X2.8362Y3.7299
X3.9362Y3.8299
X7.1362Y4.7299
X8.2362Y4.7299
X0.8362Y4.8299
X0.4362Y5.4299
X7.2362Y5.4299
X3.1362Y5.5299
X7.2362Y5.6299
X0.9362Y2.6299
X1.2362Y3.2299
X8.5362Y3.1299
X7.4362Y3.1299
X2.2362Y3.1299
X6.2362Y3.2299
X2.9362Y3.3299
X0.6362Y3.3299
X2.7362Y2.5299
X8.7362Y3.8299
X2.1362Y4.0299
X5.1362Y4.0299
X8.0362Y4.1299
X5.4362Y4.1299
X0.2362Y2.3299
X4.4362Y5.6299
X4.8362Y5.3299
X4.8362Y1.9299
X4.6362Y1.9299
X7.7362Y5.8299
X3.2362Y5.8299
X4.8362Y1.4299
X4.6362Y5.8299
X7.0362Y5.9299
X5.9362Y5.9299
X0.5362Y1.8299
X7.4362Y2.3299
X8.4362Y2.2299
X7.8362Y2.5299
X5.6362Y2.5299
X0.4362Y2.5299
X7.7362Y2.4299
X3.9362Y1.6299
X0.4362Y0.7299
X5.0362Y1.9299
X1.0362Y1.9299
X4.2362Y1.8299
X8.5362Y1.0299
X3.3362Y1.0299
X2.4362Y1.1299
X3.5362Y1.1299
X0.7362Y1.2299
X4.1362Y1.2299
X2.5362Y1.3299
X8.7362Y1.2299
X6.9362Y1.3299
X7.6362Y1.3299
X2.5362Y1.5299
X7.5362Y1.4299
X6.3362Y1.5299
X6.5362Y1.6299
X0.9362Y1.7299
X1.1362Y0.6299
X2.0362Y0.6299
X2.7362Y5.1299
X2.9362Y5.1299
X3.7362Y4.9299
X1.4362Y3.9299
X6.5362Y3.8299
X7.4362Y4.0299
X6.3362Y4.0299
X6.5362Y5.6299
X8.5362Y5.5299
X4.4362Y4.6299
X4.8362Y3.4299
X5.5362Y5.8299
X2.8362Y4.7299
X1.7362Y4.7299
X2.9362Y5.9299
X0.4362Y1.8299
X2.2362Y2.3299
X5.0362Y2.2299
X3.8362Y2.5299
X2.6362Y2.5299
X7.6362Y2.4299
X6.8362Y0.8299
X0.4362Y0.8299
X1.4362Y0.7299
X7.7362Y0.6299
X7.3362Y1.0299
X0.4362Y1.2299
X2.3362Y1.2299
X3.4362Y1.4299
X5.5362Y1.4299
X6.0362Y1.6299
X6.4362Y1.6299
X0.8362Y1.7299
X7.6362Y1.7299
X6.1362Y4.1299
X2.3362Y3.9299
X7.3362Y3.0299
X7.9362Y5.0299
X3.6362Y5.1299
X7.5362Y3.4299
X3.3362Y4.9299
X6.7362Y4.9299
X0.9362Y5.0299
X4.0362Y5.0299
X8.1362Y5.2299
X1.5362Y5.3299
X1.7362Y5.3299
X2.9362Y5.3299
X3.6362Y5.3299
X2.4362Y5.0299
X5.0362Y5.2299
X5.4362Y5.2299
X0.8362Y5.3299
X8.3362Y3.3299
X1.9362Y3.7299
X1.7362Y2.9299
X3.3362Y4.7299
X3.0362Y2.9299
X5.9362Y3.5299
X8.4362Y3.4299
X0.6362Y3.6299
X7.9362Y3.6299
X7.1362Y4.5299
X1.8362Y3.5299
X6.9362Y4.2299
X7.8362Y3.5299
X8.5362Y2.1299
X7.3362Y4.2299
X6.3362Y3.5299
X5.8362Y2.6299
X6.4362Y2.6299
X8.7362Y2.0299
X6.8362Y2.7299
X5.5362Y2.8299
X6.7362Y2.7299
X4.1362Y2.8299
X7.2362Y4.2299
X5.0362Y4.3299
X5.2362Y3.4299
X5.8362Y4.3299
X6.1362Y4.3299
X1.2362Y2.8299
X5.4362Y4.5299
X6.6362Y0.7299
X6.0362Y4.8299
X3.7362Y5.7299
X5.7362Y5.7299
X1.9362Y1.6299
X0.8362Y1.6299
X3.2362Y2.6299
X2.3362Y3.2299
X3.3362Y3.1299
X8.4362Y3.0299
X7.2362Y3.2299
X3.9362Y3.7299
X7.2362Y3.7299
X5.4362Y3.8299
X1.7362Y4.2299
X0.6362Y4.2299
X8.5362Y4.0299
X5.3362Y5.6299
X5.8362Y4.7299
X1.5362Y5.4299
X2.0362Y5.7299
X6.8362Y5.7299
X8.0362Y1.5299
X2.1362Y2.6299
X1.0362Y3.1299
X5.0362Y3.2299
X6.6362Y4.4299
X7.3362Y5.5299
X4.6362Y1.5299
X4.8362Y3.7299
X4.8362Y2.8299
X6.9362Y5.8299
X2.3362Y5.8299
X4.6362Y4.6299
X4.6362Y4.2299
X2.1362Y4.4299
X5.2362Y4.4299
X8.2362Y4.6299
X0.6362Y4.7299
X4.6362Y2.6299
X1.8362Y5.9299
X4.0362Y5.9299
X8.9362Y0.7299
X8.4362Y2.3299
X3.3362Y2.3299
X6.6362Y2.5299
X6.4362Y2.0299
X6.0362Y2.2299
X7.1362Y3.2299
X4.6362Y0.8299
X0.2362Y4.0299
X7.9362Y0.8299
X7.5362Y3.8299
X2.8362Y4.2299
X3.3362Y5.6299
X1.4362Y5.6299
X4.4362Y5.4299
X4.4362Y2.9299
X6.5362Y5.8299
X7.6362Y4.4299
X0.8362Y4.7299
X2.6362Y5.2299
X8.9362Y1.7299
X0.2362Y1.2299
X8.6362Y1.7299
X2.1362Y1.8299
X6.1362Y2.3299
X5.0362Y2.3299
X6.4362Y2.4299
X5.3362Y2.4299
X6.3362Y2.0299
X1.2362Y2.0299
X5.6362Y0.8299
X2.6362Y0.8299
X1.5362Y0.8299
X7.6362Y0.7299
X2.5362Y0.7299
X6.5362Y0.7299
X2.4362Y0.7299
X6.5362Y0.6299
X2.8362Y0.6299
X1.4362Y5.5299
X7.1362Y1.8299
X2.2362Y1.0299
X5.8362Y1.1299
X7.5362Y1.1299
X3.9362Y1.3299
X0.5362Y1.4299
X3.6362Y1.4299
X5.3362Y1.7299
X8.2362Y1.7299
X4.8362Y0.3654
X3.6362Y3.9299
X2.0362Y1.9299
X5.9362Y1.8299
X2.9362Y1.8299
X6.1362Y1.0299
X7.1362Y1.2299
X8.5362Y1.4299
X6.7362Y1.5299
X3.0362Y1.7299
X7.0362Y4.8299
X5.8362Y5.1299
X7.7362Y4.8299
X6.4362Y1.7299
X4.9362Y0.2654
X3.5362Y4.1299
X3.5362Y3.9299
X1.2362Y5.1299
X7.6362Y5.1299
X7.0362Y5.1299
X2.1362Y4.9299
X7.6362Y4.9299
X6.4362Y4.9299
X0.4362Y5.0299
X5.8362Y5.0299
X2.4362Y3.4299
X4.0362Y3.4299
X6.3362Y3.4299
X0.4362Y4.4299
X7.4362Y4.3299
X7.1362Y2.8299
X3.6362Y2.9299
X7.0362Y2.9299
X1.6362Y3.6299
X5.3362Y3.6299
X8.7362Y3.6299
X7.4362Y2.6299
X1.0362Y2.7299
X1.7362Y2.7299
X2.7362Y2.7299
X4.1362Y2.7299
X8.4362Y4.2299
X7.7362Y4.9299
X5.4362Y2.9299
X8.4362Y2.7299
X0.8362Y4.6299
X0.7362Y4.8299
X5.7362Y5.0299
X6.3362Y5.3299
X1.3362Y3.4299
X0.7362Y4.4299
X6.8362Y3.6299
X6.5362Y2.9299
X6.9362Y2.9299
X2.7362Y3.6299
X5.2362Y2.1299
X6.0362Y2.1299
X2.8362Y4.6299
X7.0362Y4.7299
X8.1362Y4.7299
X5.9362Y5.3299
X3.7362Y2.8299
X3.2362Y4.8299
X7.1362Y5.4299
X2.6362Y3.8299
X3.0362Y5.5299
X5.7362Y5.5299
X0.5362Y5.7299
X8.5362Y5.7299
X3.4362Y1.6299
X0.8362Y2.6299
X3.3362Y3.2299
X1.1362Y3.2299
X8.4362Y3.1299
X7.3362Y3.1299
X8.2362Y3.2299
X2.8362Y3.3299
X0.5362Y3.3299
X8.1362Y3.7299
X3.2362Y4.2299
X6.4362Y3.8299
X1.9362Y4.0299
X7.8362Y4.1299
X8.4362Y5.5299
X7.2362Y5.5299
X4.8362Y3.3299
X7.2362Y4.0299
X5.4362Y5.8299
X0.8362Y5.5299
X7.1362Y1.5299
X1.6362Y2.6299
X2.1362Y3.0299
X8.2362Y3.0299
X6.1362Y3.0299
X3.2362Y3.0299
X7.2362Y3.1299
X2.0362Y3.1299
X6.0362Y3.2299
X1.6362Y3.3299
X0.4362Y3.3299
X3.7362Y3.3299
X5.9362Y3.7299
X0.8362Y3.8299
X8.0362Y3.7299
X1.2362Y3.9299
X3.0362Y4.0299
X6.1362Y4.0299
X2.2362Y5.6299
X0.2362Y3.7299
X4.4362Y4.4299
X4.1362Y3.6299
X7.4362Y3.6299
X8.2362Y2.0299
X2.0362Y2.1299
X0.9362Y2.1299
X5.7362Y2.1299
X6.4362Y2.1299
X2.2362Y2.7299
X6.9362Y2.7299
X3.2362Y4.5299
X7.7362Y4.5299
X3.5362Y4.6299
X3.8362Y4.7299
X1.3362Y4.8299
X7.2362Y4.8299
X1.9362Y5.4299
X0.9362Y5.8299
X3.7362Y5.5299
X2.5362Y5.5299
X1.5362Y5.7299
X6.3362Y5.7299
X3.3362Y1.6299
X1.1362Y2.6299
X7.8362Y3.0299
X3.9362Y3.0299
X7.0362Y3.2299
X8.4362Y3.2299
X6.6362Y3.7299
X3.1362Y3.8299
X1.9362Y3.9299
X7.0362Y3.8299
X7.9362Y3.9299
X3.7362Y4.0299
X1.0362Y5.6299
X4.4362Y0.8299
X0.2362Y4.6299
X4.8362Y5.8299
X6.0362Y5.8299
X4.6362Y3.5299
X2.2362Y4.7299
X1.9362Y5.2299
X8.0362Y5.8299
X4.6362Y2.3299
X0.2362Y1.8299
X0.2362Y0.7299
X1.6362Y2.3299
X7.8362Y2.2299
X6.7362Y2.2299
X2.6362Y2.2299
X4.1362Y2.4299
X7.0362Y2.0299
X5.8362Y2.0299
X0.7362Y2.0299
X7.1362Y0.7299
X3.1362Y0.7299
X6.0362Y0.6299
X1.5362Y1.9299
X0.4362Y1.9299
X6.5362Y1.8299
X5.4362Y1.8299
X5.6362Y1.0299
X3.0362Y1.1299
X3.4362Y1.1299
X5.7362Y1.3299
X7.9362Y1.3299
X4.2362Y1.4299
X6.9362Y1.4299
X5.7362Y1.5299
X5.5362Y1.6299
X8.1362Y1.6299
X3.6362Y1.7299
X5.9362Y1.7299
X4.2362Y4.6299
X6.6362Y4.6299
X7.4362Y5.0299
X3.4362Y4.1299
X6.0362Y4.9299
X4.2362Y4.9299
X5.2362Y5.0299
X4.1362Y5.2299
X1.5362Y4.4299
X6.3362Y3.6299
X2.1362Y3.7299
X3.5362Y2.9299
X6.0362Y2.9299
X7.3362Y2.9299
X8.0362Y3.5299
X2.2362Y3.6299
X7.7362Y3.6299
X0.7362Y2.1299
X3.0362Y2.1299
X3.3362Y2.8299
X6.0362Y2.8299
X3.9362Y4.2299
X1.1362Y3.7299
X7.9362Y2.1299
X5.1362Y2.6299
X6.9362Y2.6299
X8.2362Y2.6299
X0.6362Y2.8299
X2.0362Y2.8299
X1.0362Y4.3299
X2.0362Y4.5299
X5.8362Y4.5299
X7.6362Y4.5299
X5.0362Y4.7299
X6.5362Y4.7299
X8.6362Y4.7299
X2.6362Y4.8299
X3.8362Y4.8299
X5.0362Y5.4299
X0.4362Y5.5299
X0.8362Y5.8299
X3.1362Y5.7299
X8.1362Y5.7299
X2.4362Y1.6299
X7.4362Y1.5299
X3.7362Y3.2299
X5.0362Y3.3299
X7.7362Y3.7299
X1.4362Y4.0299
X5.0362Y4.0299
X2.2362Y4.2299
X7.3362Y4.1299
X4.0362Y4.1299
X4.4362Y1.9299
X4.4362Y2.3299
X4.6362Y5.1299
X4.6362Y3.4299
X2.7362Y4.4299
X3.9362Y4.4299
X7.1362Y4.4299
X0.8362Y4.5299
X0.5362Y5.9299
X5.2362Y5.9299
X8.9362Y1.2299
X8.9362Y2.3299
X8.9362Y5.9299
X0.5362Y2.4299
X6.7362Y2.3299
X7.7362Y2.2299
X6.9362Y2.0299
X3.9362Y2.0299
X8.4362Y0.8299
X3.0362Y0.7299
X3.6362Y1.9299
X2.7362Y1.0299
X2.5362Y1.1299
X2.9362Y1.1299
X1.7362Y1.2299
X1.8362Y1.3299
X3.3362Y1.3299
X6.4362Y1.3299
X4.1362Y1.4299
X5.7362Y3.4299
X7.6362Y1.8299
X1.6362Y1.0299
X7.8362Y1.0299
X6.7362Y1.0299
X3.7362Y1.0299
X6.2362Y1.1299
X1.1362Y1.2299
X6.6362Y1.2299
X0.7362Y1.3299
X6.6362Y1.3299
X2.9362Y1.5299
X1.8362Y1.5299
X4.0362Y1.5299
X1.3362Y0.6299
X6.5362Y4.1299
X6.8362Y4.6299
X2.1362Y4.1299
X6.5362Y5.1299
X1.7362Y4.1299
X8.2362Y4.8299
X1.6362Y4.9299
X2.7362Y4.9299
X7.1362Y4.9299
X8.3362Y4.9299
X3.7362Y5.3299
X7.9362Y3.4299
X8.3362Y2.8299
X4.0362Y3.5299
X7.1362Y3.5299
X1.2362Y3.6299
X3.5362Y3.6299
X7.0362Y2.1299
X3.8362Y2.6299
X5.3362Y2.6299
X6.2362Y2.6299
X3.2362Y2.7299
X7.7362Y4.2299
X5.7362Y4.5299
X6.3362Y4.7299
X6.4362Y4.7299
X7.5362Y4.7299
X6.4362Y4.8299
X1.4362Y5.4299
X2.5362Y5.7299
X2.6362Y5.7299
X7.3362Y5.7299
X2.3362Y1.6299
X8.3362Y2.9299
X2.7362Y3.2299
X0.5362Y3.2299
X3.7362Y3.1299
X1.5362Y3.1299
X0.4362Y3.1299
X5.5362Y3.2299
X7.6362Y3.2299
X2.2362Y3.3299
X7.6362Y3.7299
X2.4362Y3.8299
X5.8362Y3.8299
X1.3362Y4.0299
X0.5362Y4.1299
X5.9362Y5.6299
X4.4362Y1.5299
X4.4362Y0.7299
X4.4362Y1.8299
X4.4362Y3.4299
X4.4362Y3.9299
X4.0362Y5.8299
X4.8362Y5.2299
X2.0362Y5.8299
X7.7362Y1.6299
X7.0362Y1.7299
X5.8362Y1.7299
X0.6362Y0.6299
X6.5362Y4.6299
X6.4362Y1.9299
X8.6362Y5.0299
X5.3362Y1.9299
X6.3362Y5.0299
X7.0362Y5.2299
X7.5362Y5.2299
X3.2362Y5.3299
X4.2362Y5.3299
X7.7362Y5.3299
X0.9362Y3.4299
X3.1362Y3.5299
X2.4362Y2.9299
X5.8362Y3.6299
X5.6362Y2.7299
X5.4362Y4.2299
X1.0362Y3.6299
X2.1362Y3.6299
X0.6362Y2.1299
X2.9362Y2.1299
X6.7362Y2.6299
X7.9362Y2.7299
X4.1362Y4.5299
X6.7362Y4.5299
X7.0362Y4.4299
X5.9362Y4.4299
X8.1362Y4.4299
X2.2362Y5.9299
X8.9362Y4.5299
X0.2362Y1.7299
X6.6362Y2.3299
X5.5362Y2.3299
X0.4362Y2.3299
X7.0362Y2.5299
X6.9362Y2.4299
X5.8362Y2.4299
X1.8362Y2.4299
X1.7362Y2.0299
X3.1362Y0.8299
X0.8362Y0.8299
X8.1362Y0.7299
X7.0362Y0.6299
X3.4362Y1.8299
X0.4362Y1.0299
X1.3362Y1.1299
X7.9362Y1.1299
X5.0362Y1.3299
X5.7362Y1.4299
X7.9362Y1.4299
X6.8362Y1.6299
X8.5362Y1.6299
X4.1362Y0.2654
X4.6362Y0.1654
X5.5362Y3.9299
X2.9362Y3.9299
X6.1362Y1.9299
X6.2362Y3.9299
X8.6362Y4.8299
X5.1362Y5.0299
X6.9362Y5.2299
X4.1362Y5.3299
X6.8362Y5.3299
X7.2362Y5.3299
X2.8362Y3.4299
X1.1362Y3.5299
X6.4362Y2.8299
X2.3362Y2.9299
X7.2362Y3.6299
X2.5362Y3.7299
X7.6362Y2.0299
X8.0362Y2.0299
X3.4362Y2.1299
X1.4362Y2.7299
X8.7362Y4.5299
X7.8362Y2.7299
X6.0362Y4.2299
X3.0362Y4.5299
X3.7362Y4.7299
X3.3362Y4.6299
X2.3362Y4.6299
X7.4362Y4.7299
X8.5362Y4.7299
X1.0362Y3.3299
X6.2362Y5.5299
X7.5362Y5.6299
X0.4362Y5.7299
X7.5362Y5.7299
X5.6362Y3.0299
X5.6362Y3.1299
X1.4362Y3.8299
X8.7362Y3.7299
X1.8362Y3.0299
X0.7362Y3.9299
X1.8362Y5.4299
X4.1362Y5.4299
X1.6362Y3.2299
X6.6362Y3.1299
X5.3362Y3.7299
X8.6362Y3.7299
X3.6362Y3.8299
X5.3362Y4.8299
X1.0362Y5.5299
X8.4362Y5.6299
X2.7362Y5.7299
X5.8362Y3.3299
X2.6362Y3.1299
X3.3362Y3.3299
X3.2362Y3.7299
X8.0362Y3.8299
X1.2362Y1.6299
X8.5362Y1.5299
X0.9362Y3.0299
X6.7362Y3.0299
X7.8362Y3.1299
X8.4362Y3.9299
X8.4362Y4.1299
X5.8362Y4.1299
X5.6362Y4.0299
X3.9362Y5.6299
X1.9362Y5.6299
X8.4362Y1.5299
X2.3362Y5.5299
X6.6362Y3.0299
X3.7362Y3.0299
X7.7362Y3.1299
X6.6362Y4.0299
X2.7362Y5.6299
X1.7362Y3.9299
X2.4362Y4.0299
X1.1362Y4.8299
X4.0362Y4.0299
X1.5362Y5.5299
X8.3362Y4.1299
X7.8362Y4.0299
X5.2362Y3.7299
X0.8362Y5.6299
X0.2362Y2.6299
X1.3362Y5.7299
X5.2362Y5.7299
X7.6362Y3.0299
X3.1362Y3.7299
X2.3362Y3.8299
X2.9362Y3.8299
X6.8362Y3.8299
X0.2362Y2.7299
X6.4362Y3.7299
X3.5362Y4.0299
X0.4362Y5.6299
X7.4362Y5.9299
X7.7362Y5.5299
X3.6362Y1.6299
X4.8362Y2.2299
X5.8362Y5.8299
X4.8362Y0.8299
X1.5362Y5.2299
X3.2362Y4.7299
X3.1362Y4.7299
X2.0362Y4.7299
X1.0362Y4.7299
X8.9362Y3.4299
X3.3362Y5.9299
X0.2362Y4.4299
X3.6362Y5.8299
X1.6362Y5.8299
X4.8362Y1.7299
X1.1362Y5.9299
X7.5362Y4.6299
X3.0362Y5.2299
X3.5362Y5.2299
X7.4362Y4.6299
X6.3362Y5.2299
X6.3362Y5.9299
X3.1362Y5.2299
X6.2362Y5.9299
X4.6362Y2.1299
X0.9362Y2.2299
X1.5362Y1.8299
X3.6362Y2.2299
X8.2362Y2.5299
X4.2362Y2.5299
X3.1362Y2.5299
X2.9362Y2.4299
X6.1362Y0.8299
X2.0362Y0.8299
X5.9362Y0.7299
X4.6362Y0.6299
X3.3362Y0.6299
X2.5362Y1.9299
X0.5362Y1.1299
X3.9362Y1.1299
X6.8362Y1.1299
X2.6362Y1.2299
X0.7362Y0.7299
X8.4362Y1.7299
X0.8362Y2.2299
X0.8362Y1.8299
X7.7362Y2.3299
X3.7362Y2.3299
X2.6362Y2.3299
X5.4362Y2.2299
X5.9362Y2.5299
X3.0362Y2.5299
X0.7362Y2.5299
X8.0362Y2.4299
X2.8362Y2.0299
X7.9362Y1.9299
X4.2362Y1.6299
X8.1362Y0.6299
X1.4362Y1.0299
X7.7362Y1.0299
X1.8362Y2.5299
X5.6362Y2.0299
X6.9362Y0.7299
X5.8362Y0.6299
X8.6362Y1.8299
X3.2362Y1.0299
X0.4362Y1.1299
X6.6362Y1.0299
X3.9362Y2.4299
X2.7362Y2.0299
X7.8362Y1.9299
X1.8362Y0.7299
X0.7362Y2.2299
X1.4362Y2.3299
X0.5362Y2.0299
X7.1362Y0.8299
X5.4362Y1.0299
X3.6362Y1.0299
X2.4362Y2.2299
X1.3362Y1.9299
X5.4362Y1.6299
X1.0362Y1.2299
X0.6362Y1.3299
X3.3362Y1.1299
X5.1362Y1.2299
X5.2362Y1.2299
X8.2362Y1.2299
X5.5362Y1.3299
X1.9362Y1.4299
X1.2362Y1.4299
X2.6362Y1.4299
X3.6362Y1.2299
X6.5362Y1.3299
X7.2362Y1.3299
X3.9362Y1.5299
X7.7362Y1.3299
X6.0362Y1.4299
X6.5362Y1.2299
X2.8362Y1.5299
X1.7362Y1.5299
X0.6362Y1.5299
X3.8362Y1.1299
X6.7362Y1.4299
X3.8362Y1.5299
X5.5362Y1.5299
X6.3362Y4.8299
X8.7362Y1.8299
X6.4362Y1.8299
X5.3362Y1.8299
X1.5362Y1.0299
X5.5362Y1.0299
X5.6362Y1.3299
X7.8362Y1.3299
X6.8362Y1.4299
X5.6362Y1.5299
X3.5362Y1.7299
X4.1362Y4.6299
X3.2362Y5.1299
X5.7362Y1.9299
X2.6362Y4.9299
X5.9362Y4.9299
X4.1362Y4.9299
X8.2362Y4.9299
X3.4362Y5.0299
X0.4362Y3.5299
X3.6362Y3.5299
X7.8362Y2.8299
X3.4362Y2.9299
X5.9362Y2.9299
X6.6362Y3.5299
X8.3362Y3.5299
X1.3362Y3.7299
X0.5362Y2.1299
X1.3362Y1.7299
X2.4362Y1.7299
X4.2362Y0.3654
X5.0362Y0.3654
X8.5362Y5.2299
X5.4362Y5.3299
X5.8362Y5.3299
X7.2362Y3.3299
X1.8362Y3.4299
X3.5362Y3.4299
X4.1362Y3.4299
X6.8362Y3.4299
X7.4362Y2.8299
X6.8362Y3.5299
X1.8362Y2.1299
X7.8362Y2.1299
X5.6362Y2.6299
X6.8362Y2.6299
X8.1362Y2.6299
X2.0362Y2.7299
X6.6362Y2.7299
X0.5362Y2.8299
X1.9362Y2.8299
X2.3362Y4.3299
X3.7362Y4.3299
X1.9362Y4.5299
X7.5362Y4.5299
X4.1362Y4.7299
X3.7362Y4.8299
X2.4362Y5.4299
X1.7362Y5.5299
X3.5362Y5.5299
X3.0362Y5.7299
X5.4362Y5.7299
X6.1362Y5.7299
X7.3362Y1.5299
X2.6362Y3.0299
X4.2362Y3.3299
X5.0362Y3.7299
X7.1362Y3.9299
X7.7362Y3.9299
X2.1362Y4.2299
X1.0362Y4.2299
X7.2362Y4.1299
X3.9362Y4.1299
X4.6362Y1.1299
X4.4362Y2.2299
X4.8362Y3.8299
X4.6362Y5.0299
X4.6362Y3.3299
X2.5362Y4.4299
X2.6362Y4.4299
X5.6362Y4.4299
X3.8362Y4.4299
X8.6362Y4.6299
X0.7362Y4.5299
X5.1362Y5.9299
X8.9362Y1.1299
X8.9362Y2.2299
X8.9362Y5.8299
X2.6362Y1.8299
X0.4362Y2.4299
X7.6362Y2.2299
X6.5362Y2.2299
X6.8362Y2.0299
X3.8362Y2.0299
X8.3362Y0.8299
X2.9362Y0.7299
X3.5362Y1.9299
X7.5362Y1.8299
X6.3362Y1.8299
X5.2362Y1.8299
X2.6362Y1.0299
X2.8362Y1.1299
X1.6362Y1.2299
X1.7362Y1.3299
X3.2362Y1.3299
X6.3362Y1.3299
X4.0362Y1.4299
X2.3362Y1.7299
X6.9362Y1.7299
X5.7362Y1.7299
X0.5362Y0.6299
X6.4362Y4.6299
X6.3362Y1.9299
X8.5362Y5.0299
X8.1362Y4.8299
X2.5362Y4.9299
X6.2362Y5.0299
X5.6362Y5.2299
X7.6362Y5.3299
X0.8362Y3.4299
X6.8362Y2.9299
X2.0362Y3.6299
X5.7362Y3.6299
X8.4362Y3.6299
X8.0362Y5.7299
X3.3362Y2.6299
X7.4362Y2.7299
X1.6362Y2.8299
X3.2362Y2.8299
X3.8362Y4.2299
X4.0362Y4.5299
X2.2362Y4.6299
X4.2362Y4.8299
X1.3362Y5.4299
X6.5362Y5.4299
X6.1362Y5.5299
X7.8362Y5.6299
X7.4362Y5.7299
X5.5362Y3.0299
X5.5362Y3.1299
X5.4362Y3.2299
X1.3362Y3.8299
X3.5362Y3.8299
X0.6362Y3.9299
X7.9362Y3.8299
X5.7362Y4.1299
X5.5362Y4.0299
X3.8362Y5.6299
X1.8362Y5.6299
X4.6362Y1.2299
X0.2362Y5.9299
X4.4362Y3.3299
X4.4362Y3.8299
X3.5362Y5.8299
X1.4362Y5.2299
X0.9362Y4.7299
X1.0362Y5.9299
X7.3362Y5.9299
X2.1362Y5.9299
X8.9362Y4.4299
X8.9362Y3.3299
X0.2362Y1.6299
X3.5362Y2.2299
X8.1362Y2.5299
X4.1362Y2.5299
X2.8362Y2.4299
X6.0362Y0.8299
X1.9362Y0.8299
X8.0362Y0.7299
X5.8362Y0.7299
X6.9362Y0.6299
X4.4362Y0.6299
X3.2362Y0.6299
X2.4362Y1.9299
X1.2362Y1.1299
X6.7362Y1.1299
X2.5362Y1.2299
X8.1362Y1.2299
X1.8362Y1.4299
X2.5362Y1.4299
X0.5362Y1.5299
X1.2362Y1.7299
X4.0362Y0.2654
X4.1362Y0.3654
X5.4362Y3.9299
X7.3362Y5.1299
X5.0362Y5.0299
X5.2362Y5.2299
X6.8362Y5.2299
X8.4362Y5.2299
X7.1362Y3.3299
X1.7362Y3.4299
X3.4362Y3.4299
X7.0362Y3.6299
X8.2362Y2.8299
X0.4362Y2.9299
X5.5362Y3.5299
X1.7362Y3.7299
X3.1362Y3.6299
X2.3362Y4.0299
X4.0362Y3.6299
X0.8362Y3.7299
X1.7362Y2.1299
X6.2362Y2.1299
X7.7362Y2.1299
X4.1362Y2.6299
X5.5362Y2.6299
X8.0362Y2.6299
X1.9362Y2.7299
X0.4362Y2.8299
X1.8362Y2.8299
X2.2362Y4.3299
X3.6362Y4.3299
X7.4362Y4.5299
X3.6362Y4.7299
X3.6362Y4.8299
X4.4362Y4.9299
X7.5362Y2.0299
X2.8362Y2.1299
X6.6362Y2.6299
X5.5362Y2.7299
X6.6362Y4.5299
X5.2362Y4.8299
X1.7362Y5.4299
X3.3362Y5.4299
X6.1362Y5.4299
X8.3362Y5.6299
X1.1362Y1.6299
X3.1362Y1.6299
X1.7362Y3.0299
X1.5362Y3.2299
X6.5362Y3.1299
X2.5362Y3.1299
X3.2362Y3.3299
X0.9362Y3.3299
X1.2362Y3.8299
X8.5362Y3.7299
X0.5362Y3.9299
X0.5362Y4.0299
X8.2362Y4.1299
X7.7362Y4.0299
X2.6362Y5.6299
X0.2362Y2.5299
X4.8362Y4.4299
X4.8362Y4.2299
X4.8362Y2.1299
X4.8362Y5.1299
X4.8362Y1.6299
X4.8362Y0.7299
X7.2362Y5.9299
X6.1362Y5.9299
X3.2362Y5.9299
X0.7362Y1.8299
X7.6362Y2.3299
X3.6362Y2.3299
X2.5362Y2.3299
X5.3362Y2.2299
X5.8362Y2.5299
X2.9362Y2.5299
X0.6362Y2.5299
X7.9362Y2.4299
X4.1362Y1.6299
X1.7362Y0.7299
X0.6362Y0.7299
X8.0362Y0.6299
X5.2362Y1.9299
X8.7362Y1.0299
X7.6362Y1.0299
X3.5362Y1.0299
X3.7362Y1.1299
X0.6362Y1.2299
X0.9362Y1.2299
X5.0362Y1.2299
X6.4362Y1.2299
X7.9362Y1.2299
X0.5362Y1.3299
X6.8362Y1.3299
X7.1362Y1.3299
X2.7362Y1.5299
X1.6362Y1.5299
X1.1362Y1.7299
X3.7362Y4.6299
X2.0362Y4.1299
X5.3362Y5.1299
X6.3362Y5.1299
X2.2362Y5.1299
X1.8362Y5.1299
X6.9362Y4.9299
X0.8362Y5.2299
X1.9362Y5.3299
X8.6362Y3.3299
X7.7362Y3.4299
X6.6362Y3.4299
X5.5362Y3.4299
X2.1362Y3.5299
X2.2362Y3.5299
X7.1362Y3.6299
X6.4362Y4.3299
X8.3362Y4.3299
X8.2362Y4.3299
X8.1362Y4.3299
X1.8362Y2.9299
X3.8362Y3.5299
X0.6362Y3.7299
X6.0362Y2.6299
X0.7362Y2.7299
X3.0362Y2.7299
X1.7362Y2.8299
X7.5362Y4.2299
X1.7362Y4.5299
X6.0362Y4.5299
X1.2362Y4.6299
X6.2362Y4.8299
X2.3362Y5.4299
X3.4362Y5.5299
X2.2362Y5.5299
X2.1362Y5.5299
X2.3362Y5.7299
X3.9362Y5.7299
X5.9362Y5.7299
X3.0362Y1.6299
X2.1362Y1.6299
X8.6362Y2.5299
X2.5362Y3.0299
X6.1362Y4.7299
X1.1362Y5.7299
X2.9362Y5.7299
X8.1362Y2.9299
X1.5185Y0.4087
X1.2362Y0.6299
X6.7362Y4.6299
X6.4362Y5.1299
X1.6362Y5.1299
X1.6362Y4.1299
X1.5362Y4.9299
X7.0362Y4.9299
X2.8362Y5.0299
X8.0362Y5.2299
X2.0362Y5.3299
X8.7362Y3.3299
X7.8362Y3.4299
X6.7362Y3.4299
X5.6362Y3.4299
X2.3362Y3.5299
X4.2362Y2.9299
X3.9362Y3.5299
X7.0362Y3.5299
X3.4362Y3.6299
X7.7362Y2.0299
X6.9362Y2.1299
X3.7362Y2.6299
X6.1362Y2.6299
X3.1362Y2.7299
X6.5362Y2.7299
X3.6362Y2.8299
X7.6362Y4.2299
X1.8362Y4.5299
X5.6362Y4.5299
X6.1362Y4.5299
X6.2362Y4.7299
X2.0362Y5.4299
X8.1362Y5.4299
X1.2362Y5.5299
X2.4362Y5.7299
X4.0362Y5.7299
X7.2362Y5.7299
X6.0362Y5.7299
X2.2362Y1.6299
X8.7362Y2.5299
X8.2362Y2.9299
X2.6362Y3.2299
X0.4362Y3.2299
X3.6362Y3.1299
X1.4362Y3.1299
X8.7362Y3.0299
X7.5362Y3.2299
X2.1362Y3.3299
X7.5362Y3.7299
X5.7362Y3.8299
X1.2362Y4.0299
X0.9362Y4.2299
X0.4362Y4.1299
X5.6362Y5.6299
X5.8362Y5.6299
X4.8362Y4.3299
X4.8362Y3.1299
X7.2362Y5.8299
X1.9362Y5.8299
X4.6362Y4.5299
X6.9362Y4.4299
X5.8362Y4.4299
X8.0362Y4.4299
X8.7362Y5.8299
X8.0362Y1.6299
X3.4362Y1.7299
X7.9362Y1.7299
X7.3362Y5.0299
X8.0362Y5.1299
X5.6362Y1.9299
X1.4362Y4.9299
X5.8362Y4.9299
X4.0362Y4.9299
X8.1362Y4.9299
X1.0362Y5.0299
X2.7362Y5.0299
X3.3362Y5.0299
X8.1362Y3.4299
X8.7362Y3.4299
X3.3362Y2.9299
X4.0362Y2.9299
X7.9362Y2.9299
X3.3362Y3.6299
X2.4362Y3.7299
X0.4362Y2.1299
X4.1362Y2.1299
X0.4362Y2.2299
X3.3362Y2.7299
X6.1362Y2.7299
X1.5362Y2.8299
X2.9362Y2.8299
X3.1362Y2.8299
X5.6362Y2.8299
X3.7362Y4.2299
X1.5362Y4.3299
X3.0362Y4.3299
X3.9362Y4.5299
X5.5362Y4.5299
X2.1362Y4.6299
X2.0362Y4.8299
X4.1362Y4.8299
X0.6362Y5.8299
X1.2362Y5.4299
X0.7362Y5.7299
X7.1362Y5.7299
X5.4362Y3.0299
X5.4362Y3.1299
X1.3362Y3.1299
X6.5362Y3.2299
X5.3362Y3.2299
X7.8362Y3.8299
X5.6362Y4.1299
X5.4362Y4.0299
X3.7362Y5.6299
X3.6362Y5.6299
X3.4362Y5.8299
X2.5362Y1.8299
X1.7362Y5.6299
X4.4362Y3.7299
X1.8362Y5.8299
X7.9362Y4.4299
X2.0362Y5.9299
X8.5362Y5.9299
X8.9362Y3.2299
X1.5362Y2.2299
X8.7362Y2.3299
X8.7362Y2.2299
X0.2362Y1.5299
X5.4362Y2.3299
X4.4362Y3.2299
X6.5362Y2.3299
X0.2362Y5.8299
X4.8362Y4.5299
X0.9362Y5.9299
X8.6362Y5.9299
X8.9362Y4.3299
X8.6362Y2.2299
X3.4362Y2.2299
X6.9362Y2.5299
X6.8362Y2.4299
X5.7362Y2.4299
X1.7362Y2.4299
X1.6362Y2.0299
X3.0362Y0.8299
X0.7362Y0.8299
X7.4362Y1.8299
X3.3362Y1.8299
X6.5362Y1.0299
X6.1362Y1.1299
X2.7362Y2.4299
X5.9362Y0.8299
X1.8362Y0.8299
X7.9362Y0.7299
X5.7362Y0.7299
X3.1362Y0.6299
X5.1362Y1.8299
X7.8362Y1.1299
X8.4362Y1.6299
X8.0362Y2.5299
X6.8362Y0.6299
X2.3362Y1.9299
X4.2362Y1.3299
X1.7362Y1.4299
X2.4362Y1.4299
X5.6362Y1.4299
X0.4362Y1.5299
X6.7362Y1.6299
X1.1362Y1.1299
X7.8362Y1.4299
X6.6362Y1.1299
X7.7362Y1.4299
X6.8362Y1.7299
X6.4362Y1.0299
X8.0362Y1.2299
X6.7362Y1.7299
X0.4185Y0.4087
X0.4185Y0.3087
X0.4185Y0.2087
X0.5185Y0.4087
X0.5185Y0.3087
X0.5185Y0.2087
X0.6185Y0.4087
X0.6185Y0.3087
X0.6185Y0.2087
X0.7185Y0.4087
X0.7185Y0.3087
X0.7185Y0.2087
X0.8185Y0.4087
X0.8185Y0.3087
X0.8185Y0.2087
X0.9185Y0.4087
X0.9185Y0.3087
X0.9185Y0.2087
X1.0185Y0.4087
X1.0185Y0.3087
X1.0185Y0.2087
X1.1185Y0.4087
X1.1185Y0.3087
X1.1185Y0.2087
X1.2185Y0.4087
X1.2185Y0.3087
X1.2185Y0.2087
X1.3185Y0.4087
X1.3185Y0.3087
X1.3185Y0.2087
X1.4185Y0.4087
X4.1362Y3.3299
X4.2362Y3.7299
X2.2362Y3.8299
X3.8362Y3.8299
X3.4362Y4.0299
X2.0362Y4.2299
X7.1362Y4.1299
X7.6362Y5.5299
X4.0362Y5.2299
X4.8362Y3.6299
X4.6362Y4.9299
X4.6362Y3.2299
X2.4362Y4.4299
X3.6362Y4.4299
X5.5362Y4.4299
X3.7362Y4.4299
X8.5362Y4.6299
X0.6362Y4.5299
X1.9362Y4.7299
X3.4362Y5.2299
X5.0362Y5.9299
X8.9362Y1.0299
X8.9362Y2.1299
X8.9362Y5.7299
X1.4362Y2.4299
X7.5362Y2.2299
X6.4362Y2.2299
X2.3362Y2.2299
X3.8362Y2.4299
X6.7362Y2.0299
X5.5362Y2.0299
X3.7362Y2.0299
X8.2362Y0.8299
X2.8362Y0.7299
X5.7362Y0.6299
X3.4362Y1.9299
X1.2362Y1.9299
X6.2362Y1.8299
X2.5362Y1.0299
X1.3362Y1.0299
X1.9362Y1.1299
X2.7362Y1.1299
X3.2362Y1.1299
X1.6362Y1.3299
X6.2362Y1.3299
X3.9362Y1.4299
X5.3362Y1.6299
X2.2362Y1.7299
X5.6362Y1.7299
X4.0362Y3.9299
X6.2362Y1.9299
X8.4362Y5.0299
X4.2362Y5.2299
X4.1362Y5.1299
X7.5362Y5.1299
X0.7362Y5.1299
X6.1362Y5.1299
X3.3362Y5.1299
X8.0362Y4.8299
X2.4362Y4.9299
X3.2362Y5.0299
X0.7362Y3.4299
X5.5362Y4.3299
X7.8362Y2.9299
X7.6362Y3.5299
X0.5362Y3.6299
X0.9362Y3.6299
X1.9362Y3.6299
X2.7362Y2.1299
X7.7362Y2.6299
X5.4362Y2.7299
X1.6362Y4.3299
X3.2362Y5.4299
X1.3362Y5.5299
X8.2362Y5.6299
X4.2362Y5.7299
X1.0362Y1.6299
X0.8362Y3.0299
X1.6362Y3.0299
X8.7362Y3.1299
X6.4362Y3.1299
X5.3362Y3.1299
X6.4362Y3.2299
X6.7362Y3.2299
X3.1362Y3.3299
X0.8362Y3.3299
X4.6362Y4.8299
X1.4185Y0.3087
X1.4185Y0.2087
X1.5185Y0.3087
X1.5185Y0.2087
X1.6185Y0.4087
X1.6185Y0.3087
X1.6185Y0.2087
X1.7185Y0.4087
X1.7185Y0.3087
X2.5362Y3.2299
X3.5362Y3.1299
X8.6362Y3.0299
X7.4362Y3.2299
X4.1362Y3.7299
X7.4362Y3.7299
X3.7362Y3.8299
X5.6362Y3.8299
X1.1362Y4.0299
X3.1362Y4.2299
X0.8362Y4.2299
X8.7362Y4.0299
X5.5362Y5.6299
X7.5362Y5.5299
X5.7362Y5.6299
X4.6362Y1.0299
X4.8362Y3.0299
X7.1362Y5.8299
X4.6362Y4.4299
X6.8362Y4.4299
X5.7362Y4.4299
X8.6362Y5.8299
X8.9362Y2.0299
X8.9362Y0.9299
X2.4362Y1.8299
X8.6362Y2.3299
X6.4362Y2.3299
X5.3362Y2.3299
X6.8362Y2.5299
X6.7362Y2.4299
X5.6362Y2.4299
X1.6362Y2.4299
X1.5362Y2.0299
X7.4362Y1.9299
X1.4362Y1.8299
X8.1362Y0.8299
X2.9362Y0.8299
X0.6362Y0.8299
X7.3362Y1.8299
X3.2362Y1.8299
X6.0362Y1.1299
X7.7362Y1.1299
X4.1362Y1.3299
X3.8362Y1.4299
X3.7362Y1.5299
X7.0362Y1.5299
X6.6362Y1.6299
X8.3362Y1.6299
X3.3362Y1.7299
X4.9362Y0.3654
X4.4362Y0.1654
X3.8362Y4.1299
X5.4362Y4.6299
X5.9362Y1.9299
X7.9362Y5.1299
X1.3362Y4.1299
X7.9362Y4.8299
X0.7362Y4.9299
X8.0362Y4.9299
X6.0362Y5.0299
X3.9362Y5.3299
X6.6362Y5.3299
X2.6362Y3.4299
X7.6362Y4.3299
X7.3362Y2.8299
X6.2362Y2.8299
X8.4362Y3.7299
X3.7362Y2.9299
X5.5362Y3.6299
X6.2362Y3.6299
X7.8362Y2.0299
X7.6362Y2.6299
X1.2362Y2.7299
X2.9362Y2.7299
X3.4362Y2.7299
X5.0362Y2.7299
X7.6362Y2.7299
X5.7362Y2.8299
X5.3362Y4.2299
X5.8362Y4.2299
X7.2362Y4.7299
X8.3362Y4.7299
X0.9362Y4.8299
X7.3362Y5.4299
X1.2362Y5.7299
X8.2362Y1.5299
X1.1362Y3.8299
X1.9362Y2.6299
X2.3362Y3.1299
X4.0362Y3.8299
X8.6362Y3.1299
X1.5362Y3.9299
X6.6362Y3.8299
X3.3362Y4.2299
X2.2362Y4.0299
X7.4362Y3.0299
X1.3362Y3.2299
X3.0362Y3.3299
X2.9362Y3.7299
X0.4362Y3.9299
X6.2362Y3.7299
X8.1362Y4.1299
X7.5362Y3.1299
X0.7362Y3.3299
X7.5362Y4.0299
X7.5362Y2.3299
X1.7185Y0.2087
X1.8185Y0.4087
X1.8185Y0.3087
X1.8185Y0.2087
X1.9185Y0.4087
X1.9185Y0.3087
X1.9185Y0.2087
X2.0185Y0.4087
X2.0185Y0.3087
X2.0185Y0.2087
X2.1185Y0.4087
X2.1185Y0.3087
X2.1185Y0.2087
X2.2185Y0.4087
X2.2185Y0.3087
X2.2185Y0.2087
X2.3185Y0.4087
X2.3185Y0.3087
X2.3185Y0.2087
X2.4185Y0.4087
X2.4185Y0.3087
X2.9362Y5.0299
X0.2362Y2.9299
X2.5362Y5.6299
X0.2362Y2.4299
X4.4362Y5.7299
X4.8362Y2.0299
X3.3362Y5.8299
X4.8362Y4.1299
X4.6362Y5.9299
X0.7362Y5.9299
X2.4185Y0.2087
X2.5185Y0.4087
X2.5185Y0.3087
X2.5185Y0.2087
X2.6185Y0.4087
X2.6185Y0.3087
X2.6185Y0.2087
X2.7185Y0.4087
X2.7185Y0.3087
X2.7185Y0.2087
X2.8185Y0.4087
X2.8185Y0.3087
X2.8185Y0.2087
X2.9185Y0.4087
X2.9185Y0.3087
X2.9185Y0.2087
X3.0185Y0.4087
X3.0185Y0.3087
X3.0185Y0.2087
X3.1185Y0.4087
X3.1185Y0.3087
X3.1185Y0.2087
X3.2185Y0.4087
X3.2185Y0.3087
X3.2185Y0.2087
X3.3185Y0.4087
X3.3185Y0.3087
X3.4185Y0.3087
X3.4362Y1.0299
X0.4362Y5.2299
X2.8362Y2.5299
X3.3185Y0.2087
X7.0362Y1.3299
X5.5362Y4.6299
X7.8362Y2.4299
X1.4362Y4.1299
X6.0362Y1.9299
X8.5362Y2.2299
X6.3362Y1.2299
X5.0362Y1.8299
X3.4185Y0.4087
X2.8362Y3.9299
X7.9362Y0.6299
X0.5362Y2.5299
X5.7362Y2.5299
X0.4362Y1.3299
X4.5362Y0.1654
X4.0362Y1.6299
X1.0362Y1.7299
X2.4362Y2.3299
X5.1362Y1.9299
X5.2362Y2.2299
X4.2362Y1.2299
X8.6362Y1.0299
X0.9362Y4.1299
X7.1362Y5.9299
X4.0362Y2.5299
X2.6362Y1.5299
X3.6362Y1.1299
X0.8362Y1.2299
X6.0362Y5.9299
X2.3362Y5.1299
X0.6362Y1.8299
X6.1362Y5.0299
X6.3362Y4.6299
X5.1362Y3.9299
X0.5362Y0.7299
X3.4185Y0.2087
X3.5185Y0.4087
X3.5185Y0.3087
X3.5185Y0.2087
X4.0362Y0.3654
X2.2362Y0.6299
X5.0362Y3.9299
X2.1362Y0.6299
X3.7362Y5.1299
X3.1362Y5.1299
X5.9362Y5.1299
X6.8362Y4.9299
X4.2362Y5.0299
X8.7362Y5.3299
X4.1362Y5.0299
X0.6362Y5.2299
X4.0362Y5.3299
X6.7362Y5.3299
X1.6362Y3.4299
X5.1362Y5.2299
X6.7362Y5.2299
X8.3362Y5.2299
X8.2362Y5.2299
X3.0362Y5.3299
X7.0362Y3.3299
X8.5362Y3.3299
X2.7362Y3.4299
X1.8362Y5.3299
X7.6362Y3.4299
X2.9362Y5.4299
X3.5362Y3.5299
X5.2362Y4.3299
X7.0362Y4.3299
X6.3362Y2.8299
X7.6362Y2.8299
X8.5362Y2.8299
X2.2362Y2.9299
X5.8362Y2.9299
X7.9362Y3.5299
X5.6362Y3.6299
X7.9362Y2.0299
X1.3362Y2.7299
X5.1362Y2.7299
X7.7362Y2.7299
X5.9362Y4.2299
X2.9362Y4.5299
X3.4362Y3.5299
X6.9362Y4.3299
X7.9362Y2.8299
X8.1362Y2.8299
X2.1362Y2.9299
X4.1362Y2.9299
X5.7362Y2.9299
X3.0362Y3.6299
X0.9362Y3.7299
X7.3362Y2.0299
X2.0362Y2.6299
X3.1362Y4.6299
X5.5362Y5.7299
X3.6362Y3.0299
X2.1362Y4.3299
X3.5362Y4.7299
X5.3362Y5.4299
X6.5362Y3.0299
X5.5362Y2.1299
X8.4362Y4.7299
X1.6362Y2.1299
X6.1362Y2.1299
X3.2362Y4.6299
X7.5362Y3.0299
X7.3362Y4.5299
X3.5362Y5.4299
X8.3362Y1.5299
X5.9362Y2.1299
X7.6362Y2.1299
X1.0362Y4.8299
X8.3362Y5.4299
X7.9362Y2.6299
X1.8362Y2.7299
X8.7362Y2.7299
X3.5362Y4.8299
X3.7362Y5.4299
X5.9362Y5.5299
X2.8362Y5.7299
X0.7362Y2.6299
X2.4362Y3.0299
X6.4362Y3.0299
X6.4362Y3.5299
X0.9362Y3.5299
X8.7362Y2.8299
X3.7362Y3.5299
X7.5362Y2.1299
X5.9362Y2.6299
X6.2362Y2.7299
X7.4362Y4.2299
X1.6362Y4.5299
X3.4362Y4.9299
X6.4362Y4.0299
X6.6362Y5.6299
X8.6362Y5.5299
X4.4362Y4.7299
X4.8362Y4.8299
X4.8362Y3.5299
X5.6362Y5.8299
X2.9362Y4.7299
X3.0362Y5.9299
X0.2362Y2.0299
X2.3362Y2.3299
X5.1362Y2.2299
X3.9362Y2.5299
X1.6362Y2.5299
X2.6362Y2.4299
X2.5362Y2.0299
X6.9362Y0.8299
X6.7362Y0.7299
X1.5362Y0.7299
X7.8362Y0.6299
X7.4362Y1.0299
X0.5362Y1.2299
X2.4362Y1.2299
X6.2362Y1.2299
X3.5362Y1.4299
X1.4362Y1.5299
X5.3362Y1.5299
X6.1362Y1.6299
X7.7362Y1.7299
X1.3362Y4.6299
X6.2362Y5.1299
X5.1362Y5.1299
X1.7362Y5.1299
X0.8362Y4.1299
X1.2362Y4.9299
X5.6362Y4.9299
X3.8362Y4.9299
X2.5362Y5.0299
X6.4362Y5.2299
X5.7362Y5.3299
X5.3362Y3.4299
X1.9362Y3.5299
X6.2362Y4.3299
X3.1362Y2.9299
X5.8362Y3.5299
X1.3362Y2.8299
X3.7362Y4.5299
X7.2362Y4.5299
X8.4362Y3.3299
X8.5362Y3.4299
X6.0362Y3.6299
X3.9362Y2.1299
X8.6362Y2.1299
X2.0362Y4.3299
X8.6362Y4.5299
X6.8362Y3.3299
X6.6362Y4.3299
X3.4362Y4.7299
X7.2362Y4.3299
X1.5362Y2.1299
X5.9362Y2.7299
X3.5362Y4.2299
X1.3362Y4.3299
X2.8362Y4.3299
X3.4362Y3.1299
X1.4362Y3.2299
X7.6362Y3.1299
X2.4362Y3.1299
X5.9362Y3.3299
X2.0362Y3.3299
X3.0362Y3.7299
X8.5362Y3.0299
X6.3362Y5.4299
X5.8362Y5.5299
X5.8362Y5.7299
X3.4362Y2.6299
X2.4362Y3.2299
X7.3362Y3.2299
X1.9362Y3.3299
X3.8362Y5.7299
X3.5362Y3.0299
X6.1362Y4.8299
X2.0362Y1.6299
X8.0362Y2.9299
X4.0362Y3.3299
X1.0362Y5.4299
X6.3362Y3.7299
X4.0362Y3.7299
X5.5362Y3.8299
X3.9362Y4.8299
X7.6362Y3.8299
X6.7362Y3.8299
X5.2362Y3.1299
X1.6362Y3.9299
X5.1362Y3.2299
X7.3362Y3.7299
X6.9362Y5.7299
X2.1362Y3.8299
X5.9362Y4.7299
X5.1362Y3.7299
X7.9362Y5.4299
X2.1362Y5.7299
X1.1362Y3.1299
X2.7362Y4.3299
X8.6362Y4.0299
X7.6362Y4.0299
X6.5362Y4.0299
X0.8362Y4.0299
X3.3362Y4.0299
X3.0362Y4.2299
X7.6362Y1.9299
X0.9362Y4.0299
X8.7362Y5.5299
X3.9362Y5.2299
X0.2362Y4.3299
X4.8362Y4.7299
X7.0362Y4.1299
X6.9362Y4.1299
X2.3362Y5.6299
X2.4362Y5.6299
X5.4362Y5.6299
X6.7362Y5.6299
X0.7362Y4.2299
X7.4362Y5.5299
X0.2362Y4.2299
X4.4362Y4.8299
X4.8362Y2.9299
X4.8362Y2.7299
X5.7362Y5.8299
X1.9362Y4.2299
X1.8362Y4.2299
X7.0362Y5.8299
X8.9362Y1.9299
X3.0362Y4.7299
X2.9362Y5.2299
X8.3362Y5.9299
X3.1362Y5.9299
X4.6362Y2.0299
X0.6362Y2.2299
X1.3362Y2.3299
X1.7362Y2.5299
X2.6362Y2.0299
X0.4362Y2.0299
X7.7362Y1.9299
X7.0362Y0.8299
X6.8362Y0.7299
X1.6362Y0.7299
X8.5362Y1.8299
X5.6685Y0.4087
X5.6685Y0.3087
X5.6685Y0.2087
X5.7685Y0.4087
X5.7685Y0.3087
X5.7685Y0.2087
X5.8685Y0.4087
X5.8685Y0.3087
X5.8685Y0.2087
X5.9685Y0.4087
X5.9685Y0.3087
X5.9685Y0.2087
X6.0685Y0.4087
X6.0685Y0.3087
X6.0685Y0.2087
X6.1685Y0.4087
X6.1685Y0.3087
X6.1685Y0.2087
X6.2685Y0.4087
X6.2685Y0.3087
X6.2685Y0.2087
X6.3685Y0.4087
X6.3685Y0.3087
X6.3685Y0.2087
X6.4685Y0.4087
X6.4685Y0.3087
X6.4685Y0.2087
X6.5685Y0.4087
X6.5685Y0.3087
X6.5685Y0.2087
X6.6685Y0.4087
X6.6685Y0.3087
X6.6685Y0.2087
X6.7685Y0.4087
X6.7685Y0.3087
X6.7685Y0.2087
X6.8685Y0.4087
X6.8685Y0.3087
X6.8685Y0.2087
X6.9685Y0.4087
X6.9685Y0.3087
X6.9685Y0.2087
X7.0685Y0.4087
X7.0685Y0.3087
X7.0685Y0.2087
X7.1685Y0.4087
X7.1685Y0.3087
X7.1685Y0.2087
X7.2685Y0.4087
X7.2685Y0.3087
X7.2685Y0.2087
X7.3685Y0.4087
X7.3685Y0.3087
X7.3685Y0.2087
X7.4685Y0.4087
X7.4685Y0.3087
X7.4685Y0.2087
X7.5685Y0.4087
X7.5685Y0.3087
X7.5685Y0.2087
X7.6685Y0.4087
X7.6685Y0.3087
X7.6685Y0.2087
X7.7685Y0.4087
X7.7685Y0.3087
X7.7685Y0.2087
X7.8685Y0.4087
X7.8685Y0.3087
X7.8685Y0.2087
X7.9685Y0.4087
X7.9685Y0.3087
X7.9685Y0.2087
X8.0685Y0.4087
X8.0685Y0.3087
X8.0685Y0.2087
X8.1685Y0.4087
X8.1685Y0.3087
X8.1685Y0.2087
X8.2685Y0.4087
X8.2685Y0.3087
X8.2685Y0.2087
X8.3685Y0.4087
X8.3685Y0.3087
X8.3685Y0.2087
X8.4685Y0.4087
X8.4685Y0.3087
X8.4685Y0.2087
X8.5685Y0.4087
X8.5685Y0.3087
X8.5685Y0.2087
X8.6685Y0.4087
X8.6685Y0.3087
X8.6685Y0.2087
X8.7685Y0.4087
X8.7685Y0.3087
X8.7685Y0.2087
X7.5362Y1.0299
X5.3362Y1.0299
X5.5362Y1.1299
X3.5362Y1.2299
X5.4362Y1.3299
X1.1362Y1.4299
X1.5362Y1.5299
X6.6362Y1.4299
X5.4362Y1.5299
X6.2362Y1.6299
X7.9362Y1.6299
X7.8362Y1.7299
X6.2362Y4.1299
X1.1362Y4.6299
X7.2362Y5.0299
X5.2362Y5.1299
X5.5362Y1.9299
X0.2362Y2.2299
X3.5362Y5.1299
X1.3362Y4.9299
X3.5362Y4.9299
X5.7362Y4.9299
X3.9362Y4.9299
X2.6362Y5.0299
X5.5362Y5.2299
X6.9362Y3.3299
X5.4362Y3.4299
X8.6362Y3.4299
X2.0362Y3.5299
X6.3362Y4.3299
X7.7362Y2.8299
X3.2362Y2.9299
X6.5362Y3.5299
X4.0362Y2.1299
X8.7362Y2.1299
X0.6362Y2.7299
X6.0362Y2.7299
X1.4362Y2.8299
X2.8362Y2.8299
X3.6362Y4.2299
X1.4362Y4.3299
X2.9362Y4.3299
X3.8362Y4.5299
X2.0362Y4.6299
X6.0362Y4.7299
X1.9362Y4.8299
X4.0362Y4.8299
X1.1362Y5.4299
X2.2362Y5.4299
X2.5362Y5.4299
X8.0362Y5.4299
X8.2362Y5.4299
X1.3362Y5.8299
X1.1362Y5.5299
X3.3362Y5.5299
X2.2362Y5.7299
X7.0362Y5.7299
X5.3362Y3.0299
X1.2362Y3.1299
X5.2362Y3.2299
X7.7362Y3.8299
X7.6362Y3.9299
X1.0362Y4.0299
X5.5362Y4.1299
X5.3362Y4.0299
X3.5362Y5.6299
X1.6362Y5.6299
X3.5362Y1.6299
X0.2362Y5.7299
X4.4362Y3.1299
X4.4362Y3.6299
X4.8362Y4.9299
X1.7362Y5.8299
X4.8362Y1.5299
X7.8362Y4.4299
X0.8362Y5.9299
X8.9362Y4.2299
X8.9362Y3.1299
X0.2362Y1.4299
X6.3362Y2.3299
X5.2362Y2.3299
X3.3362Y2.2299
X7.9362Y2.5299
X6.6362Y2.4299
X5.5362Y2.4299
X1.4362Y2.0299
X5.8362Y0.8299
X2.8362Y0.8299
X1.7362Y0.8299
X7.8362Y0.7299
X5.6362Y0.7299
X6.7362Y0.6299
X3.0362Y0.6299
X2.2362Y1.9299
X1.1362Y1.9299
X3.1362Y1.8299
X6.3362Y1.0299
X6.5362Y1.1299
X1.6362Y1.4299
X8.7362Y1.4299
X7.6362Y1.4299
X3.6362Y1.5299
X8.2362Y1.6299
X3.2362Y1.7299
X6.6362Y1.7299
X5.1362Y0.2654
X4.2362Y3.9299
X5.3362Y4.6299
X7.8362Y5.1299
X1.2362Y4.1299
X7.2362Y5.1299
X2.8362Y5.1299
X7.9362Y4.9299
X8.3362Y5.1299
X6.6362Y5.2299
X1.3362Y5.3299
X6.5362Y5.3299
X1.5362Y3.4299
X8.6362Y4.3299
X6.9362Y3.6299
X3.3362Y3.5299
X6.8362Y4.3299
X7.5362Y2.8299
X2.0362Y2.9299
X5.6362Y2.9299
X2.9362Y3.6299
X5.4362Y2.1299
X7.8362Y2.6299
X8.6362Y2.7299
X7.0362Y4.2299
X1.0362Y4.6299
X3.0362Y4.6299
X5.7362Y4.7299
X3.4362Y4.8299
X6.0362Y5.5299
X0.9362Y1.6299
X8.1362Y1.5299
X0.6362Y2.6299
X1.8362Y2.6299
X2.3362Y3.0299
X6.3362Y3.0299
X3.4362Y3.0299
X1.8362Y3.3299
X3.9362Y3.3299
X6.1362Y3.7299
X3.2362Y4.0299
X3.8362Y5.2299
X7.5362Y1.9299
X0.2362Y3.9299
X2.4362Y5.8299
X4.6362Y3.0299
X3.3362Y4.4299
X0.4362Y4.5299
X8.1362Y5.9299
X8.9362Y5.5299
X1.2362Y2.4299
X1.1362Y2.3299
X7.3362Y2.2299
X2.1362Y2.2299
X1.5362Y2.5299
X3.6362Y2.4299
X2.5362Y2.4299
X3.5362Y2.0299
X2.4362Y2.0299
X8.6362Y1.9299
X3.2362Y1.9299
X8.3362Y1.8299
X6.0362Y1.8299
X2.3362Y1.0299
X1.1362Y1.0299
X5.1362Y1.0299
X5.3362Y1.1299
X3.3362Y1.2299
X7.2362Y1.2299
X1.4362Y1.3299
X3.1362Y1.3299
X5.2362Y1.3299
X1.3362Y1.5299
X2.0362Y1.7299
X5.0362Y1.7299
X1.8362Y0.6299
X3.8362Y3.9299
X5.1362Y4.6299
X5.8362Y4.6299
X0.5362Y2.2299
X7.0362Y5.0299
X8.2362Y5.0299
X6.4362Y5.4299
X7.4362Y5.1299
X1.1362Y4.1299
X1.1362Y4.9299
X5.5362Y4.9299
X1.9362Y5.0299
X3.0362Y5.0299
X5.7362Y5.2299
X5.9362Y5.2299
X5.3362Y5.3299
X6.3362Y3.3299
X6.7362Y3.3299
X0.5362Y3.4299
X1.6362Y4.4299
X5.7362Y4.3299
X7.6362Y2.9299
X1.7362Y3.6299
X8.0362Y3.6299
X2.5362Y2.1299
X1.4362Y2.1299
X3.8362Y2.1299
X0.4362Y2.7299
X3.4362Y5.6299
X2.6362Y2.8299
X8.5362Y4.2299
X0.4362Y4.3299
X0.8362Y4.3299
X1.9362Y4.3299
X1.8362Y4.6299
X2.5362Y4.8299
X7.1362Y4.8299
X7.8362Y5.4299
X8.0362Y5.6299
X0.8362Y5.7299
X8.2362Y5.7299
X8.5362Y2.5299
X0.6362Y3.0299
X1.4362Y3.0299
X5.1362Y3.0299
X6.2362Y3.1299
X5.1362Y3.1299
X8.3362Y3.2299
X5.6362Y3.3299
X7.0362Y3.9299
X7.9362Y4.1299
X1.5362Y5.6299
X0.9362Y3.8299
X6.9362Y3.9299
X2.0362Y4.0299
X2.9362Y4.2299
X8.6362Y3.8299
X7.5362Y3.9299
X7.4362Y3.9299
X4.4362Y5.9299
X4.4362Y3.0299
X8.2362Y3.7299
X5.3362Y4.1299
X4.6362Y0.9299
X4.4362Y1.4299
X0.2362Y5.6299
X0.2362Y5.5299
X0.2362Y4.1299
X4.8362Y5.4299
X6.6362Y5.8299
X4.4362Y1.3299
X3.1362Y5.8299
X3.0362Y5.8299
X4.8362Y4.0299
X4.8362Y5.5299
X4.6362Y2.7299
X4.8362Y1.3299
X4.6362Y5.7299
X4.6362Y3.1299
X4.6362Y4.7299
X4.6362Y4.3299
T2
X3.7185Y6.1587
X0.2106Y6.1587
X5.4606Y6.1587
X8.9606Y6.1587
T3
X0.2185Y0.1087
X3.7185Y0.1087
X5.4685Y0.1087
X8.9685Y0.1087
T0
M30
