G04 #@! TF.GenerationSoftware,KiCad,Pcbnew,(5.1.4-0-10_14)*
G04 #@! TF.CreationDate,2019-11-27T23:26:46+01:00*
G04 #@! TF.ProjectId,Eurocard_6U_233x160_VME,4575726f-6361-4726-945f-36555f323333,rev?*
G04 #@! TF.SameCoordinates,Original*
G04 #@! TF.FileFunction,Legend,Top*
G04 #@! TF.FilePolarity,Positive*
%FSLAX46Y46*%
G04 Gerber Fmt 4.6, Leading zero omitted, Abs format (unit mm)*
G04 Created by KiCad (PCBNEW (5.1.4-0-10_14)) date 2019-11-27 23:26:46*
%MOMM*%
%LPD*%
G04 APERTURE LIST*
%ADD10C,0.150000*%
%ADD11C,0.120000*%
G04 APERTURE END LIST*
D10*
X116414285Y153028571D02*
X117176190Y153028571D01*
X116795238Y152647619D02*
X116795238Y153409523D01*
X118128571Y153647619D02*
X117652380Y153647619D01*
X117604761Y153171428D01*
X117652380Y153219047D01*
X117747619Y153266666D01*
X117985714Y153266666D01*
X118080952Y153219047D01*
X118128571Y153171428D01*
X118176190Y153076190D01*
X118176190Y152838095D01*
X118128571Y152742857D01*
X118080952Y152695238D01*
X117985714Y152647619D01*
X117747619Y152647619D01*
X117652380Y152695238D01*
X117604761Y152742857D01*
X118461904Y153647619D02*
X118795238Y152647619D01*
X119128571Y153647619D01*
X116514285Y13428571D02*
X117276190Y13428571D01*
X116895238Y13047619D02*
X116895238Y13809523D01*
X118228571Y14047619D02*
X117752380Y14047619D01*
X117704761Y13571428D01*
X117752380Y13619047D01*
X117847619Y13666666D01*
X118085714Y13666666D01*
X118180952Y13619047D01*
X118228571Y13571428D01*
X118276190Y13476190D01*
X118276190Y13238095D01*
X118228571Y13142857D01*
X118180952Y13095238D01*
X118085714Y13047619D01*
X117847619Y13047619D01*
X117752380Y13095238D01*
X117704761Y13142857D01*
X118561904Y14047619D02*
X118895238Y13047619D01*
X119228571Y14047619D01*
X226238095Y14000000D02*
X226142857Y14047619D01*
X226000000Y14047619D01*
X225857142Y14000000D01*
X225761904Y13904761D01*
X225714285Y13809523D01*
X225666666Y13619047D01*
X225666666Y13476190D01*
X225714285Y13285714D01*
X225761904Y13190476D01*
X225857142Y13095238D01*
X226000000Y13047619D01*
X226095238Y13047619D01*
X226238095Y13095238D01*
X226285714Y13142857D01*
X226285714Y13476190D01*
X226095238Y13476190D01*
X226714285Y13047619D02*
X226714285Y14047619D01*
X227285714Y13047619D01*
X227285714Y14047619D01*
X227761904Y13047619D02*
X227761904Y14047619D01*
X228000000Y14047619D01*
X228142857Y14000000D01*
X228238095Y13904761D01*
X228285714Y13809523D01*
X228333333Y13619047D01*
X228333333Y13476190D01*
X228285714Y13285714D01*
X228238095Y13190476D01*
X228142857Y13095238D01*
X228000000Y13047619D01*
X227761904Y13047619D01*
X226238095Y153700000D02*
X226142857Y153747619D01*
X226000000Y153747619D01*
X225857142Y153700000D01*
X225761904Y153604761D01*
X225714285Y153509523D01*
X225666666Y153319047D01*
X225666666Y153176190D01*
X225714285Y152985714D01*
X225761904Y152890476D01*
X225857142Y152795238D01*
X226000000Y152747619D01*
X226095238Y152747619D01*
X226238095Y152795238D01*
X226285714Y152842857D01*
X226285714Y153176190D01*
X226095238Y153176190D01*
X226714285Y152747619D02*
X226714285Y153747619D01*
X227285714Y152747619D01*
X227285714Y153747619D01*
X227761904Y152747619D02*
X227761904Y153747619D01*
X228000000Y153747619D01*
X228142857Y153700000D01*
X228238095Y153604761D01*
X228285714Y153509523D01*
X228333333Y153319047D01*
X228333333Y153176190D01*
X228285714Y152985714D01*
X228238095Y152890476D01*
X228142857Y152795238D01*
X228000000Y152747619D01*
X227761904Y152747619D01*
X122138095Y153600000D02*
X122042857Y153647619D01*
X121900000Y153647619D01*
X121757142Y153600000D01*
X121661904Y153504761D01*
X121614285Y153409523D01*
X121566666Y153219047D01*
X121566666Y153076190D01*
X121614285Y152885714D01*
X121661904Y152790476D01*
X121757142Y152695238D01*
X121900000Y152647619D01*
X121995238Y152647619D01*
X122138095Y152695238D01*
X122185714Y152742857D01*
X122185714Y153076190D01*
X121995238Y153076190D01*
X122614285Y152647619D02*
X122614285Y153647619D01*
X123185714Y152647619D01*
X123185714Y153647619D01*
X123661904Y152647619D02*
X123661904Y153647619D01*
X123900000Y153647619D01*
X124042857Y153600000D01*
X124138095Y153504761D01*
X124185714Y153409523D01*
X124233333Y153219047D01*
X124233333Y153076190D01*
X124185714Y152885714D01*
X124138095Y152790476D01*
X124042857Y152695238D01*
X123900000Y152647619D01*
X123661904Y152647619D01*
X111938095Y153500000D02*
X111842857Y153547619D01*
X111700000Y153547619D01*
X111557142Y153500000D01*
X111461904Y153404761D01*
X111414285Y153309523D01*
X111366666Y153119047D01*
X111366666Y152976190D01*
X111414285Y152785714D01*
X111461904Y152690476D01*
X111557142Y152595238D01*
X111700000Y152547619D01*
X111795238Y152547619D01*
X111938095Y152595238D01*
X111985714Y152642857D01*
X111985714Y152976190D01*
X111795238Y152976190D01*
X112414285Y152547619D02*
X112414285Y153547619D01*
X112985714Y152547619D01*
X112985714Y153547619D01*
X113461904Y152547619D02*
X113461904Y153547619D01*
X113700000Y153547619D01*
X113842857Y153500000D01*
X113938095Y153404761D01*
X113985714Y153309523D01*
X114033333Y153119047D01*
X114033333Y152976190D01*
X113985714Y152785714D01*
X113938095Y152690476D01*
X113842857Y152595238D01*
X113700000Y152547619D01*
X113461904Y152547619D01*
X122138095Y14000000D02*
X122042857Y14047619D01*
X121900000Y14047619D01*
X121757142Y14000000D01*
X121661904Y13904761D01*
X121614285Y13809523D01*
X121566666Y13619047D01*
X121566666Y13476190D01*
X121614285Y13285714D01*
X121661904Y13190476D01*
X121757142Y13095238D01*
X121900000Y13047619D01*
X121995238Y13047619D01*
X122138095Y13095238D01*
X122185714Y13142857D01*
X122185714Y13476190D01*
X121995238Y13476190D01*
X122614285Y13047619D02*
X122614285Y14047619D01*
X123185714Y13047619D01*
X123185714Y14047619D01*
X123661904Y13047619D02*
X123661904Y14047619D01*
X123900000Y14047619D01*
X124042857Y14000000D01*
X124138095Y13904761D01*
X124185714Y13809523D01*
X124233333Y13619047D01*
X124233333Y13476190D01*
X124185714Y13285714D01*
X124138095Y13190476D01*
X124042857Y13095238D01*
X123900000Y13047619D01*
X123661904Y13047619D01*
X111938095Y14000000D02*
X111842857Y14047619D01*
X111700000Y14047619D01*
X111557142Y14000000D01*
X111461904Y13904761D01*
X111414285Y13809523D01*
X111366666Y13619047D01*
X111366666Y13476190D01*
X111414285Y13285714D01*
X111461904Y13190476D01*
X111557142Y13095238D01*
X111700000Y13047619D01*
X111795238Y13047619D01*
X111938095Y13095238D01*
X111985714Y13142857D01*
X111985714Y13476190D01*
X111795238Y13476190D01*
X112414285Y13047619D02*
X112414285Y14047619D01*
X112985714Y13047619D01*
X112985714Y14047619D01*
X113461904Y13047619D02*
X113461904Y14047619D01*
X113700000Y14047619D01*
X113842857Y14000000D01*
X113938095Y13904761D01*
X113985714Y13809523D01*
X114033333Y13619047D01*
X114033333Y13476190D01*
X113985714Y13285714D01*
X113938095Y13190476D01*
X113842857Y13095238D01*
X113700000Y13047619D01*
X113461904Y13047619D01*
X5238095Y13700000D02*
X5142857Y13747619D01*
X4999999Y13747619D01*
X4857142Y13700000D01*
X4761904Y13604761D01*
X4714285Y13509523D01*
X4666666Y13319047D01*
X4666666Y13176190D01*
X4714285Y12985714D01*
X4761904Y12890476D01*
X4857142Y12795238D01*
X4999999Y12747619D01*
X5095238Y12747619D01*
X5238095Y12795238D01*
X5285714Y12842857D01*
X5285714Y13176190D01*
X5095238Y13176190D01*
X5714285Y12747619D02*
X5714285Y13747619D01*
X6285714Y12747619D01*
X6285714Y13747619D01*
X6761904Y12747619D02*
X6761904Y13747619D01*
X7000000Y13747619D01*
X7142857Y13700000D01*
X7238095Y13604761D01*
X7285714Y13509523D01*
X7333333Y13319047D01*
X7333333Y13176190D01*
X7285714Y12985714D01*
X7238095Y12890476D01*
X7142857Y12795238D01*
X7000000Y12747619D01*
X6761904Y12747619D01*
X5238095Y153600000D02*
X5142857Y153647619D01*
X4999999Y153647619D01*
X4857142Y153600000D01*
X4761904Y153504761D01*
X4714285Y153409523D01*
X4666666Y153219047D01*
X4666666Y153076190D01*
X4714285Y152885714D01*
X4761904Y152790476D01*
X4857142Y152695238D01*
X4999999Y152647619D01*
X5095238Y152647619D01*
X5238095Y152695238D01*
X5285714Y152742857D01*
X5285714Y153076190D01*
X5095238Y153076190D01*
X5714285Y152647619D02*
X5714285Y153647619D01*
X6285714Y152647619D01*
X6285714Y153647619D01*
X6761904Y152647619D02*
X6761904Y153647619D01*
X7000000Y153647619D01*
X7142857Y153600000D01*
X7238095Y153504761D01*
X7285714Y153409523D01*
X7333333Y153219047D01*
X7333333Y153076190D01*
X7285714Y152885714D01*
X7238095Y152790476D01*
X7142857Y152695238D01*
X7000000Y152647619D01*
X6761904Y152647619D01*
X91900000Y4860000D02*
X91900000Y5360000D01*
X91900000Y5360000D02*
X97100000Y5360000D01*
X97100000Y5360000D02*
X97100000Y260000D01*
X8100000Y4860000D02*
X8100000Y5360000D01*
X8100000Y5360000D02*
X2900000Y5360000D01*
X2900000Y5360000D02*
X2900000Y260000D01*
D11*
X90720000Y5300000D02*
X91320000Y5000000D01*
X91320000Y5000000D02*
X91320000Y5600000D01*
X91320000Y5600000D02*
X90720000Y5300000D01*
D10*
X225250000Y4860000D02*
X225250000Y5360000D01*
X225250000Y5360000D02*
X230450000Y5360000D01*
X230450000Y5360000D02*
X230450000Y260000D01*
X141450000Y4860000D02*
X141450000Y5360000D01*
X141450000Y5360000D02*
X136250000Y5360000D01*
X136250000Y5360000D02*
X136250000Y260000D01*
D11*
X224070000Y5300000D02*
X224670000Y5000000D01*
X224670000Y5000000D02*
X224670000Y5600000D01*
X224670000Y5600000D02*
X224070000Y5300000D01*
D10*
X94116666Y7117619D02*
X94116666Y6403333D01*
X94069047Y6260476D01*
X93973809Y6165238D01*
X93830952Y6117619D01*
X93735714Y6117619D01*
X94545238Y7022380D02*
X94592857Y7070000D01*
X94688095Y7117619D01*
X94926190Y7117619D01*
X95021428Y7070000D01*
X95069047Y7022380D01*
X95116666Y6927142D01*
X95116666Y6831904D01*
X95069047Y6689047D01*
X94497619Y6117619D01*
X95116666Y6117619D01*
X227466666Y7117619D02*
X227466666Y6403333D01*
X227419047Y6260476D01*
X227323809Y6165238D01*
X227180952Y6117619D01*
X227085714Y6117619D01*
X228466666Y6117619D02*
X227895238Y6117619D01*
X228180952Y6117619D02*
X228180952Y7117619D01*
X228085714Y6974761D01*
X227990476Y6879523D01*
X227895238Y6831904D01*
M02*
