G04 #@! TF.GenerationSoftware,KiCad,Pcbnew,(5.1.4-0-10_14)*
G04 #@! TF.CreationDate,2019-11-23T21:51:22+01:00*
G04 #@! TF.ProjectId,FRONT_PANEL,46524f4e-545f-4504-914e-454c2e6b6963,rev?*
G04 #@! TF.SameCoordinates,Original*
G04 #@! TF.FileFunction,Soldermask,Top*
G04 #@! TF.FilePolarity,Negative*
%FSLAX46Y46*%
G04 Gerber Fmt 4.6, Leading zero omitted, Abs format (unit mm)*
G04 Created by KiCad (PCBNEW (5.1.4-0-10_14)) date 2019-11-23 21:51:22*
%MOMM*%
%LPD*%
G04 APERTURE LIST*
%ADD10C,0.100000*%
G04 APERTURE END LIST*
D10*
G36*
X253000000Y-59000000D02*
G01*
X232000000Y-59000000D01*
X232000000Y-55500000D01*
X253000000Y-55500000D01*
X253000000Y-59000000D01*
X253000000Y-59000000D01*
G37*
G36*
X196500000Y-59000000D02*
G01*
X186500000Y-59000000D01*
X186500000Y-55500000D01*
X196500000Y-55500000D01*
X196500000Y-59000000D01*
X196500000Y-59000000D01*
G37*
G36*
X122000000Y-59000000D02*
G01*
X112000000Y-59000000D01*
X112000000Y-55500000D01*
X122000000Y-55500000D01*
X122000000Y-59000000D01*
X122000000Y-59000000D01*
G37*
G36*
X69500000Y-59000000D02*
G01*
X48500000Y-59000000D01*
X48500000Y-55500000D01*
X69500000Y-55500000D01*
X69500000Y-59000000D01*
X69500000Y-59000000D01*
G37*
G36*
X274518433Y-46634893D02*
G01*
X274608657Y-46652839D01*
X274714267Y-46696585D01*
X274863621Y-46758449D01*
X274863622Y-46758450D01*
X275093086Y-46911772D01*
X275288228Y-47106914D01*
X275390675Y-47260237D01*
X275441551Y-47336379D01*
X275547161Y-47591344D01*
X275601000Y-47862012D01*
X275601000Y-48137988D01*
X275547161Y-48408656D01*
X275441551Y-48663621D01*
X275441550Y-48663622D01*
X275288228Y-48893086D01*
X275093086Y-49088228D01*
X274939763Y-49190675D01*
X274863621Y-49241551D01*
X274714267Y-49303415D01*
X274608657Y-49347161D01*
X274518433Y-49365107D01*
X274337988Y-49401000D01*
X274062012Y-49401000D01*
X273881567Y-49365107D01*
X273791343Y-49347161D01*
X273685733Y-49303415D01*
X273536379Y-49241551D01*
X273460237Y-49190675D01*
X273306914Y-49088228D01*
X273111772Y-48893086D01*
X272958450Y-48663622D01*
X272958449Y-48663621D01*
X272852839Y-48408656D01*
X272799000Y-48137988D01*
X272799000Y-47862012D01*
X272852839Y-47591344D01*
X272958449Y-47336379D01*
X273009325Y-47260237D01*
X273111772Y-47106914D01*
X273306914Y-46911772D01*
X273536378Y-46758450D01*
X273536379Y-46758449D01*
X273685733Y-46696585D01*
X273791343Y-46652839D01*
X273881567Y-46634893D01*
X274062012Y-46599000D01*
X274337988Y-46599000D01*
X274518433Y-46634893D01*
X274518433Y-46634893D01*
G37*
G36*
X261718433Y-46634893D02*
G01*
X261808657Y-46652839D01*
X261914267Y-46696585D01*
X262063621Y-46758449D01*
X262063622Y-46758450D01*
X262293086Y-46911772D01*
X262488228Y-47106914D01*
X262590675Y-47260237D01*
X262641551Y-47336379D01*
X262747161Y-47591344D01*
X262801000Y-47862012D01*
X262801000Y-48137988D01*
X262747161Y-48408656D01*
X262641551Y-48663621D01*
X262641550Y-48663622D01*
X262488228Y-48893086D01*
X262293086Y-49088228D01*
X262139763Y-49190675D01*
X262063621Y-49241551D01*
X261914267Y-49303415D01*
X261808657Y-49347161D01*
X261718433Y-49365107D01*
X261537988Y-49401000D01*
X261262012Y-49401000D01*
X261081567Y-49365107D01*
X260991343Y-49347161D01*
X260885733Y-49303415D01*
X260736379Y-49241551D01*
X260660237Y-49190675D01*
X260506914Y-49088228D01*
X260311772Y-48893086D01*
X260158450Y-48663622D01*
X260158449Y-48663621D01*
X260052839Y-48408656D01*
X259999000Y-48137988D01*
X259999000Y-47862012D01*
X260052839Y-47591344D01*
X260158449Y-47336379D01*
X260209325Y-47260237D01*
X260311772Y-47106914D01*
X260506914Y-46911772D01*
X260736378Y-46758450D01*
X260736379Y-46758449D01*
X260885733Y-46696585D01*
X260991343Y-46652839D01*
X261081567Y-46634893D01*
X261262012Y-46599000D01*
X261537988Y-46599000D01*
X261718433Y-46634893D01*
X261718433Y-46634893D01*
G37*
G36*
X192318433Y-46634893D02*
G01*
X192408657Y-46652839D01*
X192514267Y-46696585D01*
X192663621Y-46758449D01*
X192663622Y-46758450D01*
X192893086Y-46911772D01*
X193088228Y-47106914D01*
X193190675Y-47260237D01*
X193241551Y-47336379D01*
X193347161Y-47591344D01*
X193401000Y-47862012D01*
X193401000Y-48137988D01*
X193347161Y-48408656D01*
X193241551Y-48663621D01*
X193241550Y-48663622D01*
X193088228Y-48893086D01*
X192893086Y-49088228D01*
X192739763Y-49190675D01*
X192663621Y-49241551D01*
X192514267Y-49303415D01*
X192408657Y-49347161D01*
X192318433Y-49365107D01*
X192137988Y-49401000D01*
X191862012Y-49401000D01*
X191681567Y-49365107D01*
X191591343Y-49347161D01*
X191485733Y-49303415D01*
X191336379Y-49241551D01*
X191260237Y-49190675D01*
X191106914Y-49088228D01*
X190911772Y-48893086D01*
X190758450Y-48663622D01*
X190758449Y-48663621D01*
X190652839Y-48408656D01*
X190599000Y-48137988D01*
X190599000Y-47862012D01*
X190652839Y-47591344D01*
X190758449Y-47336379D01*
X190809325Y-47260237D01*
X190911772Y-47106914D01*
X191106914Y-46911772D01*
X191336378Y-46758450D01*
X191336379Y-46758449D01*
X191485733Y-46696585D01*
X191591343Y-46652839D01*
X191681567Y-46634893D01*
X191862012Y-46599000D01*
X192137988Y-46599000D01*
X192318433Y-46634893D01*
X192318433Y-46634893D01*
G37*
G36*
X117318433Y-46634893D02*
G01*
X117408657Y-46652839D01*
X117514267Y-46696585D01*
X117663621Y-46758449D01*
X117663622Y-46758450D01*
X117893086Y-46911772D01*
X118088228Y-47106914D01*
X118190675Y-47260237D01*
X118241551Y-47336379D01*
X118347161Y-47591344D01*
X118401000Y-47862012D01*
X118401000Y-48137988D01*
X118347161Y-48408656D01*
X118241551Y-48663621D01*
X118241550Y-48663622D01*
X118088228Y-48893086D01*
X117893086Y-49088228D01*
X117739763Y-49190675D01*
X117663621Y-49241551D01*
X117514267Y-49303415D01*
X117408657Y-49347161D01*
X117318433Y-49365107D01*
X117137988Y-49401000D01*
X116862012Y-49401000D01*
X116681567Y-49365107D01*
X116591343Y-49347161D01*
X116485733Y-49303415D01*
X116336379Y-49241551D01*
X116260237Y-49190675D01*
X116106914Y-49088228D01*
X115911772Y-48893086D01*
X115758450Y-48663622D01*
X115758449Y-48663621D01*
X115652839Y-48408656D01*
X115599000Y-48137988D01*
X115599000Y-47862012D01*
X115652839Y-47591344D01*
X115758449Y-47336379D01*
X115809325Y-47260237D01*
X115911772Y-47106914D01*
X116106914Y-46911772D01*
X116336378Y-46758450D01*
X116336379Y-46758449D01*
X116485733Y-46696585D01*
X116591343Y-46652839D01*
X116681567Y-46634893D01*
X116862012Y-46599000D01*
X117137988Y-46599000D01*
X117318433Y-46634893D01*
X117318433Y-46634893D01*
G37*
G36*
X40318433Y-46634893D02*
G01*
X40408657Y-46652839D01*
X40514267Y-46696585D01*
X40663621Y-46758449D01*
X40663622Y-46758450D01*
X40893086Y-46911772D01*
X41088228Y-47106914D01*
X41190675Y-47260237D01*
X41241551Y-47336379D01*
X41347161Y-47591344D01*
X41401000Y-47862012D01*
X41401000Y-48137988D01*
X41347161Y-48408656D01*
X41241551Y-48663621D01*
X41241550Y-48663622D01*
X41088228Y-48893086D01*
X40893086Y-49088228D01*
X40739763Y-49190675D01*
X40663621Y-49241551D01*
X40514267Y-49303415D01*
X40408657Y-49347161D01*
X40318433Y-49365107D01*
X40137988Y-49401000D01*
X39862012Y-49401000D01*
X39681567Y-49365107D01*
X39591343Y-49347161D01*
X39485733Y-49303415D01*
X39336379Y-49241551D01*
X39260237Y-49190675D01*
X39106914Y-49088228D01*
X38911772Y-48893086D01*
X38758450Y-48663622D01*
X38758449Y-48663621D01*
X38652839Y-48408656D01*
X38599000Y-48137988D01*
X38599000Y-47862012D01*
X38652839Y-47591344D01*
X38758449Y-47336379D01*
X38809325Y-47260237D01*
X38911772Y-47106914D01*
X39106914Y-46911772D01*
X39336378Y-46758450D01*
X39336379Y-46758449D01*
X39485733Y-46696585D01*
X39591343Y-46652839D01*
X39681567Y-46634893D01*
X39862012Y-46599000D01*
X40137988Y-46599000D01*
X40318433Y-46634893D01*
X40318433Y-46634893D01*
G37*
G36*
X23618433Y-46634893D02*
G01*
X23708657Y-46652839D01*
X23814267Y-46696585D01*
X23963621Y-46758449D01*
X23963622Y-46758450D01*
X24193086Y-46911772D01*
X24388228Y-47106914D01*
X24490675Y-47260237D01*
X24541551Y-47336379D01*
X24647161Y-47591344D01*
X24701000Y-47862012D01*
X24701000Y-48137988D01*
X24647161Y-48408656D01*
X24541551Y-48663621D01*
X24541550Y-48663622D01*
X24388228Y-48893086D01*
X24193086Y-49088228D01*
X24039763Y-49190675D01*
X23963621Y-49241551D01*
X23814267Y-49303415D01*
X23708657Y-49347161D01*
X23618433Y-49365107D01*
X23437988Y-49401000D01*
X23162012Y-49401000D01*
X22981567Y-49365107D01*
X22891343Y-49347161D01*
X22785733Y-49303415D01*
X22636379Y-49241551D01*
X22560237Y-49190675D01*
X22406914Y-49088228D01*
X22211772Y-48893086D01*
X22058450Y-48663622D01*
X22058449Y-48663621D01*
X21952839Y-48408656D01*
X21899000Y-48137988D01*
X21899000Y-47862012D01*
X21952839Y-47591344D01*
X22058449Y-47336379D01*
X22109325Y-47260237D01*
X22211772Y-47106914D01*
X22406914Y-46911772D01*
X22636378Y-46758450D01*
X22636379Y-46758449D01*
X22785733Y-46696585D01*
X22891343Y-46652839D01*
X22981567Y-46634893D01*
X23162012Y-46599000D01*
X23437988Y-46599000D01*
X23618433Y-46634893D01*
X23618433Y-46634893D01*
G37*
G36*
X274518433Y-26634893D02*
G01*
X274608657Y-26652839D01*
X274714267Y-26696585D01*
X274863621Y-26758449D01*
X274863622Y-26758450D01*
X275093086Y-26911772D01*
X275288228Y-27106914D01*
X275390675Y-27260237D01*
X275441551Y-27336379D01*
X275547161Y-27591344D01*
X275601000Y-27862012D01*
X275601000Y-28137988D01*
X275547161Y-28408656D01*
X275441551Y-28663621D01*
X275441550Y-28663622D01*
X275288228Y-28893086D01*
X275093086Y-29088228D01*
X274939763Y-29190675D01*
X274863621Y-29241551D01*
X274714267Y-29303415D01*
X274608657Y-29347161D01*
X274518433Y-29365107D01*
X274337988Y-29401000D01*
X274062012Y-29401000D01*
X273881567Y-29365107D01*
X273791343Y-29347161D01*
X273685733Y-29303415D01*
X273536379Y-29241551D01*
X273460237Y-29190675D01*
X273306914Y-29088228D01*
X273111772Y-28893086D01*
X272958450Y-28663622D01*
X272958449Y-28663621D01*
X272852839Y-28408656D01*
X272799000Y-28137988D01*
X272799000Y-27862012D01*
X272852839Y-27591344D01*
X272958449Y-27336379D01*
X273009325Y-27260237D01*
X273111772Y-27106914D01*
X273306914Y-26911772D01*
X273536378Y-26758450D01*
X273536379Y-26758449D01*
X273685733Y-26696585D01*
X273791343Y-26652839D01*
X273881567Y-26634893D01*
X274062012Y-26599000D01*
X274337988Y-26599000D01*
X274518433Y-26634893D01*
X274518433Y-26634893D01*
G37*
G36*
X23618433Y-26634893D02*
G01*
X23708657Y-26652839D01*
X23814267Y-26696585D01*
X23963621Y-26758449D01*
X23963622Y-26758450D01*
X24193086Y-26911772D01*
X24388228Y-27106914D01*
X24490675Y-27260237D01*
X24541551Y-27336379D01*
X24647161Y-27591344D01*
X24701000Y-27862012D01*
X24701000Y-28137988D01*
X24647161Y-28408656D01*
X24541551Y-28663621D01*
X24541550Y-28663622D01*
X24388228Y-28893086D01*
X24193086Y-29088228D01*
X24039763Y-29190675D01*
X23963621Y-29241551D01*
X23814267Y-29303415D01*
X23708657Y-29347161D01*
X23618433Y-29365107D01*
X23437988Y-29401000D01*
X23162012Y-29401000D01*
X22981567Y-29365107D01*
X22891343Y-29347161D01*
X22785733Y-29303415D01*
X22636379Y-29241551D01*
X22560237Y-29190675D01*
X22406914Y-29088228D01*
X22211772Y-28893086D01*
X22058450Y-28663622D01*
X22058449Y-28663621D01*
X21952839Y-28408656D01*
X21899000Y-28137988D01*
X21899000Y-27862012D01*
X21952839Y-27591344D01*
X22058449Y-27336379D01*
X22109325Y-27260237D01*
X22211772Y-27106914D01*
X22406914Y-26911772D01*
X22636378Y-26758450D01*
X22636379Y-26758449D01*
X22785733Y-26696585D01*
X22891343Y-26652839D01*
X22981567Y-26634893D01*
X23162012Y-26599000D01*
X23437988Y-26599000D01*
X23618433Y-26634893D01*
X23618433Y-26634893D01*
G37*
M02*
