G04 #@! TF.GenerationSoftware,KiCad,Pcbnew,(5.1.4-0-10_14)*
G04 #@! TF.CreationDate,2019-11-23T21:51:22+01:00*
G04 #@! TF.ProjectId,FRONT_PANEL,46524f4e-545f-4504-914e-454c2e6b6963,rev?*
G04 #@! TF.SameCoordinates,Original*
G04 #@! TF.FileFunction,Legend,Top*
G04 #@! TF.FilePolarity,Positive*
%FSLAX46Y46*%
G04 Gerber Fmt 4.6, Leading zero omitted, Abs format (unit mm)*
G04 Created by KiCad (PCBNEW (5.1.4-0-10_14)) date 2019-11-23 21:51:22*
%MOMM*%
%LPD*%
G04 APERTURE LIST*
%ADD10C,0.150000*%
G04 APERTURE END LIST*
D10*
X49990476Y-29761904D02*
X49990476Y-24761904D01*
X51657142Y-28333333D01*
X53323809Y-24761904D01*
X53323809Y-29761904D01*
X54990476Y-24761904D02*
X56657142Y-29761904D01*
X58323809Y-24761904D01*
X59990476Y-29761904D02*
X59990476Y-24761904D01*
X61657142Y-28333333D01*
X63323809Y-24761904D01*
X63323809Y-29761904D01*
X65704761Y-27142857D02*
X67371428Y-27142857D01*
X68085714Y-29761904D02*
X65704761Y-29761904D01*
X65704761Y-24761904D01*
X68085714Y-24761904D01*
X70228571Y-29761904D02*
X70228571Y-24761904D01*
X72133333Y-24761904D01*
X72609523Y-25000000D01*
X72847619Y-25238095D01*
X73085714Y-25714285D01*
X73085714Y-26428571D01*
X72847619Y-26904761D01*
X72609523Y-27142857D01*
X72133333Y-27380952D01*
X70228571Y-27380952D01*
X75228571Y-29761904D02*
X75228571Y-24761904D01*
X84276190Y-29761904D02*
X82609523Y-27380952D01*
X81419047Y-29761904D02*
X81419047Y-24761904D01*
X83323809Y-24761904D01*
X83800000Y-25000000D01*
X84038095Y-25238095D01*
X84276190Y-25714285D01*
X84276190Y-26428571D01*
X84038095Y-26904761D01*
X83800000Y-27142857D01*
X83323809Y-27380952D01*
X81419047Y-27380952D01*
X88323809Y-29523809D02*
X87847619Y-29761904D01*
X86895238Y-29761904D01*
X86419047Y-29523809D01*
X86180952Y-29047619D01*
X86180952Y-27142857D01*
X86419047Y-26666666D01*
X86895238Y-26428571D01*
X87847619Y-26428571D01*
X88323809Y-26666666D01*
X88561904Y-27142857D01*
X88561904Y-27619047D01*
X86180952Y-28095238D01*
X90704761Y-29761904D02*
X90704761Y-26428571D01*
X90704761Y-26904761D02*
X90942857Y-26666666D01*
X91419047Y-26428571D01*
X92133333Y-26428571D01*
X92609523Y-26666666D01*
X92847619Y-27142857D01*
X92847619Y-29761904D01*
X92847619Y-27142857D02*
X93085714Y-26666666D01*
X93561904Y-26428571D01*
X94276190Y-26428571D01*
X94752380Y-26666666D01*
X94990476Y-27142857D01*
X94990476Y-29761904D01*
X98085714Y-29761904D02*
X97609523Y-29523809D01*
X97371428Y-29285714D01*
X97133333Y-28809523D01*
X97133333Y-27380952D01*
X97371428Y-26904761D01*
X97609523Y-26666666D01*
X98085714Y-26428571D01*
X98800000Y-26428571D01*
X99276190Y-26666666D01*
X99514285Y-26904761D01*
X99752380Y-27380952D01*
X99752380Y-28809523D01*
X99514285Y-29285714D01*
X99276190Y-29523809D01*
X98800000Y-29761904D01*
X98085714Y-29761904D01*
X101180952Y-26428571D02*
X103085714Y-26428571D01*
X101895238Y-24761904D02*
X101895238Y-29047619D01*
X102133333Y-29523809D01*
X102609523Y-29761904D01*
X103085714Y-29761904D01*
X106657142Y-29523809D02*
X106180952Y-29761904D01*
X105228571Y-29761904D01*
X104752380Y-29523809D01*
X104514285Y-29047619D01*
X104514285Y-27142857D01*
X104752380Y-26666666D01*
X105228571Y-26428571D01*
X106180952Y-26428571D01*
X106657142Y-26666666D01*
X106895238Y-27142857D01*
X106895238Y-27619047D01*
X104514285Y-28095238D01*
X115704761Y-29285714D02*
X115466666Y-29523809D01*
X114752380Y-29761904D01*
X114276190Y-29761904D01*
X113561904Y-29523809D01*
X113085714Y-29047619D01*
X112847619Y-28571428D01*
X112609523Y-27619047D01*
X112609523Y-26904761D01*
X112847619Y-25952380D01*
X113085714Y-25476190D01*
X113561904Y-25000000D01*
X114276190Y-24761904D01*
X114752380Y-24761904D01*
X115466666Y-25000000D01*
X115704761Y-25238095D01*
X118561904Y-29761904D02*
X118085714Y-29523809D01*
X117847619Y-29285714D01*
X117609523Y-28809523D01*
X117609523Y-27380952D01*
X117847619Y-26904761D01*
X118085714Y-26666666D01*
X118561904Y-26428571D01*
X119276190Y-26428571D01*
X119752380Y-26666666D01*
X119990476Y-26904761D01*
X120228571Y-27380952D01*
X120228571Y-28809523D01*
X119990476Y-29285714D01*
X119752380Y-29523809D01*
X119276190Y-29761904D01*
X118561904Y-29761904D01*
X122371428Y-26428571D02*
X122371428Y-29761904D01*
X122371428Y-26904761D02*
X122609523Y-26666666D01*
X123085714Y-26428571D01*
X123799999Y-26428571D01*
X124276190Y-26666666D01*
X124514285Y-27142857D01*
X124514285Y-29761904D01*
X126180952Y-26428571D02*
X128085714Y-26428571D01*
X126895238Y-24761904D02*
X126895238Y-29047619D01*
X127133333Y-29523809D01*
X127609523Y-29761904D01*
X128085714Y-29761904D01*
X129752380Y-29761904D02*
X129752380Y-26428571D01*
X129752380Y-27380952D02*
X129990476Y-26904761D01*
X130228571Y-26666666D01*
X130704761Y-26428571D01*
X131180952Y-26428571D01*
X133561904Y-29761904D02*
X133085714Y-29523809D01*
X132847619Y-29285714D01*
X132609523Y-28809523D01*
X132609523Y-27380952D01*
X132847619Y-26904761D01*
X133085714Y-26666666D01*
X133561904Y-26428571D01*
X134276190Y-26428571D01*
X134752380Y-26666666D01*
X134990476Y-26904761D01*
X135228571Y-27380952D01*
X135228571Y-28809523D01*
X134990476Y-29285714D01*
X134752380Y-29523809D01*
X134276190Y-29761904D01*
X133561904Y-29761904D01*
X138085714Y-29761904D02*
X137609523Y-29523809D01*
X137371428Y-29047619D01*
X137371428Y-24761904D01*
M02*
