G04 #@! TF.GenerationSoftware,KiCad,Pcbnew,(5.1.4-0-10_14)*
G04 #@! TF.CreationDate,2019-11-23T21:51:22+01:00*
G04 #@! TF.ProjectId,FRONT_PANEL,46524f4e-545f-4504-914e-454c2e6b6963,rev?*
G04 #@! TF.SameCoordinates,Original*
G04 #@! TF.FileFunction,Copper,L1,Top*
G04 #@! TF.FilePolarity,Positive*
%FSLAX46Y46*%
G04 Gerber Fmt 4.6, Leading zero omitted, Abs format (unit mm)*
G04 Created by KiCad (PCBNEW (5.1.4-0-10_14)) date 2019-11-23 21:51:22*
%MOMM*%
%LPD*%
G04 APERTURE LIST*
%ADD10C,0.254000*%
G04 APERTURE END LIST*
D10*
G36*
X69373000Y-58873000D02*
G01*
X48627000Y-58873000D01*
X48627000Y-56300000D01*
X49047265Y-56300000D01*
X49048001Y-56307472D01*
X49048000Y-58092538D01*
X49047265Y-58100000D01*
X49050200Y-58129797D01*
X49058891Y-58158449D01*
X49073005Y-58184855D01*
X49092000Y-58208000D01*
X49115145Y-58226995D01*
X49141551Y-58241109D01*
X49170203Y-58249800D01*
X49200000Y-58252735D01*
X49207462Y-58252000D01*
X68792538Y-58252000D01*
X68800000Y-58252735D01*
X68829797Y-58249800D01*
X68858449Y-58241109D01*
X68884855Y-58226995D01*
X68908000Y-58208000D01*
X68926995Y-58184855D01*
X68941109Y-58158449D01*
X68949800Y-58129797D01*
X68952000Y-58107462D01*
X68952000Y-58107461D01*
X68952735Y-58100000D01*
X68952000Y-58092538D01*
X68952000Y-56307462D01*
X68952735Y-56300000D01*
X68949800Y-56270203D01*
X68941109Y-56241551D01*
X68926995Y-56215145D01*
X68908000Y-56192000D01*
X68884855Y-56173005D01*
X68858449Y-56158891D01*
X68829797Y-56150200D01*
X68807462Y-56148000D01*
X68800000Y-56147265D01*
X68792538Y-56148000D01*
X49207462Y-56148000D01*
X49200000Y-56147265D01*
X49192538Y-56148000D01*
X49170203Y-56150200D01*
X49141551Y-56158891D01*
X49115145Y-56173005D01*
X49092000Y-56192000D01*
X49073005Y-56215145D01*
X49058891Y-56241551D01*
X49050200Y-56270203D01*
X49047265Y-56300000D01*
X48627000Y-56300000D01*
X48627000Y-55627000D01*
X69373000Y-55627000D01*
X69373000Y-58873000D01*
X69373000Y-58873000D01*
G37*
X69373000Y-58873000D02*
X48627000Y-58873000D01*
X48627000Y-56300000D01*
X49047265Y-56300000D01*
X49048001Y-56307472D01*
X49048000Y-58092538D01*
X49047265Y-58100000D01*
X49050200Y-58129797D01*
X49058891Y-58158449D01*
X49073005Y-58184855D01*
X49092000Y-58208000D01*
X49115145Y-58226995D01*
X49141551Y-58241109D01*
X49170203Y-58249800D01*
X49200000Y-58252735D01*
X49207462Y-58252000D01*
X68792538Y-58252000D01*
X68800000Y-58252735D01*
X68829797Y-58249800D01*
X68858449Y-58241109D01*
X68884855Y-58226995D01*
X68908000Y-58208000D01*
X68926995Y-58184855D01*
X68941109Y-58158449D01*
X68949800Y-58129797D01*
X68952000Y-58107462D01*
X68952000Y-58107461D01*
X68952735Y-58100000D01*
X68952000Y-58092538D01*
X68952000Y-56307462D01*
X68952735Y-56300000D01*
X68949800Y-56270203D01*
X68941109Y-56241551D01*
X68926995Y-56215145D01*
X68908000Y-56192000D01*
X68884855Y-56173005D01*
X68858449Y-56158891D01*
X68829797Y-56150200D01*
X68807462Y-56148000D01*
X68800000Y-56147265D01*
X68792538Y-56148000D01*
X49207462Y-56148000D01*
X49200000Y-56147265D01*
X49192538Y-56148000D01*
X49170203Y-56150200D01*
X49141551Y-56158891D01*
X49115145Y-56173005D01*
X49092000Y-56192000D01*
X49073005Y-56215145D01*
X49058891Y-56241551D01*
X49050200Y-56270203D01*
X49047265Y-56300000D01*
X48627000Y-56300000D01*
X48627000Y-55627000D01*
X69373000Y-55627000D01*
X69373000Y-58873000D01*
G36*
X121873000Y-58873000D02*
G01*
X112127000Y-58873000D01*
X112127000Y-56300000D01*
X112647265Y-56300000D01*
X112648001Y-56307472D01*
X112648000Y-58092538D01*
X112647265Y-58100000D01*
X112650200Y-58129797D01*
X112658891Y-58158449D01*
X112673005Y-58184855D01*
X112692000Y-58208000D01*
X112715145Y-58226995D01*
X112741551Y-58241109D01*
X112770203Y-58249800D01*
X112800000Y-58252735D01*
X112807462Y-58252000D01*
X121192538Y-58252000D01*
X121200000Y-58252735D01*
X121229797Y-58249800D01*
X121258449Y-58241109D01*
X121284855Y-58226995D01*
X121308000Y-58208000D01*
X121326995Y-58184855D01*
X121341109Y-58158449D01*
X121349800Y-58129797D01*
X121352000Y-58107462D01*
X121352000Y-58107461D01*
X121352735Y-58100000D01*
X121352000Y-58092538D01*
X121352000Y-56307462D01*
X121352735Y-56300000D01*
X121349800Y-56270203D01*
X121341109Y-56241551D01*
X121326995Y-56215145D01*
X121308000Y-56192000D01*
X121284855Y-56173005D01*
X121258449Y-56158891D01*
X121229797Y-56150200D01*
X121207462Y-56148000D01*
X121200000Y-56147265D01*
X121192538Y-56148000D01*
X112807462Y-56148000D01*
X112800000Y-56147265D01*
X112792538Y-56148000D01*
X112770203Y-56150200D01*
X112741551Y-56158891D01*
X112715145Y-56173005D01*
X112692000Y-56192000D01*
X112673005Y-56215145D01*
X112658891Y-56241551D01*
X112650200Y-56270203D01*
X112647265Y-56300000D01*
X112127000Y-56300000D01*
X112127000Y-55627000D01*
X121873000Y-55627000D01*
X121873000Y-58873000D01*
X121873000Y-58873000D01*
G37*
X121873000Y-58873000D02*
X112127000Y-58873000D01*
X112127000Y-56300000D01*
X112647265Y-56300000D01*
X112648001Y-56307472D01*
X112648000Y-58092538D01*
X112647265Y-58100000D01*
X112650200Y-58129797D01*
X112658891Y-58158449D01*
X112673005Y-58184855D01*
X112692000Y-58208000D01*
X112715145Y-58226995D01*
X112741551Y-58241109D01*
X112770203Y-58249800D01*
X112800000Y-58252735D01*
X112807462Y-58252000D01*
X121192538Y-58252000D01*
X121200000Y-58252735D01*
X121229797Y-58249800D01*
X121258449Y-58241109D01*
X121284855Y-58226995D01*
X121308000Y-58208000D01*
X121326995Y-58184855D01*
X121341109Y-58158449D01*
X121349800Y-58129797D01*
X121352000Y-58107462D01*
X121352000Y-58107461D01*
X121352735Y-58100000D01*
X121352000Y-58092538D01*
X121352000Y-56307462D01*
X121352735Y-56300000D01*
X121349800Y-56270203D01*
X121341109Y-56241551D01*
X121326995Y-56215145D01*
X121308000Y-56192000D01*
X121284855Y-56173005D01*
X121258449Y-56158891D01*
X121229797Y-56150200D01*
X121207462Y-56148000D01*
X121200000Y-56147265D01*
X121192538Y-56148000D01*
X112807462Y-56148000D01*
X112800000Y-56147265D01*
X112792538Y-56148000D01*
X112770203Y-56150200D01*
X112741551Y-56158891D01*
X112715145Y-56173005D01*
X112692000Y-56192000D01*
X112673005Y-56215145D01*
X112658891Y-56241551D01*
X112650200Y-56270203D01*
X112647265Y-56300000D01*
X112127000Y-56300000D01*
X112127000Y-55627000D01*
X121873000Y-55627000D01*
X121873000Y-58873000D01*
G36*
X196373000Y-58873000D02*
G01*
X186627000Y-58873000D01*
X186627000Y-56300000D01*
X187047265Y-56300000D01*
X187048001Y-56307472D01*
X187048000Y-58092538D01*
X187047265Y-58100000D01*
X187050200Y-58129797D01*
X187058891Y-58158449D01*
X187073005Y-58184855D01*
X187092000Y-58208000D01*
X187115145Y-58226995D01*
X187141551Y-58241109D01*
X187170203Y-58249800D01*
X187200000Y-58252735D01*
X187207462Y-58252000D01*
X195592538Y-58252000D01*
X195600000Y-58252735D01*
X195629797Y-58249800D01*
X195658449Y-58241109D01*
X195684855Y-58226995D01*
X195708000Y-58208000D01*
X195726995Y-58184855D01*
X195741109Y-58158449D01*
X195749800Y-58129797D01*
X195752000Y-58107462D01*
X195752000Y-58107461D01*
X195752735Y-58100000D01*
X195752000Y-58092538D01*
X195752000Y-56307462D01*
X195752735Y-56300000D01*
X195749800Y-56270203D01*
X195741109Y-56241551D01*
X195726995Y-56215145D01*
X195708000Y-56192000D01*
X195684855Y-56173005D01*
X195658449Y-56158891D01*
X195629797Y-56150200D01*
X195607462Y-56148000D01*
X195600000Y-56147265D01*
X195592538Y-56148000D01*
X187207462Y-56148000D01*
X187200000Y-56147265D01*
X187192538Y-56148000D01*
X187170203Y-56150200D01*
X187141551Y-56158891D01*
X187115145Y-56173005D01*
X187092000Y-56192000D01*
X187073005Y-56215145D01*
X187058891Y-56241551D01*
X187050200Y-56270203D01*
X187047265Y-56300000D01*
X186627000Y-56300000D01*
X186627000Y-55627000D01*
X196373000Y-55627000D01*
X196373000Y-58873000D01*
X196373000Y-58873000D01*
G37*
X196373000Y-58873000D02*
X186627000Y-58873000D01*
X186627000Y-56300000D01*
X187047265Y-56300000D01*
X187048001Y-56307472D01*
X187048000Y-58092538D01*
X187047265Y-58100000D01*
X187050200Y-58129797D01*
X187058891Y-58158449D01*
X187073005Y-58184855D01*
X187092000Y-58208000D01*
X187115145Y-58226995D01*
X187141551Y-58241109D01*
X187170203Y-58249800D01*
X187200000Y-58252735D01*
X187207462Y-58252000D01*
X195592538Y-58252000D01*
X195600000Y-58252735D01*
X195629797Y-58249800D01*
X195658449Y-58241109D01*
X195684855Y-58226995D01*
X195708000Y-58208000D01*
X195726995Y-58184855D01*
X195741109Y-58158449D01*
X195749800Y-58129797D01*
X195752000Y-58107462D01*
X195752000Y-58107461D01*
X195752735Y-58100000D01*
X195752000Y-58092538D01*
X195752000Y-56307462D01*
X195752735Y-56300000D01*
X195749800Y-56270203D01*
X195741109Y-56241551D01*
X195726995Y-56215145D01*
X195708000Y-56192000D01*
X195684855Y-56173005D01*
X195658449Y-56158891D01*
X195629797Y-56150200D01*
X195607462Y-56148000D01*
X195600000Y-56147265D01*
X195592538Y-56148000D01*
X187207462Y-56148000D01*
X187200000Y-56147265D01*
X187192538Y-56148000D01*
X187170203Y-56150200D01*
X187141551Y-56158891D01*
X187115145Y-56173005D01*
X187092000Y-56192000D01*
X187073005Y-56215145D01*
X187058891Y-56241551D01*
X187050200Y-56270203D01*
X187047265Y-56300000D01*
X186627000Y-56300000D01*
X186627000Y-55627000D01*
X196373000Y-55627000D01*
X196373000Y-58873000D01*
G36*
X252873000Y-58873000D02*
G01*
X232127000Y-58873000D01*
X232127000Y-56300000D01*
X232447265Y-56300000D01*
X232448000Y-56307462D01*
X232448001Y-58092528D01*
X232447265Y-58100000D01*
X232450200Y-58129797D01*
X232458891Y-58158449D01*
X232473005Y-58184855D01*
X232492000Y-58208000D01*
X232515145Y-58226995D01*
X232541551Y-58241109D01*
X232570203Y-58249800D01*
X232592538Y-58252000D01*
X232600000Y-58252735D01*
X232607462Y-58252000D01*
X252392538Y-58252000D01*
X252400000Y-58252735D01*
X252407462Y-58252000D01*
X252429797Y-58249800D01*
X252458449Y-58241109D01*
X252484855Y-58226995D01*
X252508000Y-58208000D01*
X252526995Y-58184855D01*
X252541109Y-58158449D01*
X252549800Y-58129797D01*
X252552735Y-58100000D01*
X252552000Y-58092538D01*
X252552000Y-56307462D01*
X252552735Y-56300000D01*
X252549800Y-56270203D01*
X252541109Y-56241551D01*
X252526995Y-56215145D01*
X252508000Y-56192000D01*
X252484855Y-56173005D01*
X252458449Y-56158891D01*
X252429797Y-56150200D01*
X252407462Y-56148000D01*
X252400000Y-56147265D01*
X252392538Y-56148000D01*
X232607462Y-56148000D01*
X232600000Y-56147265D01*
X232592538Y-56148000D01*
X232570203Y-56150200D01*
X232541551Y-56158891D01*
X232515145Y-56173005D01*
X232492000Y-56192000D01*
X232473005Y-56215145D01*
X232458891Y-56241551D01*
X232450200Y-56270203D01*
X232447265Y-56300000D01*
X232127000Y-56300000D01*
X232127000Y-55627000D01*
X252873000Y-55627000D01*
X252873000Y-58873000D01*
X252873000Y-58873000D01*
G37*
X252873000Y-58873000D02*
X232127000Y-58873000D01*
X232127000Y-56300000D01*
X232447265Y-56300000D01*
X232448000Y-56307462D01*
X232448001Y-58092528D01*
X232447265Y-58100000D01*
X232450200Y-58129797D01*
X232458891Y-58158449D01*
X232473005Y-58184855D01*
X232492000Y-58208000D01*
X232515145Y-58226995D01*
X232541551Y-58241109D01*
X232570203Y-58249800D01*
X232592538Y-58252000D01*
X232600000Y-58252735D01*
X232607462Y-58252000D01*
X252392538Y-58252000D01*
X252400000Y-58252735D01*
X252407462Y-58252000D01*
X252429797Y-58249800D01*
X252458449Y-58241109D01*
X252484855Y-58226995D01*
X252508000Y-58208000D01*
X252526995Y-58184855D01*
X252541109Y-58158449D01*
X252549800Y-58129797D01*
X252552735Y-58100000D01*
X252552000Y-58092538D01*
X252552000Y-56307462D01*
X252552735Y-56300000D01*
X252549800Y-56270203D01*
X252541109Y-56241551D01*
X252526995Y-56215145D01*
X252508000Y-56192000D01*
X252484855Y-56173005D01*
X252458449Y-56158891D01*
X252429797Y-56150200D01*
X252407462Y-56148000D01*
X252400000Y-56147265D01*
X252392538Y-56148000D01*
X232607462Y-56148000D01*
X232600000Y-56147265D01*
X232592538Y-56148000D01*
X232570203Y-56150200D01*
X232541551Y-56158891D01*
X232515145Y-56173005D01*
X232492000Y-56192000D01*
X232473005Y-56215145D01*
X232458891Y-56241551D01*
X232450200Y-56270203D01*
X232447265Y-56300000D01*
X232127000Y-56300000D01*
X232127000Y-55627000D01*
X252873000Y-55627000D01*
X252873000Y-58873000D01*
M02*
