G04 #@! TF.GenerationSoftware,KiCad,Pcbnew,(5.1.4-0-10_14)*
G04 #@! TF.CreationDate,2019-11-30T00:23:10+01:00*
G04 #@! TF.ProjectId,Eurocard_3U_VME,4575726f-6361-4726-945f-33555f564d45,rev?*
G04 #@! TF.SameCoordinates,Original*
G04 #@! TF.FileFunction,Legend,Top*
G04 #@! TF.FilePolarity,Positive*
%FSLAX46Y46*%
G04 Gerber Fmt 4.6, Leading zero omitted, Abs format (unit mm)*
G04 Created by KiCad (PCBNEW (5.1.4-0-10_14)) date 2019-11-30 00:23:10*
%MOMM*%
%LPD*%
G04 APERTURE LIST*
%ADD10C,0.120000*%
%ADD11C,0.300000*%
%ADD12C,0.150000*%
G04 APERTURE END LIST*
D10*
X81946000Y-167134000D02*
X81946000Y-40134000D01*
X153066000Y-65534000D02*
X71786000Y-65534000D01*
X92106000Y-40134000D02*
X92106000Y-167134000D01*
X71786000Y-154434000D02*
X153066000Y-154434000D01*
X153066000Y-116334000D02*
X71786000Y-116334000D01*
X71786000Y-129034000D02*
X153066000Y-129034000D01*
X122586000Y-40134000D02*
X122586000Y-167134000D01*
X153066000Y-40134000D02*
X153066000Y-167134000D01*
X112426000Y-167134000D02*
X112426000Y-40134000D01*
X142906000Y-40134000D02*
X142906000Y-167134000D01*
X153066000Y-141734000D02*
X71786000Y-141734000D01*
X71786000Y-40134000D02*
X153066000Y-40134000D01*
X153066000Y-90934000D02*
X71786000Y-90934000D01*
X71786000Y-103634000D02*
X153066000Y-103634000D01*
X71786000Y-167134000D02*
X71786000Y-40134000D01*
X132746000Y-167134000D02*
X132746000Y-40134000D01*
X102266000Y-40134000D02*
X102266000Y-167134000D01*
X153066000Y-167134000D02*
X71786000Y-167134000D01*
X71786000Y-78234000D02*
X153066000Y-78234000D01*
X71786000Y-52834000D02*
X153066000Y-52834000D01*
D11*
X153379571Y-186023428D02*
X153379571Y-186809142D01*
X153451000Y-186952000D01*
X153593857Y-187023428D01*
X153879571Y-187023428D01*
X154022428Y-186952000D01*
X153379571Y-186094857D02*
X153522428Y-186023428D01*
X153879571Y-186023428D01*
X154022428Y-186094857D01*
X154093857Y-186237714D01*
X154093857Y-186380571D01*
X154022428Y-186523428D01*
X153879571Y-186594857D01*
X153522428Y-186594857D01*
X153379571Y-186666285D01*
X154022428Y-183473428D02*
X154022428Y-184973428D01*
X154022428Y-184402000D02*
X153879571Y-184473428D01*
X153593857Y-184473428D01*
X153451000Y-184402000D01*
X153379571Y-184330571D01*
X153308142Y-184187714D01*
X153308142Y-183759142D01*
X153379571Y-183616285D01*
X153451000Y-183544857D01*
X153593857Y-183473428D01*
X153879571Y-183473428D01*
X154022428Y-183544857D01*
X153343857Y-180994857D02*
X153486714Y-180923428D01*
X153772428Y-180923428D01*
X153915285Y-180994857D01*
X153986714Y-181066285D01*
X154058142Y-181209142D01*
X154058142Y-181637714D01*
X153986714Y-181780571D01*
X153915285Y-181852000D01*
X153772428Y-181923428D01*
X153486714Y-181923428D01*
X153343857Y-181852000D01*
X70194571Y-186023428D02*
X70194571Y-186809142D01*
X70266000Y-186952000D01*
X70408857Y-187023428D01*
X70694571Y-187023428D01*
X70837428Y-186952000D01*
X70194571Y-186094857D02*
X70337428Y-186023428D01*
X70694571Y-186023428D01*
X70837428Y-186094857D01*
X70908857Y-186237714D01*
X70908857Y-186380571D01*
X70837428Y-186523428D01*
X70694571Y-186594857D01*
X70337428Y-186594857D01*
X70194571Y-186666285D01*
X70837428Y-183473428D02*
X70837428Y-184973428D01*
X70837428Y-184402000D02*
X70694571Y-184473428D01*
X70408857Y-184473428D01*
X70266000Y-184402000D01*
X70194571Y-184330571D01*
X70123142Y-184187714D01*
X70123142Y-183759142D01*
X70194571Y-183616285D01*
X70266000Y-183544857D01*
X70408857Y-183473428D01*
X70694571Y-183473428D01*
X70837428Y-183544857D01*
X70158857Y-180994857D02*
X70301714Y-180923428D01*
X70587428Y-180923428D01*
X70730285Y-180994857D01*
X70801714Y-181066285D01*
X70873142Y-181209142D01*
X70873142Y-181637714D01*
X70801714Y-181780571D01*
X70730285Y-181852000D01*
X70587428Y-181923428D01*
X70301714Y-181923428D01*
X70158857Y-181852000D01*
X70194571Y-175355428D02*
X70194571Y-176141142D01*
X70266000Y-176284000D01*
X70408857Y-176355428D01*
X70694571Y-176355428D01*
X70837428Y-176284000D01*
X70194571Y-175426857D02*
X70337428Y-175355428D01*
X70694571Y-175355428D01*
X70837428Y-175426857D01*
X70908857Y-175569714D01*
X70908857Y-175712571D01*
X70837428Y-175855428D01*
X70694571Y-175926857D01*
X70337428Y-175926857D01*
X70194571Y-175998285D01*
X70837428Y-172805428D02*
X70837428Y-174305428D01*
X70837428Y-173734000D02*
X70694571Y-173805428D01*
X70408857Y-173805428D01*
X70266000Y-173734000D01*
X70194571Y-173662571D01*
X70123142Y-173519714D01*
X70123142Y-173091142D01*
X70194571Y-172948285D01*
X70266000Y-172876857D01*
X70408857Y-172805428D01*
X70694571Y-172805428D01*
X70837428Y-172876857D01*
X70158857Y-170326857D02*
X70301714Y-170255428D01*
X70587428Y-170255428D01*
X70730285Y-170326857D01*
X70801714Y-170398285D01*
X70873142Y-170541142D01*
X70873142Y-170969714D01*
X70801714Y-171112571D01*
X70730285Y-171184000D01*
X70587428Y-171255428D01*
X70301714Y-171255428D01*
X70158857Y-171184000D01*
X153379571Y-175355428D02*
X153379571Y-176141142D01*
X153451000Y-176284000D01*
X153593857Y-176355428D01*
X153879571Y-176355428D01*
X154022428Y-176284000D01*
X153379571Y-175426857D02*
X153522428Y-175355428D01*
X153879571Y-175355428D01*
X154022428Y-175426857D01*
X154093857Y-175569714D01*
X154093857Y-175712571D01*
X154022428Y-175855428D01*
X153879571Y-175926857D01*
X153522428Y-175926857D01*
X153379571Y-175998285D01*
X154022428Y-172805428D02*
X154022428Y-174305428D01*
X154022428Y-173734000D02*
X153879571Y-173805428D01*
X153593857Y-173805428D01*
X153451000Y-173734000D01*
X153379571Y-173662571D01*
X153308142Y-173519714D01*
X153308142Y-173091142D01*
X153379571Y-172948285D01*
X153451000Y-172876857D01*
X153593857Y-172805428D01*
X153879571Y-172805428D01*
X154022428Y-172876857D01*
X153343857Y-170326857D02*
X153486714Y-170255428D01*
X153772428Y-170255428D01*
X153915285Y-170326857D01*
X153986714Y-170398285D01*
X154058142Y-170541142D01*
X154058142Y-170969714D01*
X153986714Y-171112571D01*
X153915285Y-171184000D01*
X153772428Y-171255428D01*
X153486714Y-171255428D01*
X153343857Y-171184000D01*
D12*
X150867595Y-178619619D02*
X151439023Y-178619619D01*
X151153309Y-178619619D02*
X151153309Y-179619619D01*
X151248547Y-179476761D01*
X151343785Y-179381523D01*
X151439023Y-179333904D01*
X140819976Y-179619619D02*
X141296166Y-179619619D01*
X141343785Y-179143428D01*
X141296166Y-179191047D01*
X141200928Y-179238666D01*
X140962833Y-179238666D01*
X140867595Y-179191047D01*
X140819976Y-179143428D01*
X140772357Y-179048190D01*
X140772357Y-178810095D01*
X140819976Y-178714857D01*
X140867595Y-178667238D01*
X140962833Y-178619619D01*
X141200928Y-178619619D01*
X141296166Y-178667238D01*
X141343785Y-178714857D01*
X129153309Y-178619619D02*
X129724738Y-178619619D01*
X129439023Y-178619619D02*
X129439023Y-179619619D01*
X129534261Y-179476761D01*
X129629499Y-179381523D01*
X129724738Y-179333904D01*
X128534261Y-179619619D02*
X128439023Y-179619619D01*
X128343785Y-179572000D01*
X128296166Y-179524380D01*
X128248547Y-179429142D01*
X128200928Y-179238666D01*
X128200928Y-179000571D01*
X128248547Y-178810095D01*
X128296166Y-178714857D01*
X128343785Y-178667238D01*
X128439023Y-178619619D01*
X128534261Y-178619619D01*
X128629499Y-178667238D01*
X128677119Y-178714857D01*
X128724738Y-178810095D01*
X128772357Y-179000571D01*
X128772357Y-179238666D01*
X128724738Y-179429142D01*
X128677119Y-179524380D01*
X128629499Y-179572000D01*
X128534261Y-179619619D01*
X115819976Y-178619619D02*
X116391404Y-178619619D01*
X116105690Y-178619619D02*
X116105690Y-179619619D01*
X116200928Y-179476761D01*
X116296166Y-179381523D01*
X116391404Y-179333904D01*
X114915214Y-179619619D02*
X115391404Y-179619619D01*
X115439023Y-179143428D01*
X115391404Y-179191047D01*
X115296166Y-179238666D01*
X115058071Y-179238666D01*
X114962833Y-179191047D01*
X114915214Y-179143428D01*
X114867595Y-179048190D01*
X114867595Y-178810095D01*
X114915214Y-178714857D01*
X114962833Y-178667238D01*
X115058071Y-178619619D01*
X115296166Y-178619619D01*
X115391404Y-178667238D01*
X115439023Y-178714857D01*
X103819976Y-179524380D02*
X103772357Y-179572000D01*
X103677119Y-179619619D01*
X103439023Y-179619619D01*
X103343785Y-179572000D01*
X103296166Y-179524380D01*
X103248547Y-179429142D01*
X103248547Y-179333904D01*
X103296166Y-179191047D01*
X103867595Y-178619619D01*
X103248547Y-178619619D01*
X102629499Y-179619619D02*
X102534261Y-179619619D01*
X102439023Y-179572000D01*
X102391404Y-179524380D01*
X102343785Y-179429142D01*
X102296166Y-179238666D01*
X102296166Y-179000571D01*
X102343785Y-178810095D01*
X102391404Y-178714857D01*
X102439023Y-178667238D01*
X102534261Y-178619619D01*
X102629499Y-178619619D01*
X102724738Y-178667238D01*
X102772357Y-178714857D01*
X102819976Y-178810095D01*
X102867595Y-179000571D01*
X102867595Y-179238666D01*
X102819976Y-179429142D01*
X102772357Y-179524380D01*
X102724738Y-179572000D01*
X102629499Y-179619619D01*
X91248547Y-179524380D02*
X91200928Y-179572000D01*
X91105690Y-179619619D01*
X90867595Y-179619619D01*
X90772357Y-179572000D01*
X90724738Y-179524380D01*
X90677119Y-179429142D01*
X90677119Y-179333904D01*
X90724738Y-179191047D01*
X91296166Y-178619619D01*
X90677119Y-178619619D01*
X89772357Y-179619619D02*
X90248547Y-179619619D01*
X90296166Y-179143428D01*
X90248547Y-179191047D01*
X90153309Y-179238666D01*
X89915214Y-179238666D01*
X89819976Y-179191047D01*
X89772357Y-179143428D01*
X89724738Y-179048190D01*
X89724738Y-178810095D01*
X89772357Y-178714857D01*
X89819976Y-178667238D01*
X89915214Y-178619619D01*
X90153309Y-178619619D01*
X90248547Y-178667238D01*
X90296166Y-178714857D01*
X73391404Y-179619619D02*
X72772357Y-179619619D01*
X73105690Y-179238666D01*
X72962833Y-179238666D01*
X72867595Y-179191047D01*
X72819976Y-179143428D01*
X72772357Y-179048190D01*
X72772357Y-178810095D01*
X72819976Y-178714857D01*
X72867595Y-178667238D01*
X72962833Y-178619619D01*
X73248547Y-178619619D01*
X73343785Y-178667238D01*
X73391404Y-178714857D01*
X72391404Y-179524380D02*
X72343785Y-179572000D01*
X72248547Y-179619619D01*
X72010452Y-179619619D01*
X71915214Y-179572000D01*
X71867595Y-179524380D01*
X71819976Y-179429142D01*
X71819976Y-179333904D01*
X71867595Y-179191047D01*
X72439023Y-178619619D01*
X71819976Y-178619619D01*
X70801714Y-134931619D02*
X70801714Y-135931619D01*
X70801714Y-135455428D02*
X70230285Y-135455428D01*
X70230285Y-134931619D02*
X70230285Y-135931619D01*
X70254095Y-123184000D02*
X70349333Y-123231619D01*
X70492190Y-123231619D01*
X70635047Y-123184000D01*
X70730285Y-123088761D01*
X70777904Y-122993523D01*
X70825523Y-122803047D01*
X70825523Y-122660190D01*
X70777904Y-122469714D01*
X70730285Y-122374476D01*
X70635047Y-122279238D01*
X70492190Y-122231619D01*
X70396952Y-122231619D01*
X70254095Y-122279238D01*
X70206476Y-122326857D01*
X70206476Y-122660190D01*
X70396952Y-122660190D01*
X70206476Y-71526857D02*
X70254095Y-71479238D01*
X70396952Y-71431619D01*
X70492190Y-71431619D01*
X70635047Y-71479238D01*
X70730285Y-71574476D01*
X70777904Y-71669714D01*
X70825523Y-71860190D01*
X70825523Y-72003047D01*
X70777904Y-72193523D01*
X70730285Y-72288761D01*
X70635047Y-72384000D01*
X70492190Y-72431619D01*
X70396952Y-72431619D01*
X70254095Y-72384000D01*
X70206476Y-72336380D01*
X70754095Y-46317333D02*
X70277904Y-46317333D01*
X70849333Y-46031619D02*
X70516000Y-47031619D01*
X70182666Y-46031619D01*
X70730285Y-97355428D02*
X70396952Y-97355428D01*
X70254095Y-96831619D02*
X70730285Y-96831619D01*
X70730285Y-97831619D01*
X70254095Y-97831619D01*
X70444571Y-59255428D02*
X70301714Y-59207809D01*
X70254095Y-59160190D01*
X70206476Y-59064952D01*
X70206476Y-58922095D01*
X70254095Y-58826857D01*
X70301714Y-58779238D01*
X70396952Y-58731619D01*
X70777904Y-58731619D01*
X70777904Y-59731619D01*
X70444571Y-59731619D01*
X70349333Y-59684000D01*
X70301714Y-59636380D01*
X70254095Y-59541142D01*
X70254095Y-59445904D01*
X70301714Y-59350666D01*
X70349333Y-59303047D01*
X70444571Y-59255428D01*
X70777904Y-59255428D01*
X70373142Y-110055428D02*
X70706476Y-110055428D01*
X70706476Y-109531619D02*
X70706476Y-110531619D01*
X70230285Y-110531619D01*
X70777904Y-84131619D02*
X70777904Y-85131619D01*
X70539809Y-85131619D01*
X70396952Y-85084000D01*
X70301714Y-84988761D01*
X70254095Y-84893523D01*
X70206476Y-84703047D01*
X70206476Y-84560190D01*
X70254095Y-84369714D01*
X70301714Y-84274476D01*
X70396952Y-84179238D01*
X70539809Y-84131619D01*
X70777904Y-84131619D01*
X70516000Y-147631619D02*
X70516000Y-148631619D01*
X70373142Y-161331619D02*
X70373142Y-160617333D01*
X70420761Y-160474476D01*
X70516000Y-160379238D01*
X70658857Y-160331619D01*
X70754095Y-160331619D01*
X148081238Y-38983047D02*
X148176476Y-39030666D01*
X148224095Y-39078285D01*
X148271714Y-39173523D01*
X148271714Y-39221142D01*
X148224095Y-39316380D01*
X148176476Y-39364000D01*
X148081238Y-39411619D01*
X147890761Y-39411619D01*
X147795523Y-39364000D01*
X147747904Y-39316380D01*
X147700285Y-39221142D01*
X147700285Y-39173523D01*
X147747904Y-39078285D01*
X147795523Y-39030666D01*
X147890761Y-38983047D01*
X148081238Y-38983047D01*
X148176476Y-38935428D01*
X148224095Y-38887809D01*
X148271714Y-38792571D01*
X148271714Y-38602095D01*
X148224095Y-38506857D01*
X148176476Y-38459238D01*
X148081238Y-38411619D01*
X147890761Y-38411619D01*
X147795523Y-38459238D01*
X147747904Y-38506857D01*
X147700285Y-38602095D01*
X147700285Y-38792571D01*
X147747904Y-38887809D01*
X147795523Y-38935428D01*
X147890761Y-38983047D01*
X138159333Y-39411619D02*
X137492666Y-39411619D01*
X137921238Y-38411619D01*
X127475523Y-39411619D02*
X127666000Y-39411619D01*
X127761238Y-39364000D01*
X127808857Y-39316380D01*
X127904095Y-39173523D01*
X127951714Y-38983047D01*
X127951714Y-38602095D01*
X127904095Y-38506857D01*
X127856476Y-38459238D01*
X127761238Y-38411619D01*
X127570761Y-38411619D01*
X127475523Y-38459238D01*
X127427904Y-38506857D01*
X127380285Y-38602095D01*
X127380285Y-38840190D01*
X127427904Y-38935428D01*
X127475523Y-38983047D01*
X127570761Y-39030666D01*
X127761238Y-39030666D01*
X127856476Y-38983047D01*
X127904095Y-38935428D01*
X127951714Y-38840190D01*
X117267904Y-39411619D02*
X117744095Y-39411619D01*
X117791714Y-38935428D01*
X117744095Y-38983047D01*
X117648857Y-39030666D01*
X117410761Y-39030666D01*
X117315523Y-38983047D01*
X117267904Y-38935428D01*
X117220285Y-38840190D01*
X117220285Y-38602095D01*
X117267904Y-38506857D01*
X117315523Y-38459238D01*
X117410761Y-38411619D01*
X117648857Y-38411619D01*
X117744095Y-38459238D01*
X117791714Y-38506857D01*
X107155523Y-39078285D02*
X107155523Y-38411619D01*
X107393619Y-39459238D02*
X107631714Y-38744952D01*
X107012666Y-38744952D01*
X97519333Y-39411619D02*
X96900285Y-39411619D01*
X97233619Y-39030666D01*
X97090761Y-39030666D01*
X96995523Y-38983047D01*
X96947904Y-38935428D01*
X96900285Y-38840190D01*
X96900285Y-38602095D01*
X96947904Y-38506857D01*
X96995523Y-38459238D01*
X97090761Y-38411619D01*
X97376476Y-38411619D01*
X97471714Y-38459238D01*
X97519333Y-38506857D01*
X87311714Y-39316380D02*
X87264095Y-39364000D01*
X87168857Y-39411619D01*
X86930761Y-39411619D01*
X86835523Y-39364000D01*
X86787904Y-39316380D01*
X86740285Y-39221142D01*
X86740285Y-39125904D01*
X86787904Y-38983047D01*
X87359333Y-38411619D01*
X86740285Y-38411619D01*
X76580285Y-38411619D02*
X77151714Y-38411619D01*
X76866000Y-38411619D02*
X76866000Y-39411619D01*
X76961238Y-39268761D01*
X77056476Y-39173523D01*
X77151714Y-39125904D01*
X153876000Y-187164000D02*
X153876000Y-186664000D01*
X153876000Y-186664000D02*
X159076000Y-186664000D01*
X159076000Y-186664000D02*
X159076000Y-191764000D01*
X70076000Y-187164000D02*
X70076000Y-186664000D01*
X70076000Y-186664000D02*
X64876000Y-186664000D01*
X64876000Y-186664000D02*
X64876000Y-191764000D01*
D10*
X152696000Y-186724000D02*
X153296000Y-187024000D01*
X153296000Y-187024000D02*
X153296000Y-186424000D01*
X153296000Y-186424000D02*
X152696000Y-186724000D01*
D12*
X156759333Y-186001619D02*
X156759333Y-185287333D01*
X156806952Y-185144476D01*
X156902190Y-185049238D01*
X157045047Y-185001619D01*
X157140285Y-185001619D01*
X155759333Y-185001619D02*
X156330761Y-185001619D01*
X156045047Y-185001619D02*
X156045047Y-186001619D01*
X156140285Y-185858761D01*
X156235523Y-185763523D01*
X156330761Y-185715904D01*
M02*
