M48
; DRILL file {KiCad (5.1.4-0-10_14)} date Saturday, 30 November 2019 at 00:23:14
; FORMAT={-:-/ absolute / inch / decimal}
; #@! TF.CreationDate,2019-11-30T00:23:14+01:00
; #@! TF.GenerationSoftware,Kicad,Pcbnew,(5.1.4-0-10_14)
FMAT,2
INCH
T1C0.0394
T2C0.1063
T3C0.1102
%
G90
G05
T1
X4.1762Y-1.9301
X3.0762Y-1.9301
X4.8762Y-2.0301
X5.4762Y-2.4301
X3.8762Y-2.7301
X4.7762Y-2.5301
X4.7762Y-2.9301
X3.5762Y-3.5301
X3.4762Y-3.5301
X4.3762Y-3.6301
X3.2762Y-3.8301
X2.9762Y-4.0301
X5.0762Y-4.9301
X3.4762Y-4.2301
X3.0762Y-2.0301
X5.6762Y-2.1301
X3.6762Y-2.1301
X3.7762Y-1.7301
X3.8762Y-2.4301
X3.6762Y-2.6301
X3.5762Y-2.6301
X5.9762Y-2.7301
X5.7762Y-2.2301
X5.6762Y-2.2301
X4.3762Y-2.2301
X4.5762Y-2.3301
X4.4762Y-2.3301
X3.1762Y-2.3301
X3.5762Y-2.5301
X3.8762Y-2.8301
X3.7762Y-2.8301
X3.3762Y-2.9301
X4.9762Y-3.2301
X3.9762Y-3.2301
X4.8762Y-3.3301
X4.7762Y-3.3301
X5.3762Y-3.1301
X5.9762Y-3.5301
X5.8762Y-3.5301
X3.0762Y-3.6301
X2.9762Y-3.6301
X5.9762Y-3.7301
X5.4762Y-3.1301
X3.6762Y-3.0301
X5.0762Y-4.1301
X4.3762Y-3.8301
X3.9762Y-4.1301
X4.1762Y-4.5301
X4.1762Y-3.1301
X5.6762Y-3.2301
X3.7762Y-3.8301
X4.9762Y-3.9301
X5.0762Y-4.3301
X5.5762Y-3.8301
X5.6762Y-4.0301
X5.0762Y-4.0301
X4.9762Y-4.0301
X5.1762Y-4.2301
X5.0762Y-4.2301
X5.6762Y-3.8301
X3.7762Y-4.3301
X4.7762Y-4.4301
X3.4762Y-4.4301
X5.1762Y-4.4301
X4.9762Y-4.6301
X3.9762Y-1.9301
X3.3762Y-4.7301
X3.2762Y-4.7301
X5.9762Y-4.8301
X4.0762Y-5.9301
X3.4762Y-4.8301
X4.9762Y-5.4301
X4.7762Y-5.5301
X4.0762Y-5.0301
X3.9762Y-5.0301
X3.5762Y-5.3301
X3.4762Y-5.5301
X4.4762Y-4.8301
X3.5762Y-4.6301
X5.7762Y-4.7301
X4.5762Y-4.8301
X5.8762Y-5.5301
X5.6762Y-5.1301
X5.5762Y-5.1301
X4.5762Y-5.1301
X3.4762Y-5.1301
X3.3762Y-5.1301
X4.9762Y-5.2301
X3.7762Y-5.2301
X3.6762Y-5.2301
X4.9762Y-5.3301
X5.2762Y-5.6301
X5.1762Y-5.6301
X3.9762Y-5.6301
X5.1762Y-5.7301
X3.5762Y-5.7301
X3.4762Y-5.7301
X4.7762Y-5.8301
X3.6762Y-4.6301
X3.3762Y-5.8301
X5.5762Y-6.1301
X5.4762Y-6.1301
X5.7762Y-6.0301
X3.6762Y-6.2301
X3.5762Y-6.2301
X5.7762Y-6.3301
X4.4762Y-6.9301
X4.2762Y-6.1301
X5.5762Y-6.5301
X5.4762Y-6.5301
X4.5762Y-6.3301
X4.4762Y-6.3301
X3.3762Y-6.3301
X4.3762Y-6.7301
X5.9762Y-6.8301
X3.4762Y-6.8301
X3.3762Y-6.8301
X6.1754Y-6.9261
X4.9762Y-6.0301
X2.6762Y-4.2301
X2.6762Y-5.6301
X6.1754Y-2.8261
X3.4762Y-1.6301
X5.2762Y-1.6301
X4.0762Y-1.8301
X5.0762Y-1.9301
X4.8762Y-2.6301
X4.9762Y-2.7301
X5.8762Y-2.2301
X4.5762Y-2.2301
X4.4762Y-2.2301
X5.9762Y-3.0301
X5.0762Y-3.2301
X4.4762Y-2.1301
X5.3762Y-2.3301
X5.3762Y-3.4301
X5.8762Y-2.5301
X5.0762Y-2.8301
X5.8762Y-2.9301
X5.8762Y-3.0301
X3.4762Y-3.3301
X3.3762Y-3.3301
X4.6762Y-3.5301
X5.5762Y-3.6301
X3.9762Y-6.5301
X4.0762Y-6.5301
X6.1754Y-4.0261
X5.4762Y-3.6301
X4.5762Y-2.5301
X3.4762Y-3.4301
X5.9762Y-3.9301
X3.1762Y-3.9301
X4.5762Y-2.9301
X5.7762Y-4.0301
X4.9762Y-1.7301
X5.7762Y-3.2301
X2.8762Y-3.1301
X4.2762Y-4.0301
X3.8762Y-6.4301
X2.9762Y-6.7301
X2.6762Y-3.1301
X3.5762Y-1.7301
X5.2762Y-2.4301
X5.1762Y-2.4301
X3.6762Y-2.7301
X4.1762Y-3.6301
X4.2762Y-3.1301
X4.4762Y-2.0301
X3.7762Y-3.0301
X3.6762Y-4.2301
X3.0762Y-6.0301
X3.2762Y-3.5301
X3.5762Y-4.2301
X3.0762Y-6.9301
X3.0762Y-3.8301
X3.6762Y-2.4301
X4.4762Y-3.8301
X4.0762Y-4.1301
X5.2762Y-4.4301
X5.1762Y-4.6301
X5.0762Y-4.6301
X3.7762Y-4.6301
X5.8762Y-4.7301
X4.6762Y-4.8301
X5.9762Y-5.5301
X3.6762Y-5.7301
X3.4762Y-5.8301
X5.9762Y-6.2301
X5.7762Y-6.7301
X5.6762Y-6.7301
X4.5762Y-6.8301
X6.1754Y-5.3261
X2.9762Y-1.9301
X2.8762Y-1.9301
X2.9762Y-2.0301
X5.5762Y-2.1301
X3.5762Y-2.1301
X3.6762Y-1.7301
X3.7762Y-2.4301
X3.1762Y-2.2301
X3.0762Y-2.2301
X4.3762Y-2.3301
X3.4762Y-2.5301
X3.6762Y-2.8301
X3.2762Y-2.9301
X4.5762Y-3.7301
X3.3762Y-3.7301
X4.4762Y-4.7301
X5.3762Y-5.0301
X3.6762Y-5.4301
X5.1762Y-5.9301
X3.2762Y-4.9301
X5.0762Y-6.4301
X4.6762Y-6.2301
X4.5762Y-6.2301
X2.8762Y-6.7301
X3.8762Y-3.2301
X4.6762Y-3.3301
X2.8762Y-3.6301
X4.8762Y-3.9301
X4.9762Y-4.2301
X4.9762Y-4.3301
X4.6762Y-4.4301
X4.5762Y-4.4301
X3.3762Y-4.8301
X3.2762Y-4.8301
X4.8762Y-5.4301
X3.4762Y-2.6301
X2.8762Y-2.2301
X5.2762Y-3.1301
X5.6762Y-6.0301
X4.9762Y-4.1301
X3.8762Y-5.0301
X3.4762Y-5.3301
X4.6762Y-5.5301
X5.4762Y-6.9301
X3.4762Y-6.0301
X3.0762Y-2.3301
X2.9762Y-2.3301
X5.8762Y-3.7301
X4.9762Y-3.0301
X4.8762Y-3.0301
X3.6762Y-4.3301
X3.3762Y-4.4301
X5.0762Y-4.5301
X3.3762Y-5.5301
X5.4762Y-5.1301
X3.2762Y-5.1301
X2.6762Y-1.6301
X5.4762Y-3.8301
X4.8762Y-5.2301
X4.7762Y-5.2301
X5.5762Y-2.2301
X4.7762Y-4.9301
X3.9762Y-4.5301
X3.0762Y-4.7301
X5.7762Y-4.8301
X3.8762Y-5.9301
X4.3762Y-5.1301
X3.4762Y-5.2301
X4.9762Y-5.6301
X4.8762Y-5.7301
X5.2762Y-6.1301
X3.3762Y-6.2301
X5.5762Y-6.3301
X4.3762Y-6.3301
X4.2762Y-6.3301
X5.7762Y-6.8301
X3.2762Y-6.5301
X4.2762Y-6.9301
X2.6762Y-4.5301
X5.9762Y-1.9301
X3.3762Y-1.7301
X3.2762Y-1.7301
X5.8762Y-2.7301
X4.2762Y-2.2301
X4.8762Y-3.2301
X5.9762Y-3.3301
X5.7762Y-3.5301
X3.5762Y-3.0301
X3.4762Y-3.0301
X4.0762Y-3.1301
X5.5762Y-4.0301
X3.3762Y-4.2301
X3.0762Y-3.9301
X3.8762Y-5.6301
X4.1762Y-6.1301
X2.8762Y-6.1301
X5.3762Y-6.5301
X5.2762Y-6.5301
X3.2762Y-6.3301
X4.2762Y-6.7301
X3.2762Y-6.8301
X5.2762Y-3.4301
X5.1762Y-3.4301
X2.6762Y-5.7301
X6.1754Y-2.9261
X6.1754Y-3.0261
X6.1754Y-6.8261
X2.6762Y-5.9301
X3.3762Y-1.6301
X5.1762Y-1.6301
X5.0762Y-1.6301
X3.9762Y-1.8301
X4.9762Y-1.9301
X3.4762Y-1.7301
X5.9762Y-1.8301
X4.7762Y-2.6301
X4.8762Y-2.7301
X4.7762Y-2.7301
X5.7762Y-2.5301
X5.6762Y-2.5301
X4.9762Y-2.8301
X5.7762Y-2.9301
X5.7762Y-3.0301
X3.2762Y-3.3301
X4.5762Y-3.5301
X4.8762Y-5.3301
X5.9762Y-5.8301
X4.6762Y-5.8301
X4.5762Y-5.8301
X2.9762Y-6.0301
X3.7762Y-6.4301
X3.8762Y-4.1301
X3.6762Y-6.4301
X3.8762Y-6.5301
X3.7762Y-6.5301
X2.9762Y-6.9301
X2.8762Y-6.9301
X5.3762Y-1.7301
X2.6762Y-1.8301
X2.6762Y-3.2301
X6.1754Y-4.1261
X6.1754Y-4.2261
X5.9762Y-1.7301
X3.8762Y-1.9301
X4.2762Y-3.8301
X4.8762Y-1.7301
X4.7762Y-1.7301
X4.3762Y-3.7301
X5.0762Y-4.4301
X3.4762Y-4.6301
X5.6762Y-4.7301
X5.5762Y-4.7301
X5.7762Y-5.5301
X2.6762Y-5.8301
X5.9762Y-2.0301
X4.4762Y-3.7301
X4.3762Y-4.8301
X3.3762Y-5.7301
X3.1762Y-5.8301
X5.7762Y-6.2301
X5.4762Y-6.7301
X4.3762Y-6.8301
X4.6762Y-6.0301
X4.3762Y-2.0301
X3.3762Y-4.6301
X6.1754Y-5.5261
X5.2762Y-2.1301
X4.8762Y-4.2301
X3.3762Y-2.1301
X4.7762Y-4.2301
X5.7762Y-3.9301
X3.5762Y-2.7301
X4.6762Y-4.9301
X5.6762Y-4.8301
X4.3762Y-4.7301
X5.8762Y-3.9301
X4.4762Y-2.5301
X5.1762Y-4.5301
X2.9762Y-4.7301
X4.1762Y-4.0301
X3.8762Y-4.5301
X4.0762Y-3.6301
X4.3762Y-2.9301
X4.4762Y-2.9301
X5.3762Y-3.6301
X2.9762Y-3.8301
X3.1762Y-3.5301
X5.0762Y-2.4301
X3.5762Y-2.4301
X5.9762Y-2.6301
X4.6762Y-2.6301
X4.5762Y-2.6301
X4.1762Y-2.3301
X3.2762Y-2.5301
X3.4762Y-2.8301
X3.0762Y-2.9301
X2.9762Y-2.9301
X3.6762Y-3.2301
X4.4762Y-3.3301
X4.6762Y-3.9301
X4.5762Y-3.9301
X4.0762Y-3.9301
X3.0762Y-3.7301
X5.9762Y-4.1301
X4.7762Y-4.3301
X4.3762Y-4.4301
X3.1762Y-2.9301
X3.2762Y-5.8301
X5.8762Y-6.2301
X5.5762Y-6.7301
X4.4762Y-6.8301
X5.4762Y-1.7301
X4.8762Y-6.0301
X4.7762Y-6.0301
X2.6762Y-1.7301
X6.1754Y-5.4261
X2.8762Y-2.0301
X5.4762Y-2.1301
X5.3762Y-2.1301
X3.4762Y-2.1301
X4.4762Y-6.2301
X3.5762Y-5.4301
X4.2762Y-2.3301
X5.2762Y-5.0301
X3.5762Y-2.8301
X4.5762Y-3.3301
X3.1762Y-4.9301
X3.3762Y-6.0301
X2.8762Y-2.3301
X3.7762Y-3.2301
X5.0762Y-5.9301
X5.3762Y-6.9301
X4.8762Y-1.8301
X3.3762Y-2.6301
X3.3762Y-2.5301
X5.7762Y-3.7301
X5.6762Y-3.7301
X4.7762Y-3.0301
X5.1762Y-3.1301
X4.7762Y-3.9301
X3.2762Y-3.7301
X3.1762Y-3.7301
X4.8762Y-4.3301
X5.3762Y-3.8301
X4.8762Y-4.1301
X3.5762Y-4.3301
X4.4762Y-4.4301
X3.1762Y-4.8301
X3.0762Y-4.8301
X2.9762Y-4.8301
X3.7762Y-5.6301
X3.6762Y-5.6301
X4.6762Y-5.2301
X4.9762Y-6.4301
X4.8762Y-4.6301
X3.6762Y-5.0301
X3.5762Y-5.0301
X4.7762Y-5.4301
X4.8762Y-6.4301
X4.7762Y-4.6301
X3.7762Y-5.0301
X4.5762Y-5.5301
X5.9762Y-5.3301
X5.8762Y-5.8301
X4.0762Y-6.1301
X4.9762Y-4.5301
X3.2762Y-5.5301
X5.3762Y-5.1301
X4.4762Y-5.8301
X2.8762Y-6.0301
X3.1762Y-3.3301
X3.7762Y-5.9301
X4.2762Y-5.1301
X3.3762Y-5.2301
X4.8762Y-5.6301
X4.7762Y-5.7301
X4.6762Y-5.7301
X5.1762Y-6.1301
X3.3762Y-5.3301
X3.9762Y-6.1301
X3.2762Y-6.2301
X5.3762Y-6.3301
X3.2762Y-5.3301
X5.4762Y-6.3301
X4.4762Y-5.5301
X5.9762Y-5.2301
X4.7762Y-6.4301
X5.0762Y-6.5301
X4.1762Y-6.3301
X3.0762Y-6.8301
X4.1762Y-6.9301
X4.9762Y-3.4301
X2.6762Y-2.1301
X2.6762Y-4.6301
X3.1762Y-5.3301
X3.1762Y-6.2301
X2.8762Y-4.8301
X5.8762Y-5.2301
X3.8762Y-6.1301
X2.9762Y-6.3301
X4.0762Y-6.7301
X3.1762Y-6.5301
X5.8762Y-5.3301
X5.6762Y-6.8301
X4.6762Y-5.4301
X6.1754Y-3.2261
X2.6762Y-6.1301
X3.1762Y-1.6301
X3.0762Y-1.7301
X3.6762Y-1.8301
X3.1762Y-1.7301
X3.0762Y-1.6301
X5.8762Y-1.9301
X4.8762Y-1.6301
X3.7762Y-1.8301
X4.7762Y-1.9301
X3.2762Y-2.6301
X5.7762Y-2.7301
X5.4762Y-2.2301
X4.1762Y-2.2301
X3.2762Y-4.2301
X5.4762Y-2.9301
X4.7762Y-3.2301
X5.1762Y-3.6301
X3.9762Y-3.1301
X3.0762Y-4.4301
X4.9762Y-4.4301
X4.4762Y-2.7301
X5.6762Y-3.5301
X4.2762Y-3.5301
X3.3762Y-3.0301
X3.2762Y-4.6301
X2.8762Y-3.9301
X5.4762Y-4.0301
X3.1762Y-4.2301
X3.7762Y-4.1301
X3.6762Y-4.1301
X4.8762Y-4.4301
X5.4762Y-4.7301
X3.1762Y-2.6301
X3.7762Y-4.0301
X4.2762Y-3.7301
X5.4762Y-2.5301
X3.0762Y-3.3301
X3.4762Y-3.8301
X5.8762Y-1.7301
X6.1754Y-4.3261
X3.2762Y-1.6301
X3.4762Y-6.4301
X5.1762Y-6.5301
X3.1762Y-6.3301
X3.0762Y-6.3301
X4.1762Y-6.7301
X3.1762Y-6.8301
X5.0762Y-3.4301
X2.6762Y-1.9301
X2.6762Y-2.0301
X6.1754Y-3.1261
X2.6762Y-6.0301
X3.5762Y-6.4301
X3.6762Y-6.5301
X2.6762Y-6.9301
X5.7762Y-1.7301
X4.6762Y-1.7301
X4.9762Y-1.6301
X3.8762Y-1.8301
X4.8762Y-1.9301
X3.7762Y-1.9301
X5.8762Y-2.0301
X4.2762Y-2.0301
X5.8762Y-1.8301
X4.6762Y-2.7301
X5.5762Y-2.5301
X4.8762Y-2.8301
X5.6762Y-2.9301
X5.5762Y-2.9301
X4.1762Y-2.0301
X4.5762Y-2.7301
X4.3762Y-2.5301
X5.6762Y-3.0301
X4.9762Y-2.4301
X3.4762Y-2.7301
X4.2762Y-2.9301
X5.8762Y-3.3301
X4.3762Y-3.5301
X3.6762Y-3.8301
X3.0762Y-3.5301
X5.2762Y-3.6301
X3.5762Y-3.8301
X5.6762Y-3.9301
X3.9762Y-4.0301
X3.8762Y-4.0301
X5.7762Y-3.3301
X4.4762Y-3.5301
X3.9762Y-3.6301
X2.9762Y-3.9301
X4.0762Y-4.0301
X4.6762Y-4.2301
X4.5762Y-4.9301
X4.1762Y-3.8301
X4.0762Y-3.8301
X5.9762Y-4.3301
X3.4762Y-5.4301
X4.9762Y-5.9301
X5.8762Y-4.3301
X3.2762Y-4.4301
X3.1762Y-4.4301
X4.2762Y-4.7301
X5.1762Y-5.0301
X5.0762Y-5.0301
X3.0762Y-4.9301
X4.1762Y-5.1301
X3.2762Y-5.2301
X5.9762Y-5.6301
X5.9762Y-5.7301
X3.7762Y-4.5301
X4.1762Y-4.7301
X2.8762Y-4.7301
X5.5762Y-4.8301
X5.9762Y-5.4301
X5.8762Y-5.4301
X3.6762Y-5.9301
X5.6762Y-4.9301
X4.7762Y-5.6301
X4.2762Y-3.3301
X4.7762Y-5.9301
X5.2762Y-6.7301
X4.6762Y-5.3301
X4.1762Y-4.9301
X4.0762Y-4.7301
X4.2762Y-4.8301
X5.6762Y-5.5301
X5.8762Y-5.6301
X5.3762Y-6.7301
X4.8762Y-5.9301
X2.9762Y-4.9301
X3.4762Y-5.6301
X4.9762Y-5.0301
X3.3762Y-5.4301
X3.1762Y-5.1301
X3.0762Y-5.1301
X4.5762Y-5.2301
X4.4762Y-5.2301
X3.5762Y-5.6301
X5.8762Y-5.7301
X3.2762Y-5.7301
X5.7762Y-5.8301
X4.2762Y-6.2301
X4.2762Y-6.8301
X5.6762Y-5.8301
X3.0762Y-5.8301
X5.6762Y-6.2301
X6.1754Y-5.6261
X5.1762Y-6.9301
X4.5762Y-6.0301
X4.4762Y-6.0301
X6.1754Y-1.6261
X6.1754Y-5.7261
X5.0762Y-2.3301
X2.6762Y-3.5301
X5.7762Y-2.0301
X5.6762Y-2.0301
X3.2762Y-2.1301
X5.7762Y-1.8301
X5.6762Y-1.8301
X3.4762Y-2.4301
X3.3762Y-2.4301
X5.8762Y-2.6301
X4.4762Y-2.6301
X4.0762Y-2.3301
X3.0762Y-2.5301
X4.7762Y-2.8301
X4.6762Y-2.8301
X3.3762Y-2.8301
X3.2762Y-2.8301
X2.8762Y-2.9301
X3.5762Y-3.2301
X4.3762Y-3.3301
X5.5762Y-2.0301
X3.1762Y-2.5301
X5.4762Y-3.7301
X4.5762Y-3.0301
X4.9762Y-3.1301
X4.4762Y-4.2301
X4.3762Y-4.2301
X2.9762Y-3.7301
X4.6762Y-4.3301
X5.0762Y-3.8301
X3.2762Y-4.3301
X4.2762Y-4.4301
X5.1762Y-3.8301
X5.8762Y-4.1301
X4.6762Y-4.1301
X5.8762Y-4.5301
X4.7762Y-4.5301
X5.9762Y-4.4301
X5.8762Y-4.6301
X4.5762Y-5.7301
X5.0762Y-6.1301
X4.3762Y-6.2301
X3.0762Y-6.2301
X3.0762Y-6.5301
X5.2762Y-2.3301
X4.0762Y-6.3301
X5.1762Y-2.3301
X2.6762Y-3.3301
X2.6762Y-3.4301
X5.2762Y-6.3301
X5.2762Y-6.9301
X2.6762Y-2.2301
X4.6762Y-6.4301
X2.8762Y-6.3301
X2.6762Y-4.7301
X3.0762Y-5.3301
X4.5762Y-5.4301
X4.3762Y-5.5301
X5.7762Y-5.2301
X5.7762Y-5.3301
X4.9762Y-6.5301
X3.9762Y-6.7301
X3.8762Y-6.7301
X2.9762Y-6.8301
X4.0762Y-6.9301
X3.9762Y-6.9301
X4.8762Y-3.4301
X6.1754Y-1.8261
X6.1754Y-3.3261
X2.6762Y-6.2301
X6.1754Y-4.5261
X3.2762Y-6.4301
X2.9762Y-1.6301
X4.4762Y-4.6301
X3.3762Y-5.0301
X4.4762Y-5.3301
X3.0762Y-5.5301
X5.1762Y-5.1301
X4.2762Y-5.8301
X5.3762Y-6.8301
X5.5762Y-1.7301
X4.4762Y-1.7301
X4.6762Y-3.2301
X5.5762Y-3.7301
X4.6762Y-3.0301
X5.0762Y-3.1301
X2.9762Y-1.7301
X4.3762Y-3.4301
X5.7762Y-1.9301
X5.6762Y-2.7301
X5.3762Y-2.2301
X4.0762Y-2.2301
X5.5762Y-3.5301
X3.2762Y-3.0301
X4.3762Y-2.7301
X5.3762Y-4.7301
X5.9762Y-4.6301
X3.1762Y-4.6301
X2.9762Y-2.6301
X5.3762Y-2.5301
X4.8762Y-4.5301
X5.9762Y-4.5301
X3.0762Y-4.6301
X2.9762Y-4.4301
X4.1762Y-3.7301
X5.3762Y-2.9301
X3.8762Y-3.1301
X3.5762Y-1.8301
X3.6762Y-4.0301
X2.9762Y-3.3301
X3.3762Y-4.3301
X5.3762Y-4.0301
X4.7762Y-1.6301
X3.4762Y-4.3301
X3.0762Y-4.2301
X3.0762Y-2.6301
X3.8762Y-3.9301
X4.1762Y-3.5301
X5.0762Y-3.6301
X3.9762Y-3.9301
X4.9762Y-3.6301
X3.5762Y-4.1301
X4.6762Y-4.6301
X4.7762Y-4.1301
X2.8762Y-3.8301
X5.2762Y-3.8301
X4.5762Y-4.6301
X4.6762Y-1.9301
X4.1762Y-4.8301
X3.9762Y-4.7301
X3.5762Y-3.1301
X3.1762Y-5.5301
X5.5762Y-5.5301
X5.9762Y-5.9301
X4.6762Y-5.9301
X4.0762Y-4.9301
X4.8762Y-5.0301
X3.4762Y-5.0301
X4.5762Y-5.3301
X3.2762Y-5.4301
X2.8762Y-4.9301
X5.2762Y-5.1301
X4.3762Y-5.8301
X3.3762Y-6.4301
X3.5762Y-6.5301
X5.5762Y-6.8301
X5.4762Y-6.8301
X6.1754Y-1.7261
X6.1754Y-4.4261
X5.6762Y-1.7301
X4.5762Y-1.7301
X3.6762Y-1.9301
X4.0762Y-2.0301
X3.9762Y-2.0301
X4.8762Y-2.4301
X3.3762Y-2.7301
X4.2762Y-2.5301
X4.1762Y-2.9301
X5.6762Y-3.3301
X2.9762Y-3.5301
X3.8762Y-3.6301
X3.7762Y-3.6301
X5.5762Y-3.9301
X5.9762Y-4.2301
X5.8762Y-4.2301
X4.5762Y-4.2301
X4.4762Y-4.9301
X3.9762Y-3.8301
X5.7762Y-4.3301
X3.6762Y-4.5301
X3.5762Y-4.5301
X5.4762Y-4.8301
X2.9762Y-5.1301
X5.7762Y-5.4301
X5.6762Y-4.3301
X3.5762Y-5.9301
X4.0762Y-5.1301
X3.1762Y-5.2301
X4.6762Y-5.6301
X4.4762Y-5.7301
X4.9762Y-6.1301
X2.9762Y-6.2301
X5.1762Y-6.3301
X3.9762Y-6.3301
X2.9762Y-6.5301
X2.6762Y-4.8301
X2.6762Y-4.9301
X6.1754Y-1.9261
X5.9762Y-1.6301
X5.6762Y-1.9301
X2.8762Y-1.7301
X5.5762Y-2.7301
X5.2762Y-2.2301
X3.9762Y-2.2301
X4.5762Y-3.2301
X5.4762Y-3.5301
X5.3762Y-3.5301
X3.1762Y-3.0301
X3.7762Y-3.1301
X3.6762Y-3.1301
X3.7762Y-3.9301
X5.2762Y-4.0301
X2.9762Y-4.2301
X2.8762Y-4.2301
X4.0762Y-3.7301
X3.4762Y-4.1301
X2.9762Y-4.6301
X2.8762Y-4.6301
X5.2762Y-4.7301
X5.1762Y-4.7301
X5.4762Y-5.5301
X5.8762Y-5.9301
X3.9762Y-4.9301
X2.8762Y-5.1301
X3.2762Y-5.6301
X4.0762Y-4.8301
X6.1754Y-2.2261
X3.8762Y-2.0301
X4.1762Y-2.5301
X4.0762Y-2.9301
X3.0762Y-5.7301
X2.8762Y-5.8301
X3.5762Y-6.1301
X5.4762Y-6.2301
X3.9762Y-6.8301
X4.2762Y-6.0301
X6.1754Y-2.1261
X5.0762Y-1.8301
X3.5762Y-1.9301
X5.0762Y-6.7301
X4.9762Y-6.7301
X6.1754Y-5.9261
X3.7762Y-2.0301
X3.0762Y-2.1301
X4.1762Y-1.7301
X5.4762Y-1.8301
X3.1762Y-2.4301
X3.2762Y-2.7301
X4.2762Y-2.6301
X3.8762Y-2.3301
X3.7762Y-2.3301
X2.8762Y-2.5301
X5.7762Y-2.8301
X4.4762Y-2.8301
X4.3762Y-2.8301
X2.9762Y-2.8301
X5.5762Y-3.3301
X5.4762Y-3.9301
X4.2762Y-4.9301
X3.2762Y-3.2301
X2.8762Y-3.5301
X5.7762Y-4.2301
X4.3762Y-4.9301
X4.0762Y-3.3301
X3.2762Y-3.4301
X3.1762Y-3.4301
X3.6762Y-3.6301
X5.7762Y-6.4301
X5.1762Y-3.7301
X3.8762Y-3.8301
X5.5762Y-4.1301
X3.4762Y-4.5301
X4.0762Y-4.4301
X5.8762Y-4.9301
X5.3762Y-4.8301
X3.9762Y-4.8301
X4.1762Y-5.3301
X2.8762Y-5.3301
X5.6762Y-5.4301
X4.4762Y-4.3301
X4.7762Y-5.0301
X4.6762Y-5.0301
X3.0762Y-5.2301
X4.2762Y-5.4301
X3.9762Y-5.1301
X5.5762Y-5.2301
X5.5762Y-5.8301
X2.9762Y-5.8301
X4.5762Y-5.6301
X4.3762Y-5.4301
X4.1762Y-5.5301
X3.3762Y-5.6301
X4.8762Y-6.1301
X3.7762Y-6.1301
X3.6762Y-6.1301
X5.7762Y-5.6301
X3.1762Y-5.7301
X5.7762Y-5.7301
X3.4762Y-5.9301
X4.3762Y-5.2301
X4.2762Y-5.2301
X4.3762Y-5.7301
X5.4762Y-5.3301
X4.4762Y-6.4301
X5.9762Y-6.5301
X4.7762Y-6.5301
X4.6762Y-6.5301
X5.5762Y-6.2301
X4.1762Y-6.2301
X2.8762Y-6.2301
X5.0762Y-6.3301
X3.8762Y-6.3301
X5.1762Y-6.7301
X3.5762Y-6.7301
X3.4762Y-6.7301
X4.1762Y-6.8301
X4.0762Y-6.8301
X2.8762Y-6.5301
X5.0762Y-6.9301
X5.9762Y-6.4301
X4.3762Y-6.0301
X6.1754Y-5.8261
X3.1762Y-2.1301
X5.5762Y-1.8301
X3.2762Y-2.4301
X5.7762Y-2.6301
X4.3762Y-2.6301
X3.9762Y-2.3301
X2.9762Y-2.5301
X5.9762Y-2.8301
X5.8762Y-2.8301
X4.5762Y-2.8301
X3.1762Y-2.8301
X3.0762Y-2.8301
X3.4762Y-3.2301
X3.3762Y-3.2301
X4.1762Y-3.3301
X2.8762Y-3.7301
X5.7762Y-4.1301
X5.6762Y-4.1301
X4.5762Y-4.3301
X4.1762Y-4.4301
X5.9762Y-4.9301
X4.4762Y-1.6301
X4.3762Y-5.3301
X4.2762Y-5.3301
X2.9762Y-5.3301
X4.4762Y-5.4301
X4.2762Y-5.5301
X5.6762Y-5.2301
X5.6762Y-5.3301
X5.5762Y-5.3301
X4.5762Y-6.4301
X4.8762Y-6.5301
X3.4762Y-6.5301
X3.7762Y-6.7301
X3.6762Y-6.7301
X2.8762Y-6.8301
X3.8762Y-6.9301
X3.7762Y-6.9301
X4.7762Y-3.4301
X4.6762Y-3.4301
X2.6762Y-2.3301
X6.1754Y-3.4261
X2.6762Y-6.3301
X2.6762Y-6.4301
X2.8762Y-1.6301
X4.6762Y-1.6301
X4.5762Y-1.6301
X3.4762Y-1.8301
X4.5762Y-1.9301
X5.9762Y-2.4301
X2.8762Y-2.6301
X4.2762Y-2.7301
X5.2762Y-2.5301
X5.1762Y-2.5301
X5.2762Y-2.9301
X2.8762Y-3.3301
X4.0762Y-3.5301
X4.8762Y-3.6301
X3.5762Y-4.0301
X5.5762Y-4.9301
X5.4762Y-4.9301
X2.8762Y-4.4301
X3.8762Y-4.7301
X3.1762Y-5.4301
X3.0762Y-5.4301
X4.5762Y-5.9301
X5.0762Y-5.1301
X4.9762Y-5.1301
X4.1762Y-5.2301
X5.6762Y-5.6301
X5.6762Y-5.7301
X5.5762Y-5.7301
X3.0762Y-3.0301
X5.4762Y-5.8301
X5.9762Y-6.1301
X4.0762Y-6.2301
X4.9762Y-6.9301
X2.6762Y-3.7301
X5.3762Y-2.0301
X4.5762Y-2.4301
X5.9762Y-2.3301
X5.8762Y-2.3301
X5.2762Y-3.7301
X4.3762Y-3.0301
X4.2762Y-3.0301
X4.7762Y-3.1301
X4.6762Y-3.1301
X4.1762Y-4.2301
X4.8762Y-3.8301
X4.4762Y-4.1301
X3.0762Y-4.3301
X4.3762Y-2.4301
X4.2762Y-2.4301
X5.5762Y-6.0301
X3.9762Y-1.7301
X4.9762Y-2.3301
X2.6762Y-3.6301
X6.1754Y-2.0261
X5.9762Y-3.4301
X4.2762Y-1.6301
X2.6762Y-5.0301
X4.1762Y-1.6301
X4.0762Y-1.6301
X4.0762Y-5.8301
X5.8762Y-1.6301
X4.7762Y-1.8301
X4.6762Y-1.8301
X5.5762Y-1.9301
X5.4762Y-2.0301
X6.1754Y-3.5261
X4.4762Y-1.9301
X4.7762Y-2.4301
X5.5762Y-2.6301
X3.6762Y-6.9301
X2.6762Y-2.5301
X5.8762Y-2.4301
X5.4762Y-2.7301
X4.5762Y-3.4301
X2.6762Y-2.4301
X2.6762Y-6.5301
X3.3762Y-1.8301
X4.2762Y-2.1301
X4.6762Y-2.4301
X5.6762Y-2.6301
X3.1762Y-5.0301
X5.1762Y-6.8301
X5.0762Y-6.8301
X6.1754Y-4.8261
X3.0762Y-2.7301
X3.8762Y-2.2301
X4.1762Y-2.7301
X5.6762Y-4.5301
X5.5762Y-4.6301
X2.8762Y-5.5301
X4.2762Y-5.7301
X4.1762Y-5.7301
X3.0762Y-6.4301
X3.5762Y-2.0301
X3.4762Y-2.0301
X5.0762Y-2.5301
X5.7762Y-4.4301
X3.3762Y-1.9301
X5.1762Y-2.9301
X4.1762Y-4.6301
X3.3762Y-5.9301
X5.0762Y-2.9301
X4.5762Y-4.5301
X4.2762Y-4.6301
X3.2762Y-5.9301
X5.9762Y-2.1301
X4.1762Y-2.4301
X5.1762Y-2.2301
X3.8762Y-2.5301
X3.7762Y-2.9301
X4.7762Y-3.6301
X4.8762Y-4.0301
X3.4762Y-4.0301
X3.3762Y-4.0301
X5.4762Y-3.2301
X3.3762Y-3.4301
X3.3762Y-3.6301
X3.6762Y-3.9301
X3.9762Y-3.5301
X5.3762Y-3.7301
X5.2762Y-3.5301
X5.5762Y-3.0301
X4.4762Y-3.0301
X4.8762Y-3.1301
X3.4762Y-3.1301
X4.2762Y-3.2301
X5.2762Y-3.3301
X5.2762Y-3.9301
X5.3762Y-6.0301
X4.2762Y-4.2301
X5.8762Y-6.4301
X4.9762Y-3.8301
X4.5762Y-4.1301
X3.1762Y-4.3301
X5.7762Y-4.5301
X4.6762Y-4.5301
X5.8762Y-4.4301
X5.7762Y-4.6301
X5.6762Y-4.6301
X4.3762Y-4.6301
X3.2762Y-5.0301
X2.9762Y-5.5301
X4.1762Y-5.8301
X3.1762Y-6.4301
X5.2762Y-6.8301
X6.1754Y-4.6261
X6.1754Y-4.7261
X4.3762Y-1.7301
X4.2762Y-1.7301
X3.4762Y-1.9301
X3.6762Y-2.0301
X4.3762Y-2.1301
X3.1762Y-2.7301
X4.0762Y-2.5301
X3.9762Y-2.5301
X3.9762Y-2.9301
X3.8762Y-2.9301
X5.5762Y-3.2301
X4.4762Y-3.2301
X4.3762Y-3.2301
X5.4762Y-3.3301
X5.3762Y-3.3301
X3.5762Y-3.6301
X3.4762Y-3.6301
X5.3762Y-3.9301
X4.4762Y-3.9301
X5.6762Y-4.2301
X5.9762Y-5.0301
X5.5762Y-4.3301
X5.4762Y-4.3301
X3.3762Y-4.5301
X5.2762Y-4.8301
X3.8762Y-4.8301
X5.5762Y-5.4301
X5.4762Y-5.4301
X5.3762Y-5.4301
X3.8762Y-5.1301
X2.9762Y-5.2301
X4.4762Y-5.6301
X4.3762Y-5.6301
X4.7762Y-6.1301
X4.6762Y-6.1301
X5.6762Y-6.4301
X4.9762Y-6.3301
X3.7762Y-6.3301
X5.4762Y-6.0301
X5.8762Y-3.4301
X2.6762Y-5.1301
X3.9762Y-1.6301
X5.7762Y-1.6301
X4.5762Y-1.8301
X5.4762Y-1.9301
X4.1762Y-2.1301
X4.0762Y-2.1301
X5.4762Y-2.6301
X5.3762Y-2.7301
X5.0762Y-2.2301
X3.7762Y-2.2301
X5.6762Y-2.8301
X5.5762Y-2.8301
X5.1762Y-3.5301
X5.4762Y-3.0301
X2.9762Y-3.0301
X3.3762Y-3.1301
X3.5762Y-3.9301
X4.7762Y-4.0301
X3.8762Y-3.7301
X3.2762Y-4.1301
X4.9762Y-4.7301
X5.6762Y-5.9301
X5.5762Y-5.9301
X3.6762Y-4.9301
X3.0762Y-5.6301
X3.2762Y-6.1301
X5.1762Y-6.2301
X5.0762Y-6.2301
X3.9762Y-3.7301
X3.3762Y-4.1301
X5.0762Y-4.7301
X5.3762Y-5.5301
X5.7762Y-5.9301
X3.8762Y-4.9301
X3.7762Y-4.9301
X3.1762Y-5.6301
X2.9762Y-5.7301
X2.8762Y-5.7301
X3.4762Y-6.1301
X3.3762Y-6.1301
X5.3762Y-6.2301
X5.2762Y-6.2301
X4.8762Y-6.7301
X3.8762Y-6.8301
X4.1762Y-6.0301
X4.0762Y-1.7301
X4.9762Y-1.8301
X4.2762Y-3.4301
X6.1754Y-2.3261
X6.1754Y-6.0261
X2.9762Y-2.1301
X5.3762Y-1.8301
X3.0762Y-2.4301
X4.1762Y-2.6301
X3.6762Y-2.3301
X4.2762Y-2.8301
X2.8762Y-2.8301
X3.1762Y-3.2301
X3.9762Y-3.3301
X3.0762Y-3.4301
X5.9762Y-3.6301
X5.9762Y-3.1301
X5.0762Y-3.7301
X5.4762Y-4.1301
X4.3762Y-4.3301
X3.9762Y-4.4301
X5.7762Y-4.9301
X4.5762Y-5.0301
X4.0762Y-5.3301
X4.1762Y-5.4301
X4.0762Y-5.5301
X5.4762Y-5.2301
X5.3762Y-5.2301
X5.3762Y-5.3301
X4.3762Y-6.4301
X5.8762Y-6.5301
X4.5762Y-6.5301
X4.4762Y-6.5301
X3.3762Y-6.7301
X3.5762Y-6.9301
X2.6762Y-2.6301
X6.1754Y-3.6261
X2.6762Y-6.6301
X4.3762Y-1.6301
X4.3762Y-1.9301
X4.7762Y-6.7301
X3.7762Y-6.8301
X5.9762Y-6.9301
X4.0762Y-6.0301
X3.9762Y-6.0301
X4.1762Y-3.4301
X6.1754Y-2.4261
X6.1754Y-6.1261
X6.1754Y-6.2261
X2.8762Y-2.1301
X5.2762Y-1.8301
X5.1762Y-1.8301
X2.9762Y-2.4301
X4.0762Y-2.6301
X3.5762Y-2.3301
X3.4762Y-2.3301
X4.7762Y-6.9301
X5.7762Y-2.4301
X5.6762Y-2.4301
X4.0762Y-2.7301
X4.9762Y-2.5301
X4.9762Y-2.9301
X3.8762Y-3.5301
X3.0762Y-3.2301
X2.9762Y-3.2301
X3.8762Y-3.3301
X3.7762Y-3.3301
X2.9762Y-3.4301
X5.8762Y-3.6301
X5.8762Y-3.1301
X5.5762Y-4.2301
X4.6762Y-3.6301
X4.4762Y-4.5301
X5.4762Y-5.6301
X5.3762Y-5.7301
X4.0762Y-3.0301
X5.4762Y-4.2301
X3.7762Y-3.5301
X4.3762Y-4.5301
X5.7762Y-6.1301
X3.8762Y-3.4301
X5.2762Y-4.9301
X3.6762Y-4.7301
X3.5762Y-4.7301
X2.8762Y-5.4301
X4.3762Y-5.9301
X5.1762Y-5.8301
X5.9762Y-6.0301
X2.6762Y-4.0301
X4.4762Y-3.1301
X5.9762Y-3.2301
X3.7762Y-3.4301
X3.6762Y-3.4301
X4.3762Y-3.9301
X3.2762Y-4.0301
X4.7762Y-5.1301
X3.9762Y-5.2301
X5.5762Y-6.4301
X3.8762Y-6.2301
X5.6762Y-2.3301
X3.2762Y-4.5301
X5.3762Y-4.3301
X4.2762Y-4.3301
X4.1762Y-4.3301
X3.8762Y-4.4301
X3.7762Y-4.4301
X3.8762Y-4.2301
X5.3762Y-4.9301
X4.9762Y-3.7301
X5.9762Y-3.8301
X5.3762Y-4.1301
X4.6762Y-3.8301
X4.2762Y-4.1301
X2.8762Y-4.3301
X5.3762Y-4.5301
X2.9762Y-4.5301
X2.8762Y-4.5301
X5.8762Y-5.0301
X5.7762Y-5.0301
X5.4762Y-4.4301
X5.3762Y-4.6301
X5.1762Y-3.3301
X3.7762Y-4.7301
X2.9762Y-5.4301
X4.4762Y-5.9301
X4.8762Y-5.1301
X4.0762Y-5.2301
X5.5762Y-5.6301
X5.4762Y-5.7301
X5.3762Y-5.8301
X5.2762Y-5.8301
X5.8762Y-6.1301
X3.9762Y-6.2301
X4.8762Y-6.9301
X2.6762Y-3.8301
X2.6762Y-3.9301
X5.2762Y-2.0301
X5.1762Y-2.0301
X4.4762Y-2.4301
X5.7762Y-2.3301
X4.1762Y-3.0301
X4.5762Y-3.1301
X3.9762Y-3.4301
X4.0762Y-4.2301
X3.9762Y-4.2301
X4.7762Y-3.8301
X4.3762Y-4.1301
X2.9762Y-4.3301
X5.5762Y-4.5301
X5.4762Y-4.5301
X5.6762Y-4.4301
X5.5762Y-4.4301
X5.4762Y-4.6301
X4.0762Y-4.6301
X5.0762Y-4.8301
X4.9762Y-4.8301
X3.0762Y-5.0301
X3.1762Y-5.9301
X4.0762Y-5.7301
X3.9762Y-5.7301
X3.9762Y-5.8301
X2.9762Y-6.4301
X2.8762Y-6.4301
X4.9762Y-6.8301
X4.8762Y-6.8301
X6.1754Y-4.9261
X3.2762Y-1.9301
X3.3762Y-2.0301
X5.8762Y-2.1301
X4.0762Y-2.4301
X2.9762Y-2.7301
X3.7762Y-2.5301
X4.1762Y-2.8301
X4.0762Y-2.8301
X3.6762Y-2.9301
X3.5762Y-2.9301
X5.3762Y-3.2301
X4.1762Y-3.2301
X5.0762Y-3.3301
X3.2762Y-3.6301
X4.4762Y-3.4301
X5.1762Y-3.9301
X5.0762Y-3.9301
X4.2762Y-3.9301
X5.3762Y-4.2301
X3.9762Y-4.6301
X5.6762Y-5.0301
X5.2762Y-4.3301
X3.1762Y-4.5301
X3.6762Y-4.8301
X5.1762Y-5.4301
X5.0762Y-5.5301
X3.6762Y-5.1301
X4.1762Y-5.6301
X4.4762Y-6.1301
X4.7762Y-6.3301
X3.5762Y-6.3301
X5.1762Y-6.0301
X4.9762Y-2.1301
X5.6762Y-3.4301
X2.6762Y-5.3301
X2.6762Y-5.4301
X3.7762Y-1.6301
X5.4762Y-1.6301
X4.3762Y-1.8301
X2.9762Y-1.8301
X5.2762Y-1.9301
X5.2762Y-2.6301
X5.1762Y-2.7301
X4.7762Y-2.2301
X3.5762Y-2.2301
X3.4762Y-2.2301
X4.8762Y-2.3301
X5.3762Y-2.8301
X4.8762Y-3.5301
X5.1762Y-3.0301
X3.1762Y-3.1301
X3.0762Y-3.1301
X3.3762Y-3.9301
X4.5762Y-4.0301
X4.4762Y-4.0301
X3.5762Y-3.7301
X3.0762Y-4.1301
X4.7762Y-4.7301
X5.1762Y-4.8301
X3.7762Y-4.8301
X5.2762Y-5.4301
X5.2762Y-5.5301
X5.1762Y-5.5301
X3.7762Y-5.1301
X3.8762Y-5.5301
X3.9762Y-5.5301
X5.3762Y-5.9301
X3.0762Y-5.9301
X3.8762Y-5.8301
X3.4762Y-4.9301
X5.9762Y-5.1301
X2.8762Y-5.2301
X4.4762Y-5.0301
X4.3762Y-5.0301
X3.9762Y-5.3301
X5.2762Y-5.3301
X2.9762Y-5.0301
X4.2762Y-5.6301
X4.0762Y-5.4301
X5.2762Y-5.2301
X4.8762Y-4.8301
X3.7762Y-5.8301
X2.8762Y-5.6301
X3.8762Y-5.7301
X3.8762Y-5.4301
X4.5762Y-6.1301
X4.6762Y-4.7301
X3.9762Y-5.4301
X3.0762Y-6.1301
X3.6762Y-6.3301
X4.8762Y-6.3301
X5.2762Y-6.0301
X5.7762Y-3.4301
X2.6762Y-5.2301
X3.8762Y-1.6301
X5.6762Y-1.6301
X5.5762Y-1.6301
X4.4762Y-1.8301
X3.2762Y-1.8301
X3.1762Y-1.8301
X3.0762Y-1.8301
X5.3762Y-1.9301
X3.9762Y-2.1301
X5.1762Y-2.1301
X5.3762Y-2.6301
X5.2762Y-2.7301
X4.9762Y-2.2301
X4.8762Y-2.2301
X3.6762Y-2.2301
X5.4762Y-2.8301
X5.0762Y-3.5301
X4.9762Y-3.5301
X5.3762Y-3.0301
X4.8762Y-2.9301
X4.8762Y-2.5301
X4.4762Y-3.6301
X5.2762Y-3.0301
X6.1754Y-3.7261
X5.2762Y-1.7301
X3.2762Y-3.1301
X5.7762Y-6.5301
X4.3762Y-6.5301
X3.2762Y-6.7301
X3.4762Y-6.9301
X3.3762Y-6.9301
X2.6762Y-6.7301
X5.0762Y-2.0301
X4.9762Y-2.0301
X3.6762Y-3.5301
X4.5762Y-3.6301
X3.3762Y-3.8301
X3.4762Y-3.9301
X5.0762Y-2.1301
X2.6762Y-2.7301
X2.8762Y-3.0301
X4.6762Y-4.0301
X4.2762Y-6.4301
X4.1762Y-6.4301
X4.2762Y-1.9301
X5.5762Y-2.4301
X3.9762Y-2.7301
X3.1762Y-4.0301
X3.0762Y-4.0301
X4.0762Y-3.2301
X3.7762Y-3.7301
X3.6762Y-3.7301
X3.1762Y-4.1301
X4.8762Y-4.7301
X5.4762Y-5.9301
X3.5762Y-4.9301
X2.9762Y-5.6301
X3.1762Y-6.1301
X5.1762Y-4.9301
X3.4762Y-4.7301
X4.2762Y-5.9301
X4.1762Y-5.9301
X4.6762Y-5.1301
X3.8762Y-5.2301
X5.3762Y-5.6301
X5.6762Y-6.1301
X5.4762Y-6.4301
X5.3762Y-6.4301
X4.2762Y-4.5301
X5.2762Y-5.7301
X5.0762Y-5.8301
X5.8762Y-6.9301
X4.7762Y-6.8301
X6.1754Y-5.0261
X6.1754Y-5.1261
X3.1762Y-1.9301
X3.2762Y-2.0301
X3.1762Y-2.0301
X5.7762Y-2.1301
X3.8762Y-2.1301
X3.7762Y-2.1301
X3.9762Y-2.4301
X2.8762Y-2.7301
X3.6762Y-2.5301
X3.9762Y-2.8301
X3.4762Y-2.9301
X4.9762Y-3.3301
X3.1762Y-3.6301
X4.5762Y-3.8301
X4.1762Y-3.9301
X5.1762Y-4.0301
X5.2762Y-4.2301
X5.1762Y-4.3301
X3.0762Y-4.5301
X3.5762Y-4.8301
X5.0762Y-5.4301
X4.9762Y-5.5301
X4.8762Y-5.5301
X3.5762Y-5.1301
X4.0762Y-5.6301
X4.3762Y-6.1301
X4.9762Y-6.2301
X3.6762Y-6.8301
X5.8762Y-6.0301
X4.6762Y-6.3301
X4.6762Y-6.7301
X3.7762Y-6.2301
X5.9762Y-6.3301
X5.8762Y-6.3301
X4.6762Y-6.9301
X4.5762Y-6.9301
X4.8762Y-2.1301
X4.5762Y-6.7301
X4.4762Y-6.7301
X5.7762Y-6.9301
X4.7762Y-5.3301
X5.0762Y-6.0301
X3.8762Y-6.0301
X3.7762Y-6.0301
X3.4762Y-6.3301
X5.0585Y-7.2513
X5.2762Y-6.4301
X4.8762Y-6.2301
X3.5762Y-6.8301
X5.6762Y-6.9301
X3.6762Y-6.0301
X4.7762Y-2.1301
X6.1754Y-6.4261
X6.1754Y-6.6261
X3.7762Y-2.6301
X4.6762Y-2.3301
X3.2762Y-2.3301
X3.5762Y-3.3301
X5.6762Y-3.6301
X5.6762Y-3.1301
X5.5762Y-3.1301
X5.7762Y-3.8301
X5.1762Y-4.1301
X3.9762Y-4.3301
X3.8762Y-4.3301
X3.5762Y-4.4301
X4.1762Y-5.0301
X3.7762Y-5.3301
X3.6762Y-5.3301
X3.6762Y-5.5301
X3.5762Y-5.5301
X5.7762Y-5.1301
X5.0762Y-5.2301
X5.0762Y-5.3301
X4.9762Y-5.8301
X4.8762Y-5.8301
X3.2762Y-6.0301
X3.1762Y-6.0301
X3.9762Y-6.4301
X4.1762Y-6.5301
X3.0762Y-6.7301
X2.8585Y-7.1513
X2.8585Y-7.2513
X2.8585Y-7.3513
X2.9585Y-7.1513
X2.9585Y-7.2513
X2.9585Y-7.3513
X3.0585Y-7.1513
X3.0585Y-7.2513
X3.0585Y-7.3513
X3.1585Y-7.1513
X3.1585Y-7.2513
X3.1585Y-7.3513
X3.2585Y-7.1513
X3.2585Y-7.2513
X3.2585Y-7.3513
X3.3585Y-7.1513
X3.3585Y-7.2513
X3.3585Y-7.3513
X3.4585Y-7.1513
X3.4585Y-7.2513
X3.4585Y-7.3513
X3.5585Y-7.1513
X3.5585Y-7.2513
X3.5585Y-7.3513
X3.6585Y-7.1513
X3.6585Y-7.2513
X3.6585Y-7.3513
X3.7585Y-7.1513
X3.7585Y-7.2513
X3.7585Y-7.3513
X3.8585Y-7.1513
X3.8585Y-7.2513
X3.8585Y-7.3513
X3.9585Y-7.1513
X3.9585Y-7.2513
X3.9585Y-7.3513
X4.0585Y-7.1513
X4.0585Y-7.2513
X4.0585Y-7.3513
X4.1585Y-7.1513
X4.1585Y-7.2513
X4.1585Y-7.3513
X4.2585Y-7.1513
X4.2585Y-7.2513
X4.2585Y-7.3513
X4.3585Y-7.1513
X4.3585Y-7.2513
X4.3585Y-7.3513
X4.4585Y-7.1513
X4.4585Y-7.2513
X4.4585Y-7.3513
X4.5585Y-7.1513
X4.5585Y-7.2513
X4.5585Y-7.3513
X4.6585Y-7.1513
X4.6585Y-7.2513
X4.6585Y-7.3513
X4.0762Y-3.4301
X6.1754Y-2.5261
X6.1754Y-6.3261
X6.1754Y-6.5261
X2.8762Y-2.4301
X3.9762Y-2.6301
X3.8762Y-2.6301
X3.3762Y-2.3301
X2.8762Y-3.2301
X5.2585Y-7.1513
X4.7585Y-7.1513
X4.7585Y-7.2513
X4.7585Y-7.3513
X4.8585Y-7.1513
X4.8585Y-7.2513
X4.8585Y-7.3513
X4.9585Y-7.1513
X4.9585Y-7.2513
X4.9585Y-7.3513
X5.0585Y-7.1513
X5.0585Y-7.3513
X5.1585Y-7.1513
X5.1585Y-7.2513
X5.1585Y-7.3513
X5.2585Y-7.2513
X5.2585Y-7.3513
X5.9762Y-2.5301
X5.3585Y-7.1513
X5.3585Y-7.2513
X2.8762Y-1.8301
X2.6762Y-4.1301
X5.9762Y-2.2301
X5.5762Y-2.3301
X5.4762Y-2.3301
X4.7762Y-2.3301
X5.7585Y-7.1513
X5.5762Y-3.4301
X5.4762Y-3.4301
X2.6762Y-5.5301
X6.1754Y-2.6261
X6.1754Y-2.7261
X3.6762Y-1.6301
X3.5762Y-1.6301
X5.3762Y-1.6301
X4.2762Y-1.8301
X4.1762Y-1.8301
X5.1762Y-1.9301
X5.1762Y-2.6301
X5.0762Y-2.6301
X4.9762Y-2.6301
X5.0762Y-2.7301
X4.6762Y-2.2301
X3.3762Y-2.2301
X5.4585Y-7.2513
X5.3585Y-7.3513
X5.4585Y-7.1513
X5.4585Y-7.3513
X5.5585Y-7.1513
X5.5585Y-7.2513
X5.5585Y-7.3513
X5.6585Y-7.1513
X5.6585Y-7.2513
X5.6585Y-7.3513
X5.7585Y-7.2513
X5.7585Y-7.3513
X3.2762Y-2.2301
X2.6762Y-3.0301
X5.3762Y-2.4301
X5.1762Y-2.8301
X3.6762Y-3.3301
X5.8585Y-7.1513
X5.9585Y-7.2513
X5.9585Y-7.3513
X6.1754Y-3.9261
X4.7762Y-2.0301
X3.7762Y-2.7301
X5.2762Y-2.8301
X5.2762Y-3.2301
X3.3762Y-3.5301
X5.7762Y-3.6301
X5.8585Y-7.2513
X4.7762Y-3.5301
X3.1762Y-6.9301
X4.6762Y-2.5301
X5.9762Y-2.9301
X5.9585Y-7.1513
X4.0762Y-1.9301
X4.5762Y-2.0301
X2.8762Y-3.4301
X5.8585Y-7.3513
X5.0762Y-1.7301
X4.6762Y-2.0301
X4.6762Y-2.9301
X5.1762Y-3.2301
X4.5762Y-2.1301
X4.2762Y-3.6301
X5.7762Y-3.1301
X4.8762Y-3.7301
X5.8762Y-3.8301
X5.2762Y-4.1301
X4.0762Y-4.3301
X3.6762Y-4.4301
X4.2762Y-5.0301
X3.8762Y-5.3301
X4.5762Y-4.7301
X5.0762Y-3.0301
X3.9762Y-3.0301
X3.8762Y-3.0301
X4.3762Y-3.1301
X5.2762Y-4.5301
X5.9762Y-4.7301
X4.7762Y-4.8301
X2.9762Y-3.1301
X5.8762Y-3.2301
X3.5762Y-3.4301
X3.2762Y-3.9301
X5.9762Y-4.0301
X5.8762Y-4.0301
X5.3762Y-4.4301
X4.3762Y-4.0301
X3.7762Y-4.2301
X2.9762Y-4.1301
X2.8762Y-4.1301
X5.5762Y-5.0301
X5.4762Y-5.0301
X3.7762Y-5.5301
X4.1762Y-4.1301
X2.8762Y-5.0301
X4.7762Y-3.7301
X4.6762Y-3.7301
X3.4762Y-3.7301
X5.2762Y-4.6301
X3.8762Y-4.6301
X3.7762Y-5.4301
X5.2762Y-5.9301
X5.8762Y-5.1301
X5.1762Y-5.2301
X5.1762Y-5.3301
X4.0762Y-6.4301
X4.4762Y-5.1301
X5.6762Y-6.5301
X4.8762Y-4.9301
X5.8762Y-4.8301
X3.6762Y-5.8301
X2.9762Y-6.1301
X4.9762Y-4.9301
X5.0762Y-5.6301
X5.1762Y-6.4301
X3.9762Y-5.9301
X2.9762Y-5.9301
X2.8762Y-5.9301
X2.8762Y-4.0301
X4.0762Y-4.5301
X3.3762Y-4.9301
X3.1762Y-4.7301
X3.5762Y-5.2301
X4.9762Y-5.7301
X5.3762Y-6.1301
X4.2762Y-6.5301
X4.7762Y-6.2301
X3.1762Y-3.8301
X3.7762Y-5.7301
X3.5762Y-5.8301
X5.0762Y-5.7301
X5.9762Y-6.7301
X3.1762Y-6.7301
X4.6762Y-6.8301
X3.4762Y-6.2301
X5.8762Y-6.8301
X2.6762Y-2.9301
X5.8762Y-6.7301
X3.3762Y-6.5301
X5.5762Y-6.9301
X4.3762Y-6.9301
X3.2762Y-6.9301
X2.6762Y-2.8301
X3.5762Y-6.0301
X5.6762Y-6.3301
X3.8762Y-1.7301
X4.6762Y-2.1301
X2.9762Y-2.2301
X2.6762Y-4.3301
X2.6762Y-6.8301
X6.1754Y-5.2261
X2.6762Y-4.4301
X6.1754Y-3.8261
X6.1754Y-6.7261
X5.1762Y-1.7301
T2
X6.1585Y-1.4013
X2.6585Y-1.4013
T3
X2.6585Y-7.4513
X6.1585Y-7.4513
T0
M30
