G04 #@! TF.GenerationSoftware,KiCad,Pcbnew,(5.1.4-0-10_14)*
G04 #@! TF.CreationDate,2019-11-30T00:21:07+01:00*
G04 #@! TF.ProjectId,Eurocard_3U_VME,4575726f-6361-4726-945f-33555f564d45,rev?*
G04 #@! TF.SameCoordinates,Original*
G04 #@! TF.FileFunction,Legend,Bot*
G04 #@! TF.FilePolarity,Positive*
%FSLAX46Y46*%
G04 Gerber Fmt 4.6, Leading zero omitted, Abs format (unit mm)*
G04 Created by KiCad (PCBNEW (5.1.4-0-10_14)) date 2019-11-30 00:21:07*
%MOMM*%
%LPD*%
G04 APERTURE LIST*
%ADD10C,0.300000*%
%ADD11C,0.150000*%
%ADD12C,0.120000*%
G04 APERTURE END LIST*
D10*
X8861428Y6000571D02*
X8861428Y5214857D01*
X8790000Y5072000D01*
X8647142Y5000571D01*
X8361428Y5000571D01*
X8218571Y5072000D01*
X8861428Y5929142D02*
X8718571Y6000571D01*
X8361428Y6000571D01*
X8218571Y5929142D01*
X8147142Y5786285D01*
X8147142Y5643428D01*
X8218571Y5500571D01*
X8361428Y5429142D01*
X8718571Y5429142D01*
X8861428Y5357714D01*
X8218571Y8550571D02*
X8218571Y7050571D01*
X8218571Y7622000D02*
X8361428Y7550571D01*
X8647142Y7550571D01*
X8790000Y7622000D01*
X8861428Y7693428D01*
X8932857Y7836285D01*
X8932857Y8264857D01*
X8861428Y8407714D01*
X8790000Y8479142D01*
X8647142Y8550571D01*
X8361428Y8550571D01*
X8218571Y8479142D01*
X8897142Y11029142D02*
X8754285Y11100571D01*
X8468571Y11100571D01*
X8325714Y11029142D01*
X8254285Y10957714D01*
X8182857Y10814857D01*
X8182857Y10386285D01*
X8254285Y10243428D01*
X8325714Y10172000D01*
X8468571Y10100571D01*
X8754285Y10100571D01*
X8897142Y10172000D01*
X92046428Y6000571D02*
X92046428Y5214857D01*
X91975000Y5072000D01*
X91832142Y5000571D01*
X91546428Y5000571D01*
X91403571Y5072000D01*
X92046428Y5929142D02*
X91903571Y6000571D01*
X91546428Y6000571D01*
X91403571Y5929142D01*
X91332142Y5786285D01*
X91332142Y5643428D01*
X91403571Y5500571D01*
X91546428Y5429142D01*
X91903571Y5429142D01*
X92046428Y5357714D01*
X91403571Y8550571D02*
X91403571Y7050571D01*
X91403571Y7622000D02*
X91546428Y7550571D01*
X91832142Y7550571D01*
X91975000Y7622000D01*
X92046428Y7693428D01*
X92117857Y7836285D01*
X92117857Y8264857D01*
X92046428Y8407714D01*
X91975000Y8479142D01*
X91832142Y8550571D01*
X91546428Y8550571D01*
X91403571Y8479142D01*
X92082142Y11029142D02*
X91939285Y11100571D01*
X91653571Y11100571D01*
X91510714Y11029142D01*
X91439285Y10957714D01*
X91367857Y10814857D01*
X91367857Y10386285D01*
X91439285Y10243428D01*
X91510714Y10172000D01*
X91653571Y10100571D01*
X91939285Y10100571D01*
X92082142Y10172000D01*
D11*
X15175714Y153612380D02*
X14604285Y153612380D01*
X14890000Y153612380D02*
X14890000Y152612380D01*
X14794761Y152755238D01*
X14699523Y152850476D01*
X14604285Y152898095D01*
X34876666Y152612380D02*
X35495714Y152612380D01*
X35162380Y152993333D01*
X35305238Y152993333D01*
X35400476Y153040952D01*
X35448095Y153088571D01*
X35495714Y153183809D01*
X35495714Y153421904D01*
X35448095Y153517142D01*
X35400476Y153564761D01*
X35305238Y153612380D01*
X35019523Y153612380D01*
X34924285Y153564761D01*
X34876666Y153517142D01*
X45560476Y152945714D02*
X45560476Y153612380D01*
X45322380Y152564761D02*
X45084285Y153279047D01*
X45703333Y153279047D01*
X24764285Y152707619D02*
X24811904Y152660000D01*
X24907142Y152612380D01*
X25145238Y152612380D01*
X25240476Y152660000D01*
X25288095Y152707619D01*
X25335714Y152802857D01*
X25335714Y152898095D01*
X25288095Y153040952D01*
X24716666Y153612380D01*
X25335714Y153612380D01*
X75516666Y152612380D02*
X76183333Y152612380D01*
X75754761Y153612380D01*
X65880476Y152612380D02*
X65690000Y152612380D01*
X65594761Y152660000D01*
X65547142Y152707619D01*
X65451904Y152850476D01*
X65404285Y153040952D01*
X65404285Y153421904D01*
X65451904Y153517142D01*
X65499523Y153564761D01*
X65594761Y153612380D01*
X65785238Y153612380D01*
X65880476Y153564761D01*
X65928095Y153517142D01*
X65975714Y153421904D01*
X65975714Y153183809D01*
X65928095Y153088571D01*
X65880476Y153040952D01*
X65785238Y152993333D01*
X65594761Y152993333D01*
X65499523Y153040952D01*
X65451904Y153088571D01*
X65404285Y153183809D01*
X85914761Y153040952D02*
X85819523Y152993333D01*
X85771904Y152945714D01*
X85724285Y152850476D01*
X85724285Y152802857D01*
X85771904Y152707619D01*
X85819523Y152660000D01*
X85914761Y152612380D01*
X86105238Y152612380D01*
X86200476Y152660000D01*
X86248095Y152707619D01*
X86295714Y152802857D01*
X86295714Y152850476D01*
X86248095Y152945714D01*
X86200476Y152993333D01*
X86105238Y153040952D01*
X85914761Y153040952D01*
X85819523Y153088571D01*
X85771904Y153136190D01*
X85724285Y153231428D01*
X85724285Y153421904D01*
X85771904Y153517142D01*
X85819523Y153564761D01*
X85914761Y153612380D01*
X86105238Y153612380D01*
X86200476Y153564761D01*
X86248095Y153517142D01*
X86295714Y153421904D01*
X86295714Y153231428D01*
X86248095Y153136190D01*
X86200476Y153088571D01*
X86105238Y153040952D01*
X55768095Y152612380D02*
X55291904Y152612380D01*
X55244285Y153088571D01*
X55291904Y153040952D01*
X55387142Y152993333D01*
X55625238Y152993333D01*
X55720476Y153040952D01*
X55768095Y153088571D01*
X55815714Y153183809D01*
X55815714Y153421904D01*
X55768095Y153517142D01*
X55720476Y153564761D01*
X55625238Y153612380D01*
X55387142Y153612380D01*
X55291904Y153564761D01*
X55244285Y153517142D01*
X8301904Y145706666D02*
X8778095Y145706666D01*
X8206666Y145992380D02*
X8540000Y144992380D01*
X8873333Y145992380D01*
X8611428Y132768571D02*
X8754285Y132816190D01*
X8801904Y132863809D01*
X8849523Y132959047D01*
X8849523Y133101904D01*
X8801904Y133197142D01*
X8754285Y133244761D01*
X8659047Y133292380D01*
X8278095Y133292380D01*
X8278095Y132292380D01*
X8611428Y132292380D01*
X8706666Y132340000D01*
X8754285Y132387619D01*
X8801904Y132482857D01*
X8801904Y132578095D01*
X8754285Y132673333D01*
X8706666Y132720952D01*
X8611428Y132768571D01*
X8278095Y132768571D01*
X8849523Y120497142D02*
X8801904Y120544761D01*
X8659047Y120592380D01*
X8563809Y120592380D01*
X8420952Y120544761D01*
X8325714Y120449523D01*
X8278095Y120354285D01*
X8230476Y120163809D01*
X8230476Y120020952D01*
X8278095Y119830476D01*
X8325714Y119735238D01*
X8420952Y119640000D01*
X8563809Y119592380D01*
X8659047Y119592380D01*
X8801904Y119640000D01*
X8849523Y119687619D01*
X8278095Y107892380D02*
X8278095Y106892380D01*
X8516190Y106892380D01*
X8659047Y106940000D01*
X8754285Y107035238D01*
X8801904Y107130476D01*
X8849523Y107320952D01*
X8849523Y107463809D01*
X8801904Y107654285D01*
X8754285Y107749523D01*
X8659047Y107844761D01*
X8516190Y107892380D01*
X8278095Y107892380D01*
X8325714Y94668571D02*
X8659047Y94668571D01*
X8801904Y95192380D02*
X8325714Y95192380D01*
X8325714Y94192380D01*
X8801904Y94192380D01*
X8682857Y81968571D02*
X8349523Y81968571D01*
X8349523Y82492380D02*
X8349523Y81492380D01*
X8825714Y81492380D01*
X8801904Y68840000D02*
X8706666Y68792380D01*
X8563809Y68792380D01*
X8420952Y68840000D01*
X8325714Y68935238D01*
X8278095Y69030476D01*
X8230476Y69220952D01*
X8230476Y69363809D01*
X8278095Y69554285D01*
X8325714Y69649523D01*
X8420952Y69744761D01*
X8563809Y69792380D01*
X8659047Y69792380D01*
X8801904Y69744761D01*
X8849523Y69697142D01*
X8849523Y69363809D01*
X8659047Y69363809D01*
X8254285Y57092380D02*
X8254285Y56092380D01*
X8254285Y56568571D02*
X8825714Y56568571D01*
X8825714Y57092380D02*
X8825714Y56092380D01*
X8540000Y44392380D02*
X8540000Y43392380D01*
X8682857Y30692380D02*
X8682857Y31406666D01*
X8635238Y31549523D01*
X8540000Y31644761D01*
X8397142Y31692380D01*
X8301904Y31692380D01*
D12*
X9810000Y24890000D02*
X9810000Y151890000D01*
X91090000Y24890000D02*
X9810000Y24890000D01*
X91090000Y151890000D02*
X91090000Y24890000D01*
X9810000Y151890000D02*
X91090000Y151890000D01*
X9810000Y139190000D02*
X91090000Y139190000D01*
X91090000Y126490000D02*
X9810000Y126490000D01*
X9810000Y113790000D02*
X91090000Y113790000D01*
X91090000Y101090000D02*
X9810000Y101090000D01*
X9810000Y88390000D02*
X91090000Y88390000D01*
X91090000Y75690000D02*
X9810000Y75690000D01*
X9810000Y62990000D02*
X91090000Y62990000D01*
X91090000Y50290000D02*
X9810000Y50290000D01*
X9810000Y37590000D02*
X91090000Y37590000D01*
X80930000Y151890000D02*
X80930000Y24890000D01*
X70770000Y24890000D02*
X70770000Y151890000D01*
X60610000Y151890000D02*
X60610000Y24890000D01*
X50450000Y24890000D02*
X50450000Y151890000D01*
X40290000Y151890000D02*
X40290000Y24890000D01*
X19970000Y24890000D02*
X19970000Y151890000D01*
X30130000Y151890000D02*
X30130000Y24890000D01*
D10*
X92046428Y16668571D02*
X92046428Y15882857D01*
X91975000Y15740000D01*
X91832142Y15668571D01*
X91546428Y15668571D01*
X91403571Y15740000D01*
X92046428Y16597142D02*
X91903571Y16668571D01*
X91546428Y16668571D01*
X91403571Y16597142D01*
X91332142Y16454285D01*
X91332142Y16311428D01*
X91403571Y16168571D01*
X91546428Y16097142D01*
X91903571Y16097142D01*
X92046428Y16025714D01*
X91403571Y19218571D02*
X91403571Y17718571D01*
X91403571Y18290000D02*
X91546428Y18218571D01*
X91832142Y18218571D01*
X91975000Y18290000D01*
X92046428Y18361428D01*
X92117857Y18504285D01*
X92117857Y18932857D01*
X92046428Y19075714D01*
X91975000Y19147142D01*
X91832142Y19218571D01*
X91546428Y19218571D01*
X91403571Y19147142D01*
X92082142Y21697142D02*
X91939285Y21768571D01*
X91653571Y21768571D01*
X91510714Y21697142D01*
X91439285Y21625714D01*
X91367857Y21482857D01*
X91367857Y21054285D01*
X91439285Y20911428D01*
X91510714Y20840000D01*
X91653571Y20768571D01*
X91939285Y20768571D01*
X92082142Y20840000D01*
X8861428Y16668571D02*
X8861428Y15882857D01*
X8790000Y15740000D01*
X8647142Y15668571D01*
X8361428Y15668571D01*
X8218571Y15740000D01*
X8861428Y16597142D02*
X8718571Y16668571D01*
X8361428Y16668571D01*
X8218571Y16597142D01*
X8147142Y16454285D01*
X8147142Y16311428D01*
X8218571Y16168571D01*
X8361428Y16097142D01*
X8718571Y16097142D01*
X8861428Y16025714D01*
X8218571Y19218571D02*
X8218571Y17718571D01*
X8218571Y18290000D02*
X8361428Y18218571D01*
X8647142Y18218571D01*
X8790000Y18290000D01*
X8861428Y18361428D01*
X8932857Y18504285D01*
X8932857Y18932857D01*
X8861428Y19075714D01*
X8790000Y19147142D01*
X8647142Y19218571D01*
X8361428Y19218571D01*
X8218571Y19147142D01*
X8897142Y21697142D02*
X8754285Y21768571D01*
X8468571Y21768571D01*
X8325714Y21697142D01*
X8254285Y21625714D01*
X8182857Y21482857D01*
X8182857Y21054285D01*
X8254285Y20911428D01*
X8325714Y20840000D01*
X8468571Y20768571D01*
X8754285Y20768571D01*
X8897142Y20840000D01*
D11*
X9865357Y12404380D02*
X10484404Y12404380D01*
X10151071Y12785333D01*
X10293928Y12785333D01*
X10389166Y12832952D01*
X10436785Y12880571D01*
X10484404Y12975809D01*
X10484404Y13213904D01*
X10436785Y13309142D01*
X10389166Y13356761D01*
X10293928Y13404380D01*
X10008214Y13404380D01*
X9912976Y13356761D01*
X9865357Y13309142D01*
X10865357Y12499619D02*
X10912976Y12452000D01*
X11008214Y12404380D01*
X11246309Y12404380D01*
X11341547Y12452000D01*
X11389166Y12499619D01*
X11436785Y12594857D01*
X11436785Y12690095D01*
X11389166Y12832952D01*
X10817738Y13404380D01*
X11436785Y13404380D01*
X27817738Y12499619D02*
X27865357Y12452000D01*
X27960595Y12404380D01*
X28198690Y12404380D01*
X28293928Y12452000D01*
X28341547Y12499619D01*
X28389166Y12594857D01*
X28389166Y12690095D01*
X28341547Y12832952D01*
X27770119Y13404380D01*
X28389166Y13404380D01*
X29293928Y12404380D02*
X28817738Y12404380D01*
X28770119Y12880571D01*
X28817738Y12832952D01*
X28912976Y12785333D01*
X29151071Y12785333D01*
X29246309Y12832952D01*
X29293928Y12880571D01*
X29341547Y12975809D01*
X29341547Y13213904D01*
X29293928Y13309142D01*
X29246309Y13356761D01*
X29151071Y13404380D01*
X28912976Y13404380D01*
X28817738Y13356761D01*
X28770119Y13309142D01*
X40389166Y12499619D02*
X40436785Y12452000D01*
X40532023Y12404380D01*
X40770119Y12404380D01*
X40865357Y12452000D01*
X40912976Y12499619D01*
X40960595Y12594857D01*
X40960595Y12690095D01*
X40912976Y12832952D01*
X40341547Y13404380D01*
X40960595Y13404380D01*
X41579642Y12404380D02*
X41674880Y12404380D01*
X41770119Y12452000D01*
X41817738Y12499619D01*
X41865357Y12594857D01*
X41912976Y12785333D01*
X41912976Y13023428D01*
X41865357Y13213904D01*
X41817738Y13309142D01*
X41770119Y13356761D01*
X41674880Y13404380D01*
X41579642Y13404380D01*
X41484404Y13356761D01*
X41436785Y13309142D01*
X41389166Y13213904D01*
X41341547Y13023428D01*
X41341547Y12785333D01*
X41389166Y12594857D01*
X41436785Y12499619D01*
X41484404Y12452000D01*
X41579642Y12404380D01*
X53532023Y13404380D02*
X52960595Y13404380D01*
X53246309Y13404380D02*
X53246309Y12404380D01*
X53151071Y12547238D01*
X53055833Y12642476D01*
X52960595Y12690095D01*
X54436785Y12404380D02*
X53960595Y12404380D01*
X53912976Y12880571D01*
X53960595Y12832952D01*
X54055833Y12785333D01*
X54293928Y12785333D01*
X54389166Y12832952D01*
X54436785Y12880571D01*
X54484404Y12975809D01*
X54484404Y13213904D01*
X54436785Y13309142D01*
X54389166Y13356761D01*
X54293928Y13404380D01*
X54055833Y13404380D01*
X53960595Y13356761D01*
X53912976Y13309142D01*
X66865357Y13404380D02*
X66293928Y13404380D01*
X66579642Y13404380D02*
X66579642Y12404380D01*
X66484404Y12547238D01*
X66389166Y12642476D01*
X66293928Y12690095D01*
X67484404Y12404380D02*
X67579642Y12404380D01*
X67674880Y12452000D01*
X67722500Y12499619D01*
X67770119Y12594857D01*
X67817738Y12785333D01*
X67817738Y13023428D01*
X67770119Y13213904D01*
X67722500Y13309142D01*
X67674880Y13356761D01*
X67579642Y13404380D01*
X67484404Y13404380D01*
X67389166Y13356761D01*
X67341547Y13309142D01*
X67293928Y13213904D01*
X67246309Y13023428D01*
X67246309Y12785333D01*
X67293928Y12594857D01*
X67341547Y12499619D01*
X67389166Y12452000D01*
X67484404Y12404380D01*
X79389166Y12404380D02*
X78912976Y12404380D01*
X78865357Y12880571D01*
X78912976Y12832952D01*
X79008214Y12785333D01*
X79246309Y12785333D01*
X79341547Y12832952D01*
X79389166Y12880571D01*
X79436785Y12975809D01*
X79436785Y13213904D01*
X79389166Y13309142D01*
X79341547Y13356761D01*
X79246309Y13404380D01*
X79008214Y13404380D01*
X78912976Y13356761D01*
X78865357Y13309142D01*
X89532023Y13404380D02*
X88960595Y13404380D01*
X89246309Y13404380D02*
X89246309Y12404380D01*
X89151071Y12547238D01*
X89055833Y12642476D01*
X88960595Y12690095D01*
M02*
