M48
; DRILL file {KiCad (5.1.4-0-10_14)} date Friday, 29 November 2019 at 23:10:51
; FORMAT={-:-/ absolute / inch / decimal}
; #@! TF.CreationDate,2019-11-29T23:10:51+01:00
; #@! TF.GenerationSoftware,Kicad,Pcbnew,(5.1.4-0-10_14)
FMAT,2
INCH
T1C0.0394
T2C0.1063
T3C0.1102
%
G90
G05
T1
X2.8362Y5.9299
X1.6362Y5.7299
X2.6362Y5.6299
X2.4362Y4.9299
X2.5362Y4.8299
X3.4362Y5.0299
X2.6362Y4.7299
X3.4362Y4.6299
X3.5362Y4.5299
X3.4362Y4.5299
X3.3362Y5.5299
X3.2362Y5.5299
X3.1362Y5.5299
X1.0362Y4.2299
X3.0362Y3.8299
X2.1362Y4.5299
X2.5362Y4.4299
X2.0362Y3.3299
X1.9362Y3.3299
X2.7362Y3.7299
X2.6362Y3.7299
X2.2362Y3.4299
X0.8362Y3.2299
X3.4362Y3.0299
X2.3362Y3.0299
X3.5362Y3.1299
X3.4362Y2.9299
X3.5362Y5.9299
X3.2362Y5.6299
X0.4362Y5.8299
X3.1362Y4.8299
X2.8362Y5.3299
X1.5362Y5.3299
X2.1362Y4.3299
X2.7362Y5.0299
X2.2362Y5.9299
X2.1362Y5.9299
X1.0362Y5.7299
X2.1362Y5.6299
X3.5362Y5.1299
X0.4362Y4.9299
X1.3362Y4.4299
X1.2362Y4.4299
X1.1362Y4.4299
X2.8362Y5.0299
X2.8362Y4.6299
X0.4362Y4.2299
X3.0362Y4.0299
X2.9362Y4.0299
X1.6362Y4.0299
X2.4362Y3.9299
X0.7362Y4.5299
X1.3362Y3.6299
X2.8362Y3.5299
X1.8362Y4.8299
X0.5362Y2.9299
X1.6362Y3.8299
X1.1362Y3.5299
X2.0362Y2.9299
X2.0362Y2.2299
X2.7362Y2.8299
X0.7362Y2.1299
X0.6362Y2.1299
X3.0362Y2.0299
X0.4362Y3.1299
X1.4362Y2.8299
X0.9362Y2.5299
X1.0362Y3.4299
X0.4362Y2.9299
X0.6362Y2.0299
X0.5362Y3.3299
X0.4362Y3.3299
X2.8362Y2.8299
X3.4362Y1.6299
X3.1362Y2.6299
X3.0362Y2.6299
X2.6362Y5.7299
X2.7362Y2.4299
X0.8362Y1.1299
X0.8362Y1.9299
X0.6362Y1.8299
X1.8362Y1.7299
X1.5362Y2.6299
X0.4362Y2.4299
X0.4362Y1.7299
X1.1362Y1.4299
X3.0362Y1.3299
X2.5362Y0.8299
X3.7354Y5.4339
X1.1362Y5.6299
X2.6362Y0.8299
X2.9362Y0.7299
X1.8362Y1.5299
X3.7354Y5.3339
X3.7354Y3.0339
X3.7354Y1.6339
X3.1362Y5.8299
X2.0362Y5.8299
X1.4362Y5.5299
X1.3362Y5.5299
X0.6362Y5.4299
X1.7362Y5.8299
X3.0362Y5.7299
X0.7362Y5.1299
X0.8362Y4.8299
X1.5362Y0.7299
X1.8362Y4.9299
X1.4362Y5.2299
X3.5362Y1.4299
X2.1362Y1.6299
X2.6362Y2.4299
X2.5362Y2.4299
X1.7362Y2.3299
X3.2362Y1.9299
X3.2362Y1.8299
X3.1362Y1.8299
X3.0362Y1.7299
X1.6362Y1.3299
X2.5362Y0.6299
X1.0362Y0.9299
X0.2362Y3.8299
X2.9362Y5.5299
X2.1362Y5.1299
X1.7362Y5.0299
X0.4362Y5.0299
X3.3362Y4.7299
X3.5362Y5.2299
X0.4362Y4.0299
X1.3362Y5.2299
X2.0362Y4.7299
X1.9362Y4.7299
X0.5362Y4.7299
X1.6362Y4.6299
X0.8362Y4.1299
X1.2362Y3.9299
X1.6362Y4.2299
X0.7362Y4.1299
X3.4362Y5.2299
X3.1362Y4.2299
X0.8362Y4.3299
X2.8362Y3.8299
X1.9362Y4.5299
X1.8362Y4.5299
X2.3362Y4.4299
X2.1362Y4.1299
X3.0362Y3.6299
X3.3362Y3.3299
X1.9362Y2.6299
X1.8362Y2.6299
X1.9362Y1.8299
X1.4362Y3.7299
X3.2362Y3.2299
X1.0362Y3.0299
X2.9362Y2.7299
X1.6362Y2.7299
X1.5362Y2.7299
X3.2362Y2.1299
X1.0362Y1.6299
X1.5362Y2.4299
X0.6362Y2.3299
X2.1362Y1.9299
X2.4362Y1.4299
X0.4362Y1.3299
X2.6362Y1.2299
X1.4362Y1.2299
X3.4362Y2.6299
X3.3362Y1.1299
X2.7362Y3.8299
X3.1362Y3.4299
X2.0362Y3.2299
X1.6362Y3.1299
X2.3362Y2.5299
X2.2362Y2.5299
X1.7362Y2.2299
X0.4362Y1.0299
X2.7362Y0.9299
X1.9362Y5.1299
X3.5362Y4.1299
X3.1362Y2.3299
X2.3362Y5.7299
X2.2362Y5.7299
X3.0362Y2.2299
X2.0362Y1.1299
X1.0362Y0.8299
X1.2362Y0.6299
X0.2362Y2.5299
X0.2362Y1.0299
X1.6362Y5.9299
X0.4362Y2.2299
X1.8362Y5.1299
X1.7362Y5.9299
X2.3362Y1.0299
X2.2362Y1.0299
X3.1362Y1.5299
X1.7362Y2.0299
X1.5362Y5.8299
X0.2362Y5.1299
X3.4362Y5.9299
X1.9362Y2.1299
X1.8362Y2.1299
X1.1362Y0.8299
X2.0362Y5.9299
X0.9362Y5.7299
X3.1362Y5.6299
X0.2362Y5.0299
X3.7354Y4.0339
X2.4362Y3.7299
X2.2362Y4.4299
X1.7362Y3.3299
X2.0362Y3.4299
X0.6362Y3.2299
X3.2362Y3.0299
X2.1362Y3.0299
X3.3362Y3.1299
X3.1362Y2.9299
X1.8362Y2.9299
X1.7362Y2.9299
X0.7362Y2.5299
X0.4362Y2.0299
X0.9362Y1.6299
X0.8362Y1.6299
X1.8362Y1.8299
X1.7362Y1.8299
X3.0362Y4.8299
X3.7354Y2.7339
X2.6362Y5.0299
X1.6362Y1.7299
X0.9362Y5.6299
X3.5362Y5.4299
X3.4362Y5.1299
X3.2362Y4.9299
X3.1362Y4.9299
X1.7362Y4.8299
X0.6362Y1.1299
X2.7362Y0.7299
X2.6362Y0.7299
X1.7362Y5.1299
X1.4362Y5.3299
X2.0362Y5.6299
X1.4362Y5.0299
X2.6362Y4.6299
X1.1362Y5.5299
X1.0362Y5.5299
X0.6362Y4.8299
X2.7362Y5.3299
X1.8362Y5.4299
X2.7362Y4.6299
X1.3362Y4.6299
X3.0362Y4.3299
X1.8362Y4.3299
X2.8362Y4.2299
X1.0362Y5.6299
X1.2362Y5.5299
X1.9362Y5.4299
X0.7362Y4.8299
X1.6362Y5.0299
X1.5362Y5.0299
X1.5362Y4.6299
X1.4362Y4.6299
X3.1362Y4.3299
X2.0362Y4.3299
X1.9362Y4.3299
X3.0362Y4.2299
X2.9362Y4.2299
X1.1362Y3.9299
X1.0362Y3.9299
X2.9362Y3.6299
X2.0362Y3.6299
X3.2362Y3.3299
X3.5362Y2.5299
X3.1362Y3.2299
X3.0362Y3.2299
X0.9362Y3.0299
X2.8362Y2.7299
X1.4362Y2.7299
X3.1362Y2.1299
X3.0362Y2.1299
X2.9362Y2.1299
X1.4362Y2.4299
X0.5362Y2.3299
X2.0362Y1.9299
X1.9362Y1.9299
X2.3362Y1.4299
X2.2362Y1.4299
X3.2362Y1.1299
X2.5362Y1.2299
X1.3362Y1.2299
X2.6362Y0.9299
X3.0362Y1.5299
X2.9362Y1.5299
X3.4362Y4.1299
X0.2362Y2.4299
X1.5362Y5.9299
X3.3362Y5.9299
X2.1362Y5.7299
X3.0362Y5.6299
X1.7362Y5.4299
X1.6362Y5.4299
X3.0362Y4.9299
X2.9362Y4.8299
X2.6362Y5.3299
X1.3362Y5.3299
X3.2362Y4.7299
X3.1362Y4.7299
X2.7362Y4.0299
X3.0362Y4.5299
X0.5362Y4.5299
X0.9362Y4.4299
X1.1362Y3.6299
X2.3362Y3.5299
X1.4362Y3.8299
X0.8362Y3.4299
X2.5362Y2.8299
X3.2362Y1.6299
X3.1362Y1.6299
X1.2362Y2.6299
X0.6362Y1.9299
X2.5362Y5.0299
X2.8362Y4.0299
X3.1362Y4.5299
X0.6362Y4.5299
X1.0362Y4.4299
X1.2362Y3.6299
X2.4362Y3.5299
X1.5362Y3.8299
X0.9362Y3.4299
X2.6362Y2.8299
X2.9362Y2.0299
X3.3362Y1.6299
X1.4362Y2.6299
X1.3362Y2.6299
X0.7362Y1.9299
X0.5362Y1.8299
X0.4362Y1.8299
X1.0362Y1.4299
X0.9362Y1.4299
X2.9362Y1.3299
X2.8362Y1.3299
X2.4362Y0.8299
X1.4362Y0.7299
X1.6362Y0.9299
X1.7362Y1.5299
X1.6362Y5.8299
X2.4362Y0.6299
X2.5362Y5.7299
X1.0362Y3.5299
X0.9362Y3.5299
X2.9362Y2.6299
X1.3362Y2.8299
X2.4362Y2.4299
X3.1362Y1.9299
X3.4362Y1.4299
X1.5362Y1.3299
X1.8362Y4.1299
X0.5362Y2.1299
X3.7354Y5.2339
X1.5362Y4.0299
X2.3362Y3.9299
X0.4362Y3.0299
X2.0362Y1.6299
X1.6362Y2.3299
X3.0362Y1.8299
X2.9362Y1.7299
X2.8362Y1.7299
X0.9362Y0.9299
X0.2362Y3.7299
X0.2362Y3.6299
X3.7354Y1.5339
X0.5362Y3.0299
X2.8362Y5.5299
X0.4362Y4.7299
X0.5362Y5.4299
X2.7362Y5.5299
X2.9362Y5.7299
X2.0362Y5.1299
X0.6362Y5.1299
X1.7362Y4.9299
X1.8362Y4.7299
X0.6362Y4.1299
X3.5362Y3.9299
X3.0362Y3.4299
X1.9362Y3.2299
X1.7362Y4.5299
X1.6362Y3.3299
X2.6362Y3.8299
X3.3362Y5.2299
X1.2362Y5.2299
X0.7362Y4.3299
X1.5362Y4.2299
X3.5362Y4.4299
X2.1362Y4.4299
X1.5362Y3.3299
X2.3362Y3.7299
X1.9362Y3.4299
X0.5362Y3.2299
X1.5362Y3.1299
X1.5362Y4.1299
X3.1362Y3.0299
X3.0362Y3.0299
X3.3362Y2.6299
X3.2362Y3.1299
X3.1362Y3.1299
X3.0362Y2.9299
X1.6362Y2.9299
X2.1362Y2.5299
X1.6362Y2.2299
X1.7362Y2.1299
X1.6362Y2.0299
X3.0362Y2.3299
X2.9362Y2.3299
X2.9362Y2.2299
X1.9362Y1.1299
X3.4362Y1.0299
X2.1362Y1.0299
X3.3362Y2.5299
X0.9362Y3.9299
X2.8362Y3.6299
X1.9362Y3.6299
X3.1362Y3.3299
X3.0362Y3.3299
X3.4362Y2.5299
X2.9362Y3.2299
X0.8362Y3.0299
X2.7362Y2.7299
X1.3362Y2.7299
X2.8362Y2.1299
X2.8362Y2.0299
X2.7362Y2.0299
X1.3362Y2.4299
X0.4362Y2.3299
X1.8362Y1.9299
X2.1362Y1.4299
X2.4362Y1.2299
X1.2362Y1.2299
X2.5362Y0.9299
X2.8362Y1.5299
X3.3362Y4.1299
X0.2362Y2.3299
X1.4362Y5.9299
X3.2362Y5.9299
X3.1362Y5.9299
X2.0362Y5.7299
X0.8362Y5.7299
X0.7362Y5.7299
X0.6362Y5.7299
X2.9362Y5.6299
X1.5362Y5.4299
X2.7362Y5.4299
X2.9362Y4.9299
X2.8362Y4.8299
X2.5362Y5.3299
X2.4362Y5.3299
X1.2362Y5.3299
X3.0362Y4.7299
X2.6362Y4.0299
X2.5362Y4.0299
X2.9362Y4.5299
X2.8362Y4.5299
X0.4362Y4.5299
X0.8362Y4.4299
X1.0362Y3.6299
X0.5362Y1.9299
X2.0362Y1.0299
X0.7362Y3.4299
X2.5362Y2.7299
X0.5362Y1.1299
X2.2362Y3.5299
X2.4362Y2.8299
X2.6362Y2.7299
X1.5362Y1.7299
X2.2362Y0.8299
X2.4362Y0.7299
X1.1362Y2.6299
X0.9362Y0.8299
X0.6362Y2.5299
X0.7362Y1.6299
X3.0362Y1.6299
X1.6362Y1.8299
X1.5362Y1.8299
X0.7362Y1.4299
X2.5362Y1.3299
X2.5362Y0.7299
X1.3362Y3.8299
X3.0362Y1.1299
X2.9362Y1.1299
X0.4362Y1.1299
X3.5362Y1.1299
X1.2362Y3.8299
X1.2362Y0.7299
X3.4362Y0.6299
X1.1362Y0.6299
X3.3362Y0.6299
X1.4362Y1.5299
X1.8362Y3.6299
X0.2362Y4.9299
X3.7354Y3.9339
X0.2362Y0.9299
X1.9362Y5.9299
X1.9362Y5.6299
X3.3362Y5.1299
X3.2362Y5.1299
X1.6362Y4.8299
X2.5362Y4.6299
X1.4362Y4.0299
X1.3362Y4.0299
X2.2362Y3.9299
X0.8362Y3.5299
X2.8362Y2.6299
X2.0362Y3.0299
X1.9362Y3.0299
X1.2362Y2.8299
X1.1362Y2.8299
X0.4362Y2.1299
X1.9362Y1.6299
X2.3362Y2.4299
X3.7354Y2.6339
X0.8362Y5.6299
X0.9362Y5.5299
X3.4362Y5.4299
X1.6362Y5.1299
X0.5362Y4.8299
X1.3362Y5.0299
X1.7362Y4.7299
X1.6362Y4.7299
X1.2362Y4.6299
X1.1362Y4.6299
X2.9362Y4.3299
X1.7362Y4.3299
X2.7362Y4.2299
X2.6362Y4.2299
X0.8362Y3.9299
X2.0362Y4.1299
X2.7362Y3.6299
X2.6362Y3.6299
X2.9362Y3.3299
X3.2362Y2.5299
X2.8362Y3.2299
X0.7362Y3.0299
X1.2362Y2.7299
X2.7362Y2.1299
X1.5362Y2.3299
X3.0362Y1.9299
X2.9362Y1.8299
X2.7362Y1.7299
X3.7354Y5.1339
X2.0362Y1.4299
X2.6362Y1.3299
X1.4362Y1.3299
X1.2362Y2.4299
X0.8362Y1.4299
X2.7362Y1.3299
X2.6362Y2.0299
X1.7362Y1.9299
X3.3362Y1.4299
X3.1362Y1.1299
X3.5362Y1.5299
X2.3362Y1.2299
X3.7354Y1.3339
X3.5362Y0.9299
X0.8362Y0.9299
X1.1362Y1.2299
X2.3362Y0.8299
X1.3362Y0.7299
X1.6362Y1.5299
X1.5362Y1.5299
X2.5362Y5.4299
X0.2362Y3.5299
X2.4362Y0.9299
X3.5362Y0.6299
X1.7362Y4.1299
X3.2362Y4.1299
X0.2362Y2.2299
X3.7354Y1.4339
X2.3362Y0.6299
X2.7362Y1.5299
X0.2362Y2.1299
X3.3362Y4.4299
X1.3362Y1.5299
X1.6362Y4.1299
X3.7354Y5.0339
X3.7354Y1.2339
X3.7354Y1.0339
X0.4362Y5.1299
X1.5362Y4.9299
X1.4362Y4.9299
X0.9362Y5.2299
X0.4362Y4.3299
X1.2362Y4.2299
X0.4362Y4.1299
X3.3362Y3.9299
X2.4362Y3.8299
X3.4362Y3.7299
X2.8362Y3.4299
X1.6362Y3.2299
X1.2362Y3.1299
X1.8362Y2.5299
X1.4362Y2.2299
X1.3362Y2.0299
X3.4362Y2.4299
X2.7362Y2.3299
X2.7362Y2.2299
X1.6362Y1.1299
X3.2362Y1.0299
X2.8362Y5.7299
X1.8362Y1.0299
X0.7362Y0.8299
X0.2362Y4.7299
X3.0362Y5.9299
X2.8362Y5.6299
X1.7362Y5.6299
X2.7362Y5.7299
X0.2362Y4.6299
X3.7354Y3.7339
X2.7362Y5.8299
X0.4362Y5.4299
X1.3362Y5.9299
X1.9362Y5.7299
X0.2362Y0.7299
X0.5362Y5.7299
X0.8362Y0.6299
X2.4362Y5.5299
X3.0362Y5.1299
X0.5362Y5.1299
X1.6362Y4.9299
X1.3362Y4.2299
X1.4362Y4.1299
X3.2362Y5.2299
X1.1362Y5.2299
X1.0362Y5.2299
X0.6362Y4.3299
X0.5362Y4.3299
X1.4362Y4.2299
X0.5362Y4.1299
X3.4362Y3.9299
X3.4362Y4.4299
X1.6362Y4.5299
X2.0362Y4.4299
X3.5362Y4.3299
X1.3362Y4.1299
X2.4362Y4.0299
X1.1362Y4.0299
X1.2362Y4.1299
X2.8362Y4.9299
X2.9362Y4.7299
X1.0362Y4.0299
X0.8362Y3.7299
X2.0362Y3.5299
X1.9362Y3.9299
X0.9362Y3.6299
X2.3362Y4.6299
X0.5362Y3.5299
X1.4362Y3.3299
X2.7362Y4.8299
X2.3362Y5.0299
X2.7362Y4.5299
X0.7362Y4.4299
X1.4362Y4.8299
X2.3362Y5.3299
X1.1362Y5.3299
X1.0362Y5.3299
X2.4362Y5.2299
X0.6362Y4.4299
X2.1362Y3.5299
X3.5362Y2.4299
X2.5362Y3.8299
X3.5362Y3.7299
X1.8362Y3.2299
X1.7362Y3.2299
X1.4362Y3.1299
X1.3362Y3.1299
X1.5362Y2.0299
X2.9362Y3.0299
X2.0362Y2.5299
X1.9362Y2.5299
X2.4362Y2.7299
X1.6362Y2.1299
X1.4362Y2.0299
X2.2362Y3.7299
X2.9362Y3.4299
X1.8362Y3.4299
X0.4362Y3.2299
X3.0362Y3.1299
X1.5362Y2.9299
X0.5362Y2.5299
X1.5362Y2.2299
X2.9362Y2.9299
X2.9362Y1.6299
X0.6362Y1.6299
X2.6362Y2.6299
X1.1362Y3.8299
X0.6362Y3.4299
X1.7362Y3.0299
X2.3362Y2.8299
X2.2362Y2.8299
X0.9362Y2.8299
X0.8362Y2.8299
X3.5362Y2.7299
X1.5362Y2.1299
X1.4362Y2.1299
X1.0362Y2.6299
X1.6362Y1.6299
X1.7362Y1.1299
X1.8362Y1.1299
X3.3362Y1.0299
X1.9362Y1.0299
X0.6362Y1.4299
X2.8362Y1.1299
X3.3362Y1.5299
X2.4362Y1.3299
X2.1362Y2.4299
X2.8362Y2.3299
X2.8362Y2.2299
X1.4362Y1.8299
X1.4362Y1.7299
X1.3362Y1.7299
X0.4362Y1.9299
X2.7362Y1.8299
X3.1362Y1.4299
X3.0362Y1.4299
X1.2362Y1.3299
X1.1362Y1.3299
X3.3362Y1.2299
X0.8362Y0.8299
X1.3362Y2.3299
X1.2362Y2.3299
X2.7362Y1.9299
X2.3362Y0.7299
X3.5362Y0.7299
X1.1362Y0.7299
X2.8362Y1.9299
X2.7362Y2.6299
X1.0362Y0.6299
X0.9362Y0.6299
X2.6362Y5.4299
X0.2362Y4.8299
X3.7354Y3.8339
X3.7354Y2.5339
X3.7354Y2.4339
X0.2362Y0.8299
X2.8362Y5.8299
X1.8362Y5.6299
X2.5362Y5.5299
X3.7354Y0.9339
X1.5362Y4.8299
X0.4362Y4.8299
X3.2362Y0.6299
X2.2362Y5.2299
X0.8362Y5.2299
X2.4362Y5.0299
X1.2362Y5.0299
X3.7354Y1.1339
X1.3362Y4.9299
X1.5362Y4.7299
X2.4362Y4.6299
X0.8362Y5.5299
X0.7362Y5.5299
X1.0362Y4.6299
X1.2362Y1.5299
X0.7362Y5.6299
X2.6362Y5.5299
X1.5362Y5.1299
X1.6362Y4.3299
X2.5362Y4.2299
X2.3362Y5.4299
X3.3362Y5.4299
X3.1362Y5.1299
X1.4362Y5.4299
X1.3362Y5.4299
X1.1362Y4.1299
X1.2362Y4.0299
X2.1362Y3.9299
X2.0362Y3.9299
X0.9362Y3.7299
X0.7362Y3.5299
X0.6362Y3.5299
X1.8362Y3.0299
X1.0362Y2.8299
X1.8362Y1.6299
X1.7362Y1.6299
X2.2362Y2.4299
X1.4362Y2.3299
X2.9362Y1.9299
X2.8362Y1.8299
X2.6362Y1.7299
X3.2362Y1.4299
X3.4362Y1.5299
X1.3362Y1.3299
X3.5362Y1.2299
X3.4362Y1.2299
X3.4362Y0.9299
X2.2362Y0.6299
X2.1362Y0.6299
X0.7362Y0.9299
X2.4362Y5.4299
X0.2362Y3.4299
X3.5362Y5.3299
X3.1362Y5.2299
X3.0362Y5.2299
X2.3362Y5.2299
X2.8362Y4.3299
X2.7362Y4.3299
X1.5362Y4.5299
X1.4362Y4.5299
X1.9362Y4.4299
X3.4362Y4.3299
X3.5362Y3.5299
X3.4362Y3.5299
X1.3362Y3.3299
X1.7362Y3.4299
X2.8362Y3.0299
X2.9362Y3.1299
X2.8362Y2.9299
X1.4362Y2.9299
X3.5362Y2.8299
X2.3362Y2.7299
X0.4362Y2.5299
X0.5362Y1.6299
X0.4362Y1.6299
X1.3362Y1.8299
X1.2362Y1.7299
X1.1362Y1.7299
X3.5362Y0.8299
X3.4362Y0.8299
X2.2362Y0.7299
X2.2362Y5.4299
X3.7354Y2.3339
X0.6362Y5.6299
X0.6362Y5.5299
X3.2362Y5.4299
X1.2362Y5.4299
X1.4362Y5.1299
X2.1362Y5.2299
X2.0362Y5.2299
X1.1362Y5.0299
X1.4362Y4.7299
X1.3362Y4.7299
X0.9362Y4.6299
X1.5362Y4.3299
X2.4362Y4.2299
X2.3362Y4.2299
X0.6362Y3.9299
X0.5362Y3.9299
X1.3362Y3.7299
X2.5362Y3.6299
X2.6362Y3.5299
X2.5362Y3.5299
X2.7362Y3.3299
X2.6362Y3.3299
X2.6362Y3.2299
X2.3362Y3.1299
X1.0362Y2.7299
X2.5362Y2.1299
X2.0362Y0.6299
X0.9362Y1.2299
X2.3362Y2.0299
X2.0362Y1.2299
X2.1362Y1.2299
X0.2362Y3.3299
X3.3362Y0.9299
X0.6362Y0.9299
X1.0362Y2.4299
X1.5362Y1.9299
X1.8362Y1.4299
X3.4362Y5.3299
X0.9362Y2.4299
X3.0362Y1.0299
X3.1362Y1.0299
X2.9362Y5.2299
X1.1362Y4.2299
X2.6362Y4.3299
X2.1362Y5.3299
X0.5362Y0.9299
X2.0362Y5.3299
X1.9362Y0.8299
X1.0362Y0.7299
X0.9362Y0.7299
X2.2362Y0.9299
X3.7354Y0.6339
X2.5362Y1.5299
X2.0362Y5.4299
X2.9362Y4.1299
X0.2362Y1.9299
X3.7354Y4.7339
X1.0362Y5.9299
X3.4362Y2.8299
X3.5362Y1.0299
X2.7362Y3.2299
X3.2362Y3.9299
X0.7362Y3.9299
X3.2362Y4.4299
X3.1362Y4.4299
X2.1362Y3.7299
X1.7362Y3.6299
X2.7362Y3.5299
X2.8362Y3.3299
X3.3362Y3.7299
X2.7362Y3.4299
X1.5362Y3.2299
X1.4362Y3.2299
X1.2362Y3.3299
X1.1362Y3.3299
X1.8362Y3.5299
X0.6362Y3.0299
X3.3362Y3.5299
X1.1362Y3.1299
X1.3362Y4.5299
X1.8362Y4.4299
X3.3362Y4.3299
X1.0362Y4.1299
X0.4362Y4.4299
X2.1362Y3.8299
X0.9362Y3.8299
X2.0362Y3.7299
X2.8362Y3.1299
X2.7362Y2.9299
X2.6362Y2.9299
X1.3362Y2.9299
X3.1362Y3.9299
X3.0362Y3.9299
X1.6362Y3.4299
X0.9362Y4.2299
X2.2362Y4.0299
X0.7362Y3.6299
X2.0362Y2.8299
X1.1362Y2.7299
X2.6362Y2.1299
X2.5362Y2.0299
X2.4362Y2.0299
X1.1362Y2.4299
X1.6362Y1.9299
X1.9362Y1.4299
X2.2362Y1.2299
X1.0362Y1.2299
X2.1362Y0.8299
X2.0362Y0.8299
X2.3362Y0.9299
X2.3362Y2.2299
X2.6362Y1.5299
X2.5362Y5.9299
X1.4362Y5.7299
X2.4362Y5.6299
X1.3362Y5.6299
X3.4362Y5.5299
X1.9362Y4.1299
X3.4362Y5.7299
X0.7362Y4.2299
X1.9362Y4.0299
X2.5362Y5.1299
X2.2362Y4.8299
X2.1362Y4.8299
X1.8362Y5.5299
X1.7362Y5.5299
X3.1362Y5.0299
X2.4362Y4.7299
X3.1362Y4.6299
X3.2362Y4.5299
X3.4362Y4.2299
X3.3362Y4.2299
X2.0362Y4.0299
X1.9362Y5.0299
X1.8362Y4.6299
X0.6362Y4.0299
X2.8362Y3.9299
X1.0362Y4.8299
X3.2362Y4.6299
X1.5362Y3.9299
X1.4362Y3.5299
X1.5362Y3.5299
X1.2362Y3.7299
X1.1362Y3.7299
X3.2362Y3.6299
X0.5362Y3.6299
X1.6362Y3.5299
X2.2362Y3.3299
X2.1362Y2.6299
X1.7362Y3.7299
X1.6362Y3.7299
X2.5362Y1.6299
X0.8362Y3.1299
X0.7362Y3.1299
X1.8362Y2.8299
X1.7362Y2.8299
X2.7362Y2.5299
X2.6362Y2.5299
X1.0362Y2.1299
X0.6362Y2.6299
X3.5362Y1.9299
X3.5362Y1.8299
X1.2362Y1.6299
X3.5362Y3.2299
X3.4362Y3.2299
X1.3362Y3.0299
X0.4362Y2.8299
X3.1362Y2.7299
X3.2362Y2.6299
X0.8362Y2.3299
X1.9362Y1.3299
X0.6362Y1.0299
X2.9362Y0.9299
X0.2362Y2.8299
X2.9362Y5.3299
X1.6362Y5.3299
X3.1362Y3.8299
X3.5362Y2.1299
X3.4362Y2.1299
X1.7362Y2.4299
X2.8362Y1.2299
X3.3362Y5.6299
X2.2362Y4.3299
X2.2362Y4.5299
X2.1362Y1.8299
X1.6362Y1.2299
X2.8362Y0.6299
X2.8362Y5.2299
X2.7362Y5.2299
X0.2362Y4.2299
X2.3362Y1.9299
X2.6362Y1.4299
X1.3362Y0.9299
X0.2362Y4.1299
X0.6362Y1.3299
X0.5362Y5.8299
X3.2362Y4.8299
X3.1362Y4.0299
X0.8362Y4.5299
X0.8362Y5.4299
X3.3362Y5.7299
X3.2362Y5.7299
X1.0362Y5.1299
X0.9362Y5.1299
X3.4362Y4.9299
X2.0362Y4.9299
X1.6362Y5.2299
X0.7362Y5.0299
X0.6362Y5.0299
X2.3362Y4.7299
X2.2362Y4.7299
X0.9362Y4.7299
X0.8362Y4.7299
X0.4362Y4.6299
X1.1362Y4.3299
X1.9362Y4.2299
X1.8362Y4.2299
X0.5362Y3.8299
X3.4362Y3.4299
X2.2362Y3.2299
X1.8362Y3.1299
X0.6362Y2.2299
X2.1362Y2.1299
X1.9362Y2.0299
X3.3362Y2.3299
X3.3362Y2.2299
X2.2362Y1.1299
X2.5362Y1.0299
X0.4362Y1.2299
X1.5362Y0.8299
X1.4362Y0.8299
X0.5362Y0.7299
X1.8362Y0.9299
X1.6362Y0.6299
X1.5362Y0.6299
X2.4362Y4.1299
X0.2362Y5.3299
X3.7354Y5.7339
X3.7354Y4.2339
X0.2362Y1.3299
X0.5362Y5.9299
X2.3362Y5.9299
X1.1362Y5.7299
X2.2362Y5.6299
X0.6362Y4.9299
X0.5362Y4.9299
X1.9362Y4.8299
X2.9362Y5.0299
X2.9362Y4.6299
X0.5362Y4.2299
X1.7362Y4.0299
X0.4362Y3.7299
X2.8362Y3.7299
X1.4362Y3.6299
X2.4362Y3.0299
X0.6362Y3.3299
X1.7362Y2.7299
X2.6362Y3.9299
X2.5362Y3.9299
X2.6362Y4.4299
X1.4362Y4.4299
X2.1362Y2.9299
X2.9362Y3.5299
X2.3362Y3.4299
X2.2362Y2.9299
X1.5362Y3.6299
X1.0362Y3.2299
X0.9362Y3.2299
X3.5362Y3.0299
X0.7362Y2.9299
X0.6362Y2.9299
X2.9362Y2.8299
X0.5362Y3.1299
X3.5362Y2.9299
X1.7362Y3.8299
X1.1362Y3.4299
X1.2362Y3.5299
X1.5362Y2.8299
X3.2362Y5.8299
X1.0362Y2.5299
X2.1362Y2.2299
X3.1362Y2.0299
X0.7362Y2.0299
X3.5362Y1.6299
X1.6362Y2.6299
X2.8362Y2.4299
X0.5362Y2.4299
X0.9362Y1.9299
X0.7362Y1.8299
X1.9362Y1.7299
X1.1362Y1.0299
X1.3362Y1.4299
X1.2362Y1.4299
X0.9362Y1.1299
X0.5362Y1.7299
X3.1362Y1.3299
X0.8362Y2.1299
X1.6362Y0.7299
X1.7362Y0.7299
X3.1362Y0.7299
X2.1362Y5.8299
X1.2362Y5.6299
X1.9362Y1.5299
X3.7354Y5.8339
X0.7362Y5.4299
X1.5362Y5.5299
X2.4362Y5.1299
X2.4362Y2.5299
X3.1362Y5.7299
X3.7354Y1.7339
X1.6362Y5.5299
X3.7354Y3.1339
X3.0362Y0.7299
X2.7362Y0.8299
X2.2362Y1.6299
X0.4362Y2.6299
X1.9362Y2.3299
X1.8362Y2.3299
X3.3362Y1.9299
X3.3362Y1.8299
X3.1362Y1.7299
X1.7362Y1.3299
X2.6362Y0.6299
X1.1362Y0.9299
X2.5362Y5.2299
X0.2362Y3.9299
X3.7354Y5.5339
X1.8362Y5.9299
X3.0362Y5.5299
X2.3362Y5.1299
X2.2362Y5.1299
X0.9362Y4.8299
X1.8362Y5.0299
X1.7362Y4.6299
X3.2362Y4.2299
X0.5362Y4.0299
X1.4362Y3.9299
X1.3362Y3.9299
X3.1362Y3.6299
X3.5362Y3.3299
X3.4362Y3.3299
X2.1362Y3.3299
X2.0362Y2.6299
X1.5362Y3.7299
X3.3362Y3.2299
X1.2362Y3.0299
X1.1362Y3.0299
X3.0362Y2.7299
X3.3362Y2.1299
X1.1362Y1.6299
X1.6362Y2.4299
X0.7362Y2.3299
X2.2362Y1.9299
X2.0362Y1.8299
X2.5362Y1.4299
X0.5362Y1.3299
X2.7362Y1.2299
X1.5362Y1.2299
X0.5362Y1.0299
X2.8362Y0.9299
X0.2362Y2.7299
X0.9362Y4.3299
X0.8362Y5.1299
X3.3362Y4.9299
X1.9362Y4.9299
X1.5362Y5.2299
X0.5362Y5.0299
X3.5362Y4.7299
X3.4362Y4.7299
X2.1362Y4.7299
X0.7362Y4.7299
X0.6362Y4.7299
X1.0362Y4.3299
X1.7362Y4.2299
X0.9362Y4.1299
X2.9362Y3.8299
X2.0362Y4.5299
X2.4362Y4.4299
X1.8362Y3.3299
X3.4362Y1.1299
X0.4362Y3.8299
X3.2362Y3.4299
X3.3362Y3.4299
X2.1362Y3.2299
X1.7362Y3.1299
X2.5362Y3.7299
X2.1362Y3.4299
X0.7362Y3.2299
X2.2362Y3.0299
X3.5362Y2.6299
X3.3362Y3.0299
X3.4362Y3.1299
X3.3362Y2.9299
X3.2362Y2.9299
X2.2362Y4.1299
X1.8362Y2.2299
X0.5362Y2.2299
X2.0362Y2.1299
X1.8362Y2.0299
X3.2362Y2.3299
X2.4362Y1.0299
X1.0362Y1.0299
X0.4362Y0.7299
X1.7362Y0.9299
X2.3362Y4.1299
X0.2362Y5.2299
X0.2362Y2.6299
X1.9362Y2.2299
X2.1362Y1.1299
X1.3362Y0.8299
X1.2362Y0.8299
X1.3362Y0.6299
X3.7354Y5.6339
X3.2362Y2.2299
X3.1362Y2.2299
X1.4362Y0.6299
X3.7354Y4.1339
X0.2362Y1.2299
X3.7354Y2.9339
X0.2362Y1.1299
X0.8362Y2.5299
X0.5362Y2.0299
X2.8362Y0.7299
X3.7354Y2.8339
X0.4362Y5.9299
X1.9362Y2.9299
X1.7362Y1.7299
X0.7362Y1.1299
X1.9362Y5.8299
X1.8362Y5.8299
X3.1362Y4.1299
X1.7362Y2.5299
X1.3362Y2.2299
X1.2362Y2.2299
X1.2362Y2.0299
X1.1362Y2.0299
X3.3362Y2.4299
X2.6362Y2.3299
X2.6362Y2.2299
X2.5362Y1.7299
X2.4362Y1.7299
X0.8362Y1.5299
X0.7362Y1.5299
X1.5362Y1.1299
X1.7362Y1.0299
X0.6362Y0.8299
X0.4185Y0.4087
X0.4185Y0.3087
X0.4185Y0.2087
X0.5185Y0.4087
X0.5185Y0.3087
X0.5185Y0.2087
X0.6185Y0.4087
X0.6185Y0.3087
X0.6185Y0.2087
X0.7185Y0.4087
X0.7185Y0.3087
X0.7185Y0.2087
X0.8185Y0.4087
X0.8185Y0.3087
X0.8185Y0.2087
X0.9185Y0.4087
X0.9185Y0.3087
X0.9185Y0.2087
X1.0185Y0.4087
X1.0185Y0.3087
X1.0185Y0.2087
X1.1185Y0.4087
X1.1185Y0.3087
X1.1185Y0.2087
X1.2185Y0.4087
X1.2185Y0.3087
X1.2185Y0.2087
X1.3185Y0.4087
X1.3185Y0.3087
X1.3185Y0.2087
X1.4185Y0.4087
X1.4185Y0.3087
X1.4185Y0.2087
X1.5185Y0.4087
X1.5185Y0.3087
X1.5185Y0.2087
X1.6185Y0.4087
X1.6185Y0.3087
X1.6185Y0.2087
X1.7185Y0.4087
X1.7185Y0.3087
X1.7185Y0.2087
X1.8185Y0.4087
X1.8185Y0.3087
X1.8185Y0.2087
X3.7354Y4.9339
X1.9185Y0.4087
X2.9362Y5.9299
X1.9185Y0.3087
X1.9185Y0.2087
X2.0185Y0.4087
X2.0185Y0.3087
X2.0185Y0.2087
X2.1185Y0.4087
X2.1185Y0.3087
X2.1185Y0.2087
X2.2185Y0.4087
X2.2185Y0.3087
X2.2185Y0.2087
X2.3185Y0.4087
X2.3185Y0.3087
X2.3185Y0.2087
X2.4185Y0.4087
X2.4185Y0.3087
X2.4185Y0.2087
X1.2362Y1.8299
X2.5185Y0.4087
X2.5185Y0.3087
X2.5185Y0.2087
X2.6185Y0.4087
X2.6185Y0.3087
X2.6185Y0.2087
X2.7185Y0.4087
X2.7185Y0.3087
X2.7185Y0.2087
X2.8185Y0.4087
X2.8185Y0.3087
X2.8185Y0.2087
X2.9185Y0.4087
X2.9185Y0.3087
X2.9185Y0.2087
X3.0185Y0.4087
X3.0185Y0.3087
X3.0185Y0.2087
X3.1185Y0.4087
X3.7354Y4.8339
X2.2362Y2.7299
X3.1185Y0.2087
X3.2185Y0.3087
X0.7362Y0.6299
X0.2362Y2.0299
X3.3185Y0.3087
X3.3185Y0.2087
X3.0362Y4.1299
X3.1185Y0.3087
X3.2185Y0.4087
X3.2185Y0.2087
X3.3185Y0.4087
X3.4185Y0.4087
X3.4185Y0.3087
X3.4185Y0.2087
X3.5185Y0.4087
X3.5185Y0.3087
X3.5185Y0.2087
X2.1362Y5.4299
X0.2362Y4.5299
X2.7362Y5.6299
X3.7354Y3.6339
X1.8362Y5.7299
X3.5362Y2.0299
X2.1362Y0.7299
X1.1362Y5.9299
X1.7362Y5.7299
X0.4362Y5.7299
X1.0362Y1.7299
X3.5362Y1.3299
X1.6362Y5.6299
X3.3362Y0.8299
X3.2362Y0.8299
X1.2362Y5.9299
X2.6362Y5.8299
X3.7354Y2.2339
X0.5362Y5.6299
X2.3362Y5.5299
X2.1362Y5.5299
X0.4362Y5.6299
X2.2362Y5.5299
X0.5362Y5.5299
X3.1362Y5.4299
X3.1362Y2.4299
X2.7362Y4.9299
X2.6362Y4.9299
X2.5362Y4.9299
X2.6362Y4.8299
X2.2362Y5.3299
X0.9362Y5.3299
X0.8362Y5.3299
X3.5362Y5.0299
X2.8362Y4.7299
X2.7362Y4.7299
X3.5362Y4.6299
X2.3362Y4.0299
X2.6362Y4.5299
X0.5362Y4.4299
X0.8362Y3.6299
X1.9362Y3.5299
X2.3362Y3.8299
X2.2362Y3.8299
X1.0362Y3.8299
X0.5362Y3.4299
X0.4362Y3.4299
X2.1362Y2.8299
X3.1362Y2.5299
X3.0362Y2.5299
X1.3362Y2.1299
X2.8362Y1.6299
X2.2362Y4.6299
X0.9362Y2.6299
X2.9362Y5.1299
X1.3362Y4.8299
X2.2362Y5.0299
X0.9362Y4.0299
X1.8362Y3.9299
X0.7362Y3.7299
X0.4362Y3.5299
X2.5362Y2.6299
X2.4362Y2.6299
X1.6362Y3.0299
X0.7362Y2.8299
X3.4362Y2.7299
X1.5362Y1.6299
X2.0362Y2.4299
X1.1362Y2.3299
X2.4362Y2.1299
X2.7362Y1.1299
X2.6362Y1.9299
X2.9362Y1.4299
X0.5362Y1.4299
X2.6362Y1.8299
X2.5362Y1.8299
X2.3362Y1.3299
X1.2362Y4.7299
X0.7362Y5.3299
X0.6362Y5.3299
X1.9362Y5.2299
X2.2362Y4.2299
X0.4362Y3.9299
X2.4362Y3.6299
X0.8362Y2.4299
X1.4362Y1.9299
X0.4362Y1.4299
X3.4362Y0.7299
X2.8362Y1.0299
X1.0362Y1.3299
X1.3362Y5.1299
X0.8362Y4.6299
X1.4362Y4.3299
X2.5362Y3.3299
X2.1362Y3.1299
X1.7362Y1.4299
X2.9362Y1.0299
X3.2362Y1.2299
X1.1362Y5.4299
X1.2362Y5.8299
X1.0362Y5.0299
X2.5362Y3.2299
X2.2362Y3.1299
X0.9362Y2.7299
X0.8362Y2.7299
X2.2362Y2.0299
X0.8362Y1.2299
X1.8362Y0.8299
X0.9362Y2.0299
X2.9362Y2.5299
X1.2362Y2.1299
X2.7362Y1.6299
X0.8362Y2.6299
X2.6362Y1.1299
X2.2362Y1.3299
X2.1362Y1.3299
X0.4362Y0.8299
X3.0362Y0.6299
X1.0362Y1.5299
X1.5362Y0.9299
X0.4362Y5.3299
X0.2362Y5.9299
X1.0362Y4.9299
X0.6362Y5.2299
X0.5362Y5.2299
X3.4362Y3.8299
X2.5362Y4.5299
X2.4362Y4.5299
X2.8362Y4.4299
X3.2362Y1.5299
X3.0362Y3.7299
X2.5362Y3.4299
X1.2362Y3.2299
X0.9362Y3.1299
X2.6362Y3.0299
X1.4362Y2.5299
X3.5362Y4.0299
X3.1362Y0.6299
X1.1362Y1.5299
X1.4362Y5.8299
X1.3362Y5.8299
X2.9362Y4.4299
X0.4362Y0.9299
X0.5362Y5.3299
X3.7354Y0.8339
X2.5362Y4.3299
X3.4362Y4.0299
X1.2362Y4.5299
X3.0362Y4.4299
X0.2362Y3.2299
X0.2362Y3.1299
X1.2362Y4.9299
X1.1362Y4.9299
X0.7362Y5.2299
X3.5362Y4.8299
X3.5362Y3.8299
X0.9362Y1.0299
X3.2362Y0.9299
X1.9362Y0.6299
X3.3362Y5.3299
X3.2362Y5.3299
X1.9362Y5.3299
X1.7362Y4.4299
X0.8362Y0.7299
X2.1362Y0.9299
X2.8362Y4.1299
X2.7362Y4.1299
X0.2362Y1.8299
X3.7354Y4.6339
X3.7354Y4.5339
X3.7354Y0.7339
X0.2362Y1.6299
X0.9362Y5.9299
X2.7362Y5.9299
X2.6362Y5.9299
X1.5362Y5.7299
X2.5362Y5.6299
X1.0362Y5.8299
X1.3362Y3.2299
X1.6362Y2.5299
X1.5362Y2.5299
X2.3362Y1.7299
X3.2362Y3.5299
X3.2362Y3.7299
X1.0362Y3.1299
X2.5362Y2.9299
X2.5362Y2.3299
X3.2362Y4.3299
X3.1362Y3.7299
X2.6362Y3.4299
X1.5362Y3.4299
X2.7362Y3.1299
X2.1362Y2.7299
X2.0362Y2.7299
X3.4362Y2.0299
X1.0362Y2.0299
X1.0362Y3.3299
X3.3362Y2.8299
X1.1362Y2.2299
X3.2362Y2.4299
X1.2362Y2.9299
X1.1362Y2.9299
X2.5362Y2.2299
X1.9362Y3.7299
X1.1362Y1.8299
X1.0362Y1.8299
X0.9362Y1.7299
X0.8362Y1.7299
X0.6362Y1.5299
X1.4362Y1.1299
X1.6362Y1.0299
X1.5362Y1.0299
X0.5362Y0.8299
X3.1362Y0.8299
X3.5362Y5.7299
X2.3362Y4.9299
X3.3362Y4.6299
X0.8362Y4.2299
X0.6362Y3.6299
X1.7362Y3.5299
X2.0362Y0.7299
X2.4362Y4.8299
X2.3362Y4.8299
X2.6362Y1.6299
X2.9362Y0.6299
X0.6362Y0.6299
X3.2362Y5.0299
X1.1362Y2.1299
X3.4362Y1.3299
X2.0362Y1.3299
X2.4362Y1.5299
X2.3362Y1.5299
X3.3362Y5.0299
X2.5362Y4.7299
X3.3362Y4.5299
X2.1362Y4.0299
X2.9362Y3.9299
X2.7362Y3.0299
X1.9362Y2.8299
X2.8362Y2.5299
X0.7362Y2.6299
X3.0362Y5.8299
X0.9362Y1.5299
X1.3362Y4.3299
X1.4362Y0.9299
X2.7362Y5.1299
X0.9362Y4.9299
X0.4362Y5.2299
X1.1362Y4.7299
X2.4362Y5.7299
X3.7354Y3.5339
X1.1362Y5.8299
X1.0362Y5.4299
X2.8362Y5.1299
X0.2362Y5.8299
X0.2362Y4.4299
X1.5362Y5.6299
X2.0362Y5.5299
X2.9362Y5.4299
X1.2362Y5.1299
X1.8362Y5.2299
X0.7362Y4.6299
X2.1362Y4.2299
X1.7362Y3.9299
X3.7354Y2.1339
X2.5362Y5.8299
X3.0362Y5.4299
X1.2362Y4.8299
X2.1362Y4.6299
X0.9362Y5.0299
X0.8362Y4.0299
X0.4362Y5.5299
X2.1362Y5.0299
X3.3362Y3.8299
X2.0362Y5.0299
X1.0362Y2.2299
X3.0362Y2.4299
X2.4362Y2.3299
X2.3362Y2.3299
X2.4362Y2.2299
X3.5362Y1.7299
X2.2362Y1.7299
X2.1362Y1.7299
X0.5362Y1.5299
X1.3362Y1.1299
X1.2362Y1.1299
X1.4362Y1.0299
X1.3362Y1.0299
X0.5362Y0.6299
X0.4362Y0.6299
X2.9362Y5.8299
X0.2362Y5.7299
X0.2362Y4.3299
X3.7354Y3.4339
X3.7354Y3.3339
X3.5362Y5.8299
X2.4362Y5.8299
X2.3362Y5.8299
X1.4362Y5.6299
X3.5362Y5.5299
X1.9362Y5.5299
X2.6362Y5.1299
X1.1362Y4.8299
X2.0362Y4.6299
X1.9362Y4.6299
X0.7362Y4.0299
X1.6362Y3.9299
X0.5362Y3.7299
X3.4362Y3.6299
X3.3362Y3.6299
X2.4362Y3.3299
X2.3362Y3.3299
X2.2362Y2.6299
X1.4362Y3.0299
X0.5362Y2.8299
X3.2362Y2.7299
X1.3362Y1.6299
X1.8362Y2.4299
X0.9362Y2.3299
X2.3362Y1.8299
X0.7362Y1.0299
X3.0362Y0.9299
X3.4362Y5.6299
X0.7362Y5.8299
X0.6362Y5.8299
X2.3362Y4.3299
X2.3362Y4.5299
X2.4362Y1.9299
X0.8362Y1.3299
X0.7362Y1.3299
X3.0362Y1.2299
X1.7362Y1.2299
X3.2362Y0.7299
X1.7362Y0.6299
X3.3362Y4.8299
X3.0362Y5.3299
X1.7362Y5.3299
X3.2362Y4.0299
X3.2362Y3.8299
X2.2362Y1.8299
X2.7362Y1.4299
X2.9362Y1.2299
X0.2362Y2.9299
X0.9362Y5.4299
X0.6362Y3.7299
X3.5362Y3.6299
X2.3362Y2.6299
X1.5362Y3.0299
X0.6362Y2.8299
X3.3362Y2.7299
X1.4362Y1.6299
X1.9362Y2.4299
X1.0362Y2.3299
X2.5362Y1.9299
X2.4362Y1.8299
X2.8362Y1.4299
X0.9362Y1.3299
X3.1362Y1.2299
X1.9362Y1.2299
X1.8362Y1.2299
X1.8362Y2.7299
X3.3362Y0.7299
X0.8362Y1.0299
X3.1362Y0.9299
X1.8362Y0.6299
X0.2362Y3.0299
X3.5362Y5.6299
X0.9362Y5.8299
X0.8362Y5.8299
X3.4362Y4.8299
X3.1362Y5.3299
X1.8362Y5.3299
X2.4362Y4.3299
X3.5362Y4.2299
X3.3362Y4.0299
X1.1362Y4.5299
X1.0362Y4.5299
X1.6362Y4.4299
X3.1362Y3.5299
X0.9362Y3.3299
X2.0362Y3.8299
X1.9362Y3.8299
X1.8362Y3.7299
X1.4362Y3.4299
X2.6362Y3.1299
X1.0362Y2.9299
X0.9362Y2.9299
X3.2362Y2.8299
X3.1362Y2.8299
X1.9362Y2.7299
X3.3362Y2.0299
X0.9362Y1.8299
X0.7362Y1.7299
X3.3362Y1.3299
X3.0362Y0.8299
X1.9362Y0.7299
X2.2362Y1.5299
X0.2362Y1.7299
X3.7354Y2.0339
X2.8362Y5.4299
X1.1362Y5.1299
X3.5362Y4.9299
X2.2362Y4.9299
X2.1362Y4.9299
X1.7362Y5.2299
X0.8362Y5.0299
X1.0362Y4.7299
X0.6362Y4.6299
X0.5362Y4.6299
X1.2362Y4.3299
X2.0362Y4.2299
X2.2362Y3.6299
X2.1362Y3.6299
X1.6362Y3.6299
X0.6362Y3.8299
X3.5362Y3.4299
X2.3362Y3.2299
X1.9362Y3.1299
X0.4362Y2.7299
X0.9362Y2.2299
X0.8362Y2.2299
X0.7362Y2.2299
X2.2362Y2.1299
X2.0362Y2.0299
X3.5362Y2.3299
X3.4362Y2.3299
X3.4362Y2.2299
X1.5362Y1.4299
X1.4362Y1.4299
X2.3362Y1.1299
X2.6362Y1.0299
X0.5362Y1.2299
X1.6362Y0.8299
X0.6362Y0.7299
X1.9362Y0.9299
X2.5362Y4.1299
X0.2362Y5.4299
X3.7354Y4.3339
X0.2362Y1.4299
X0.7362Y5.9299
X0.6362Y5.9299
X2.4362Y5.9299
X1.3362Y5.7299
X1.2362Y5.7299
X2.3362Y5.6299
X0.8362Y4.9299
X0.7362Y4.9299
X2.0362Y4.8299
X3.0362Y5.0299
X3.0362Y4.6299
X2.4362Y3.1299
X2.3362Y3.6299
X0.8362Y3.8299
X0.6362Y4.2299
X0.7362Y3.8299
X1.8362Y3.8299
X2.4362Y3.4299
X2.5362Y3.0299
X2.5362Y3.1299
X3.0362Y2.8299
X1.8362Y4.0299
X2.0362Y3.1299
X2.7362Y3.9299
X2.4362Y2.9299
X1.5362Y4.4299
X2.4362Y3.2299
X0.9362Y4.5299
X2.7362Y4.4299
X0.4362Y3.6299
X1.2362Y3.4299
X2.3362Y2.9299
X3.0362Y3.5299
X2.9362Y3.7299
X1.3362Y3.4299
X1.1362Y3.2299
X0.8362Y3.3299
X0.7362Y3.3299
X0.8362Y2.9299
X1.3362Y3.5299
X1.0362Y3.7299
X0.6362Y3.1299
X1.6362Y2.8299
X0.7362Y2.7299
X0.6362Y2.7299
X0.5362Y2.7299
X2.3362Y2.1299
X1.3362Y2.5299
X1.2362Y2.5299
X3.2362Y2.0299
X2.1362Y2.0299
X1.1362Y2.5299
X0.8362Y2.0299
X1.7362Y2.6299
X2.9362Y2.4299
X0.7362Y2.4299
X0.5362Y2.6299
X3.5362Y2.2299
X1.3362Y1.9299
X1.2362Y1.9299
X2.0362Y0.9299
X1.1362Y1.1299
X1.0362Y1.1299
X2.7362Y1.0299
X0.2362Y0.6299
X1.1362Y1.9299
X2.5362Y1.1299
X2.4362Y1.1299
X0.7362Y1.2299
X0.6362Y1.2299
X1.2362Y1.0299
X1.0362Y1.9299
X1.6362Y1.4299
X2.9362Y0.8299
X2.8362Y0.8299
X1.7362Y0.8299
X0.7362Y0.7299
X2.2362Y2.3299
X0.8362Y1.8299
X3.4362Y1.7299
X2.0362Y1.7299
X0.6362Y2.4299
X0.6362Y1.7299
X0.4362Y1.5299
X3.2362Y1.3299
X1.8362Y0.7299
X2.1362Y1.5299
X2.6362Y4.1299
X0.2362Y5.6299
X0.2362Y5.5299
X3.7354Y4.4339
X0.8362Y5.9299
X3.7354Y3.2339
X0.2362Y1.5299
X3.4362Y5.8299
X3.2362Y1.7299
X2.2362Y2.2299
X2.0362Y2.3299
X3.3362Y1.7299
X2.2362Y5.8299
X2.5362Y2.5299
X0.9362Y2.1299
X2.1362Y2.3299
X1.8362Y1.3299
X3.3362Y5.8299
X3.7354Y5.9339
X2.4362Y1.6299
X3.4362Y1.8299
X2.7362Y0.6299
X0.2362Y4.0299
X3.7354Y1.9339
X2.3362Y1.6299
X3.4362Y1.9299
X2.0362Y1.5299
X1.2362Y0.9299
X2.6362Y5.2299
X3.7354Y1.8339
T2
X3.7185Y6.1587
X0.2185Y6.1587
T3
X0.2185Y0.1087
X3.7185Y0.1087
T0
M30
