G04 #@! TF.GenerationSoftware,KiCad,Pcbnew,(5.1.4-0-10_14)*
G04 #@! TF.CreationDate,2019-11-29T23:10:49+01:00*
G04 #@! TF.ProjectId,Eurocard_3U_VME,4575726f-6361-4726-945f-33555f564d45,rev?*
G04 #@! TF.SameCoordinates,Original*
G04 #@! TF.FileFunction,Legend,Top*
G04 #@! TF.FilePolarity,Positive*
%FSLAX46Y46*%
G04 Gerber Fmt 4.6, Leading zero omitted, Abs format (unit mm)*
G04 Created by KiCad (PCBNEW (5.1.4-0-10_14)) date 2019-11-29 23:10:49*
%MOMM*%
%LPD*%
G04 APERTURE LIST*
%ADD10C,0.150000*%
%ADD11C,0.300000*%
%ADD12C,0.120000*%
G04 APERTURE END LIST*
D10*
X9883452Y13147619D02*
X10502500Y13147619D01*
X10169166Y12766666D01*
X10312023Y12766666D01*
X10407261Y12719047D01*
X10454880Y12671428D01*
X10502500Y12576190D01*
X10502500Y12338095D01*
X10454880Y12242857D01*
X10407261Y12195238D01*
X10312023Y12147619D01*
X10026309Y12147619D01*
X9931071Y12195238D01*
X9883452Y12242857D01*
X10883452Y13052380D02*
X10931071Y13100000D01*
X11026309Y13147619D01*
X11264404Y13147619D01*
X11359642Y13100000D01*
X11407261Y13052380D01*
X11454880Y12957142D01*
X11454880Y12861904D01*
X11407261Y12719047D01*
X10835833Y12147619D01*
X11454880Y12147619D01*
X27835833Y13052380D02*
X27883452Y13100000D01*
X27978690Y13147619D01*
X28216785Y13147619D01*
X28312023Y13100000D01*
X28359642Y13052380D01*
X28407261Y12957142D01*
X28407261Y12861904D01*
X28359642Y12719047D01*
X27788214Y12147619D01*
X28407261Y12147619D01*
X29312023Y13147619D02*
X28835833Y13147619D01*
X28788214Y12671428D01*
X28835833Y12719047D01*
X28931071Y12766666D01*
X29169166Y12766666D01*
X29264404Y12719047D01*
X29312023Y12671428D01*
X29359642Y12576190D01*
X29359642Y12338095D01*
X29312023Y12242857D01*
X29264404Y12195238D01*
X29169166Y12147619D01*
X28931071Y12147619D01*
X28835833Y12195238D01*
X28788214Y12242857D01*
X40407261Y13052380D02*
X40454880Y13100000D01*
X40550119Y13147619D01*
X40788214Y13147619D01*
X40883452Y13100000D01*
X40931071Y13052380D01*
X40978690Y12957142D01*
X40978690Y12861904D01*
X40931071Y12719047D01*
X40359642Y12147619D01*
X40978690Y12147619D01*
X41597738Y13147619D02*
X41692976Y13147619D01*
X41788214Y13100000D01*
X41835833Y13052380D01*
X41883452Y12957142D01*
X41931071Y12766666D01*
X41931071Y12528571D01*
X41883452Y12338095D01*
X41835833Y12242857D01*
X41788214Y12195238D01*
X41692976Y12147619D01*
X41597738Y12147619D01*
X41502500Y12195238D01*
X41454880Y12242857D01*
X41407261Y12338095D01*
X41359642Y12528571D01*
X41359642Y12766666D01*
X41407261Y12957142D01*
X41454880Y13052380D01*
X41502500Y13100000D01*
X41597738Y13147619D01*
X53550119Y12147619D02*
X52978690Y12147619D01*
X53264404Y12147619D02*
X53264404Y13147619D01*
X53169166Y13004761D01*
X53073928Y12909523D01*
X52978690Y12861904D01*
X54454880Y13147619D02*
X53978690Y13147619D01*
X53931071Y12671428D01*
X53978690Y12719047D01*
X54073928Y12766666D01*
X54312023Y12766666D01*
X54407261Y12719047D01*
X54454880Y12671428D01*
X54502500Y12576190D01*
X54502500Y12338095D01*
X54454880Y12242857D01*
X54407261Y12195238D01*
X54312023Y12147619D01*
X54073928Y12147619D01*
X53978690Y12195238D01*
X53931071Y12242857D01*
X66121547Y12147619D02*
X65550119Y12147619D01*
X65835833Y12147619D02*
X65835833Y13147619D01*
X65740595Y13004761D01*
X65645357Y12909523D01*
X65550119Y12861904D01*
X66740595Y13147619D02*
X66835833Y13147619D01*
X66931071Y13100000D01*
X66978690Y13052380D01*
X67026309Y12957142D01*
X67073928Y12766666D01*
X67073928Y12528571D01*
X67026309Y12338095D01*
X66978690Y12242857D01*
X66931071Y12195238D01*
X66835833Y12147619D01*
X66740595Y12147619D01*
X66645357Y12195238D01*
X66597738Y12242857D01*
X66550119Y12338095D01*
X66502500Y12528571D01*
X66502500Y12766666D01*
X66550119Y12957142D01*
X66597738Y13052380D01*
X66645357Y13100000D01*
X66740595Y13147619D01*
X79407261Y13147619D02*
X78931071Y13147619D01*
X78883452Y12671428D01*
X78931071Y12719047D01*
X79026309Y12766666D01*
X79264404Y12766666D01*
X79359642Y12719047D01*
X79407261Y12671428D01*
X79454880Y12576190D01*
X79454880Y12338095D01*
X79407261Y12242857D01*
X79359642Y12195238D01*
X79264404Y12147619D01*
X79026309Y12147619D01*
X78931071Y12195238D01*
X78883452Y12242857D01*
X89550119Y12147619D02*
X88978690Y12147619D01*
X89264404Y12147619D02*
X89264404Y13147619D01*
X89169166Y13004761D01*
X89073928Y12909523D01*
X88978690Y12861904D01*
D11*
X8457142Y10042857D02*
X8314285Y9971428D01*
X8028571Y9971428D01*
X7885714Y10042857D01*
X7814285Y10114285D01*
X7742857Y10257142D01*
X7742857Y10685714D01*
X7814285Y10828571D01*
X7885714Y10900000D01*
X8028571Y10971428D01*
X8314285Y10971428D01*
X8457142Y10900000D01*
X7778571Y7421428D02*
X7778571Y8921428D01*
X7778571Y8350000D02*
X7921428Y8421428D01*
X8207142Y8421428D01*
X8350000Y8350000D01*
X8421428Y8278571D01*
X8492857Y8135714D01*
X8492857Y7707142D01*
X8421428Y7564285D01*
X8350000Y7492857D01*
X8207142Y7421428D01*
X7921428Y7421428D01*
X7778571Y7492857D01*
X8421428Y4871428D02*
X8421428Y5657142D01*
X8350000Y5800000D01*
X8207142Y5871428D01*
X7921428Y5871428D01*
X7778571Y5800000D01*
X8421428Y4942857D02*
X8278571Y4871428D01*
X7921428Y4871428D01*
X7778571Y4942857D01*
X7707142Y5085714D01*
X7707142Y5228571D01*
X7778571Y5371428D01*
X7921428Y5442857D01*
X8278571Y5442857D01*
X8421428Y5514285D01*
X92357142Y10042857D02*
X92214285Y9971428D01*
X91928571Y9971428D01*
X91785714Y10042857D01*
X91714285Y10114285D01*
X91642857Y10257142D01*
X91642857Y10685714D01*
X91714285Y10828571D01*
X91785714Y10900000D01*
X91928571Y10971428D01*
X92214285Y10971428D01*
X92357142Y10900000D01*
X91678571Y7421428D02*
X91678571Y8921428D01*
X91678571Y8350000D02*
X91821428Y8421428D01*
X92107142Y8421428D01*
X92250000Y8350000D01*
X92321428Y8278571D01*
X92392857Y8135714D01*
X92392857Y7707142D01*
X92321428Y7564285D01*
X92250000Y7492857D01*
X92107142Y7421428D01*
X91821428Y7421428D01*
X91678571Y7492857D01*
X92321428Y4871428D02*
X92321428Y5657142D01*
X92250000Y5800000D01*
X92107142Y5871428D01*
X91821428Y5871428D01*
X91678571Y5800000D01*
X92321428Y4942857D02*
X92178571Y4871428D01*
X91821428Y4871428D01*
X91678571Y4942857D01*
X91607142Y5085714D01*
X91607142Y5228571D01*
X91678571Y5371428D01*
X91821428Y5442857D01*
X92178571Y5442857D01*
X92321428Y5514285D01*
D10*
X91900000Y4860000D02*
X91900000Y5360000D01*
X91900000Y5360000D02*
X97100000Y5360000D01*
X97100000Y5360000D02*
X97100000Y260000D01*
X8100000Y4860000D02*
X8100000Y5360000D01*
X8100000Y5360000D02*
X2900000Y5360000D01*
X2900000Y5360000D02*
X2900000Y260000D01*
D12*
X90720000Y5300000D02*
X91320000Y5000000D01*
X91320000Y5000000D02*
X91320000Y5600000D01*
X91320000Y5600000D02*
X90720000Y5300000D01*
D10*
X94116666Y7117619D02*
X94116666Y6403333D01*
X94069047Y6260476D01*
X93973809Y6165238D01*
X93830952Y6117619D01*
X93735714Y6117619D01*
X95116666Y6117619D02*
X94545238Y6117619D01*
X94830952Y6117619D02*
X94830952Y7117619D01*
X94735714Y6974761D01*
X94640476Y6879523D01*
X94545238Y6831904D01*
M02*
