G04 #@! TF.GenerationSoftware,KiCad,Pcbnew,(5.1.4-0-10_14)*
G04 #@! TF.CreationDate,2019-11-23T21:53:27+01:00*
G04 #@! TF.ProjectId,MVMEPI,4d564d45-5049-42e6-9b69-6361645f7063,rev?*
G04 #@! TF.SameCoordinates,Original*
G04 #@! TF.FileFunction,Profile,NP*
%FSLAX46Y46*%
G04 Gerber Fmt 4.6, Leading zero omitted, Abs format (unit mm)*
G04 Created by KiCad (PCBNEW (5.1.4-0-10_14)) date 2019-11-23 21:53:27*
%MOMM*%
%LPD*%
G04 APERTURE LIST*
%ADD10C,0.100000*%
G04 APERTURE END LIST*
D10*
X231250000Y-58400000D02*
X250750000Y-58400000D01*
X231250000Y-60000000D02*
X231250000Y-58400000D01*
X250750000Y-60000000D02*
X250750000Y-58400000D01*
X194000000Y-58400000D02*
X185750000Y-58400000D01*
X194000000Y-60000000D02*
X194000000Y-58400000D01*
X185750000Y-60000000D02*
X185750000Y-58400000D01*
X111500000Y-58400000D02*
X119500000Y-58400000D01*
X119500000Y-60000000D02*
X119500000Y-58400000D01*
X111500000Y-60000000D02*
X111500000Y-58400000D01*
X67250000Y-58400000D02*
X47750000Y-58400000D01*
X67250000Y-60000000D02*
X67250000Y-58400000D01*
X47750000Y-60000000D02*
X47750000Y-58400000D01*
X47750000Y-60000000D02*
X32500000Y-60000000D01*
X111500000Y-60000000D02*
X67250000Y-60000000D01*
X155750000Y-60000000D02*
X119500000Y-60000000D01*
X185750000Y-60000000D02*
X155750000Y-60000000D01*
X211250000Y-60000000D02*
X194000000Y-60000000D01*
X231250000Y-60000000D02*
X211250000Y-60000000D01*
X265900000Y-60000000D02*
X250750000Y-60000000D01*
X265900000Y-140000000D02*
X32500000Y-140000000D01*
X265900000Y-60000000D02*
X265900000Y-140000000D01*
X32500000Y-60000000D02*
X32500000Y-140000000D01*
M02*
