M48
; DRILL file {KiCad (5.1.4-0-10_14)} date Saturday, 23 November 2019 at 21:53:43
; FORMAT={-:-/ absolute / inch / decimal}
; #@! TF.CreationDate,2019-11-23T21:53:43+01:00
; #@! TF.GenerationSoftware,Kicad,Pcbnew,(5.1.4-0-10_14)
FMAT,2
INCH
T1C0.0236
T2C0.0315
T3C0.0394
T4C0.1063
%
G90
G05
T1
X2.1457Y-4.8228
X2.8543Y-4.8425
X2.874Y-4.3504
X2.8937Y-4.9213
X3.0315Y-4.0157
X3.1872Y-4.1321
X3.4646Y-4.1142
X3.5433Y-4.1929
X3.9567Y-4.0748
X4.1339Y-4.311
X6.9685Y-4.9118
X4.4228Y-2.2972
X4.4728Y-2.2972
X4.5228Y-2.2972
X4.5728Y-2.2972
X4.6228Y-2.2972
X4.6728Y-2.2972
X9.1382Y-2.2972
X9.1882Y-2.2972
X9.2382Y-2.2972
X9.2882Y-2.2972
X9.3382Y-2.2972
X9.3882Y-2.2972
X9.4382Y-2.2972
X9.4882Y-2.2972
X9.5382Y-2.2972
X9.5882Y-2.2972
X9.6382Y-2.2972
X9.6882Y-2.2972
X9.7382Y-2.2972
X9.7882Y-2.2972
X9.8382Y-2.2972
X1.9138Y-2.2972
X1.9638Y-2.2972
X2.0138Y-2.2972
X2.0638Y-2.2972
X2.1138Y-2.2972
X2.1638Y-2.2972
X2.2138Y-2.2972
X2.2638Y-2.2972
X2.3138Y-2.2972
X2.3638Y-2.2972
X2.4138Y-2.2972
X2.4638Y-2.2972
X2.5138Y-2.2972
X2.5638Y-2.2972
X2.6138Y-2.2972
X7.3496Y-2.2972
X7.3996Y-2.2972
X7.4496Y-2.2972
X7.4996Y-2.2972
X7.5496Y-2.2972
X7.5996Y-2.2972
T2
X2.6772Y-3.3583
X2.6772Y-3.8583
X1.5945Y-2.948
X1.5945Y-3.248
X1.6945Y-2.948
X1.6945Y-3.248
X1.7945Y-2.948
X1.7945Y-3.248
X2.3425Y-4.1685
X2.3425Y-4.4685
X2.4425Y-4.1685
X2.4425Y-4.4685
X2.5425Y-4.1685
X2.5425Y-4.4685
X3.7008Y-2.9677
X3.7008Y-3.2677
X3.8008Y-2.9677
X3.8008Y-3.2677
X3.9008Y-2.9677
X3.9008Y-3.2677
X2.8937Y-3.3583
X2.8937Y-3.8583
X3.7008Y-4.4882
X3.8008Y-4.1882
X3.8008Y-4.4882
X3.9008Y-4.1882
X3.9008Y-4.4882
X2.3425Y-3.5583
X2.3425Y-3.8583
X2.4425Y-3.5583
X2.4425Y-3.8583
X2.5425Y-3.5583
X2.5425Y-3.8583
X3.0315Y-4.1882
X3.1315Y-4.1882
X3.2315Y-4.4882
X1.5945Y-3.5583
X1.6945Y-3.5583
X1.6945Y-3.8583
X1.7945Y-3.8583
X3.563Y-3.9882
X3.563Y-4.4882
X1.5945Y-3.8583
X1.7945Y-3.5583
X3.0315Y-4.4882
X3.1315Y-4.4882
X3.2315Y-4.1882
X3.7008Y-4.1882
X3.0305Y-3.5583
X3.0305Y-3.8583
X3.1305Y-3.5583
X3.1305Y-3.8583
X3.2305Y-3.5583
X3.2305Y-3.8583
X2.2047Y-2.748
X1.9291Y-3.9685
X1.9291Y-4.4685
X1.9291Y-3.3583
X1.9291Y-3.8583
X1.9291Y-2.748
X1.9291Y-3.248
X3.563Y-3.3583
X3.563Y-3.8583
X1.4567Y-3.9685
X1.4567Y-4.4685
X2.2047Y-3.3583
X2.2047Y-3.8583
X2.2047Y-3.248
X2.8937Y-3.9882
X2.8937Y-4.4882
X1.5945Y-4.1685
X1.5945Y-4.4685
X1.6945Y-4.1685
X1.6945Y-4.4685
X1.7945Y-4.1685
X1.7945Y-4.4685
X2.6772Y-2.748
X2.6772Y-3.248
X3.3661Y-3.9882
X3.3661Y-4.4882
X3.3661Y-3.8583
X3.3661Y-3.3583
X3.7008Y-3.8583
X3.8008Y-3.5583
X3.8008Y-3.8583
X3.9008Y-3.5583
X3.9008Y-3.8583
X3.563Y-2.7677
X3.563Y-3.2677
X7.6378Y-4.1654
X7.6378Y-4.6654
X2.2047Y-3.9685
X3.7008Y-3.5583
X2.2047Y-4.4685
X1.4567Y-3.3583
X1.4567Y-3.8583
X1.4567Y-2.748
X1.4567Y-3.248
X2.3425Y-2.948
X2.3425Y-3.248
X2.4425Y-2.948
X2.4425Y-3.248
X2.5425Y-2.948
X2.5425Y-3.248
X2.6772Y-3.9882
X2.6772Y-4.4882
T3
X7.5394Y-5.0276
X7.6394Y-5.0276
X7.7394Y-5.0276
X7.5394Y-5.2106
X7.6394Y-5.2106
X7.7394Y-5.2106
X2.4409Y-5.1756
X2.4409Y-5.2756
X2.5409Y-5.1756
X2.5409Y-5.2756
X2.6409Y-5.1756
X2.6409Y-5.2756
X2.7409Y-5.1756
X2.7409Y-5.2756
X2.8409Y-5.1756
X2.8409Y-5.2756
X2.9409Y-5.1756
X2.9409Y-5.2756
X3.0409Y-5.1756
X3.0409Y-5.2756
X3.1409Y-5.1756
X3.1409Y-5.2756
X3.2409Y-5.1756
X3.2409Y-5.2756
X3.3409Y-5.1756
X3.3409Y-5.2756
X7.5394Y-5.3937
X7.6394Y-5.3937
X7.7394Y-5.3937
X7.1441Y-3.4945
X7.1441Y-3.5945
X7.1441Y-3.6945
X7.1441Y-3.7945
X7.1441Y-3.8945
X7.1441Y-3.9945
X7.1441Y-4.0945
X7.2441Y-3.4945
X1.952Y-5.1756
X2.052Y-5.1756
X2.052Y-5.2756
X2.152Y-5.1756
X2.152Y-5.2756
X7.2441Y-4.0945
X1.952Y-5.2756
X7.2441Y-3.5945
X1.852Y-5.1756
X7.2441Y-3.6945
X1.852Y-5.2756
X7.2441Y-3.7945
X1.752Y-5.1756
X7.2441Y-3.8945
X1.752Y-5.2756
X7.2441Y-3.9945
X6.6217Y-3.2823
X6.6217Y-3.3823
X6.6217Y-3.4823
X6.6217Y-3.5823
X6.6217Y-3.6823
X6.6217Y-3.7823
X6.6217Y-3.8823
X6.6217Y-3.9823
X6.6217Y-4.0823
X6.6217Y-4.1823
X6.6217Y-4.2823
X6.6217Y-4.3823
X6.6217Y-4.4823
X6.6217Y-4.5823
X6.6217Y-4.6823
X6.6217Y-4.7823
X6.6217Y-4.8823
X6.6217Y-4.9823
X6.6217Y-5.0823
X6.6217Y-5.1823
X6.7217Y-3.2823
X6.7217Y-3.3823
X6.7217Y-3.4823
X6.7217Y-3.5823
X6.7217Y-3.6823
X6.7217Y-3.7823
X6.7217Y-3.8823
X6.7217Y-3.9823
X6.7217Y-4.0823
X6.7217Y-4.1823
X6.7217Y-4.2823
X6.7217Y-4.3823
X6.7217Y-4.4823
X6.7217Y-4.5823
X6.7217Y-4.6823
X6.7217Y-4.7823
X6.7217Y-4.8823
X6.7217Y-4.9823
X6.7217Y-5.0823
X6.7217Y-5.1823
T4
X6.7717Y-3.0906
X4.8425Y-3.0906
X4.5472Y-2.5984
X4.8425Y-5.374
X7.5Y-2.5984
X1.5157Y-2.5984
X10.2323Y-2.5984
X6.7717Y-5.374
T0
M30
