G04 #@! TF.GenerationSoftware,KiCad,Pcbnew,(5.1.4-0-10_14)*
G04 #@! TF.CreationDate,2019-11-23T21:53:27+01:00*
G04 #@! TF.ProjectId,MVMEPI,4d564d45-5049-42e6-9b69-6361645f7063,rev?*
G04 #@! TF.SameCoordinates,Original*
G04 #@! TF.FileFunction,Soldermask,Bot*
G04 #@! TF.FilePolarity,Negative*
%FSLAX46Y46*%
G04 Gerber Fmt 4.6, Leading zero omitted, Abs format (unit mm)*
G04 Created by KiCad (PCBNEW (5.1.4-0-10_14)) date 2019-11-23 21:53:27*
%MOMM*%
%LPD*%
G04 APERTURE LIST*
%ADD10R,1.000000X0.750000*%
%ADD11O,1.700000X1.700000*%
%ADD12R,1.700000X1.700000*%
%ADD13O,1.600000X1.600000*%
%ADD14C,1.600000*%
%ADD15C,2.700000*%
%ADD16R,1.600000X1.600000*%
G04 APERTURE END LIST*
D10*
X193032508Y-58723730D03*
X191762508Y-58723730D03*
X190492508Y-58723730D03*
X189222508Y-58723730D03*
X187952508Y-58723730D03*
X186682508Y-58723730D03*
X118692508Y-58723730D03*
X117422508Y-58723730D03*
X116152508Y-58723730D03*
X114882508Y-58723730D03*
X113612508Y-58723730D03*
X112342508Y-58723730D03*
X249892508Y-58723730D03*
X232112508Y-58723730D03*
X233382508Y-58723730D03*
X234652508Y-58723730D03*
X235922508Y-58723730D03*
X237192508Y-58723730D03*
X238462508Y-58723730D03*
X239732508Y-58723730D03*
X248622508Y-58723730D03*
X247352508Y-58723730D03*
X246082508Y-58723730D03*
X244812508Y-58723730D03*
X243542508Y-58723730D03*
X242272508Y-58723730D03*
X241002508Y-58723730D03*
X66392508Y-58723730D03*
X48612508Y-58723730D03*
X49882508Y-58723730D03*
X51152508Y-58723730D03*
X52422508Y-58723730D03*
X53692508Y-58723730D03*
X54962508Y-58723730D03*
X56232508Y-58723730D03*
X65122508Y-58723730D03*
X63852508Y-58723730D03*
X62582508Y-58723730D03*
X61312508Y-58723730D03*
X60042508Y-58723730D03*
X58772508Y-58723730D03*
X57502508Y-58723730D03*
D11*
X168190000Y-83370000D03*
X170730000Y-83370000D03*
X168190000Y-85910000D03*
X170730000Y-85910000D03*
X168190000Y-88450000D03*
X170730000Y-88450000D03*
X168190000Y-90990000D03*
X170730000Y-90990000D03*
X168190000Y-93530000D03*
X170730000Y-93530000D03*
X168190000Y-96070000D03*
X170730000Y-96070000D03*
X168190000Y-98610000D03*
X170730000Y-98610000D03*
X168190000Y-101150000D03*
X170730000Y-101150000D03*
X168190000Y-103690000D03*
X170730000Y-103690000D03*
X168190000Y-106230000D03*
X170730000Y-106230000D03*
X168190000Y-108770000D03*
X170730000Y-108770000D03*
X168190000Y-111310000D03*
X170730000Y-111310000D03*
X168190000Y-113850000D03*
X170730000Y-113850000D03*
X168190000Y-116390000D03*
X170730000Y-116390000D03*
X168190000Y-118930000D03*
X170730000Y-118930000D03*
X168190000Y-121470000D03*
X170730000Y-121470000D03*
X168190000Y-124010000D03*
X170730000Y-124010000D03*
X168190000Y-126550000D03*
X170730000Y-126550000D03*
X168190000Y-129090000D03*
X170730000Y-129090000D03*
X168190000Y-131630000D03*
D12*
X170730000Y-131630000D03*
D13*
X90500000Y-101300000D03*
D14*
X90500000Y-114000000D03*
D11*
X196580000Y-127700000D03*
X194040000Y-127700000D03*
D12*
X191500000Y-127700000D03*
D11*
X196580000Y-132350000D03*
X194040000Y-132350000D03*
D12*
X191500000Y-132350000D03*
D11*
X196580000Y-137000000D03*
X194040000Y-137000000D03*
D12*
X191500000Y-137000000D03*
D15*
X259900000Y-66000000D03*
X190500000Y-66000000D03*
X115500000Y-66000000D03*
X38500000Y-66000000D03*
D11*
X181460000Y-88760000D03*
X184000000Y-88760000D03*
X181460000Y-91300000D03*
X184000000Y-91300000D03*
X181460000Y-93840000D03*
X184000000Y-93840000D03*
X181460000Y-96380000D03*
X184000000Y-96380000D03*
X181460000Y-98920000D03*
X184000000Y-98920000D03*
X181460000Y-101460000D03*
X184000000Y-101460000D03*
X181460000Y-104000000D03*
D12*
X184000000Y-104000000D03*
D11*
X54660000Y-131460000D03*
X54660000Y-134000000D03*
X52120000Y-131460000D03*
X52120000Y-134000000D03*
X49580000Y-131460000D03*
X49580000Y-134000000D03*
X47040000Y-131460000D03*
X47040000Y-134000000D03*
X44500000Y-131460000D03*
D12*
X44500000Y-134000000D03*
D15*
X123000000Y-78500000D03*
X123000000Y-136500000D03*
X172000000Y-78500000D03*
X172000000Y-136500000D03*
D12*
X62000000Y-134000000D03*
D11*
X62000000Y-131460000D03*
X64540000Y-134000000D03*
X64540000Y-131460000D03*
X67080000Y-134000000D03*
X67080000Y-131460000D03*
X69620000Y-134000000D03*
X69620000Y-131460000D03*
X72160000Y-134000000D03*
X72160000Y-131460000D03*
X74700000Y-134000000D03*
X74700000Y-131460000D03*
X77240000Y-134000000D03*
X77240000Y-131460000D03*
X79780000Y-134000000D03*
X79780000Y-131460000D03*
X82320000Y-134000000D03*
X82320000Y-131460000D03*
X84860000Y-134000000D03*
X84860000Y-131460000D03*
D14*
X37000000Y-113500000D03*
D13*
X37000000Y-100800000D03*
X37000000Y-85300000D03*
D14*
X37000000Y-98000000D03*
X37000000Y-82500000D03*
D13*
X37000000Y-69800000D03*
X56000000Y-100800000D03*
D14*
X56000000Y-113500000D03*
X49000000Y-113500000D03*
D13*
X49000000Y-100800000D03*
X49000000Y-85300000D03*
D14*
X49000000Y-98000000D03*
X49000000Y-82500000D03*
D13*
X49000000Y-69800000D03*
X68000000Y-101300000D03*
D14*
X68000000Y-114000000D03*
X194000000Y-118500000D03*
D13*
X194000000Y-105800000D03*
D14*
X90500000Y-98000000D03*
D13*
X90500000Y-85300000D03*
X90500000Y-70300000D03*
D14*
X90500000Y-83000000D03*
D13*
X56000000Y-85300000D03*
D14*
X56000000Y-98000000D03*
X56000000Y-82500000D03*
D13*
X56000000Y-69800000D03*
X73500000Y-101300000D03*
D14*
X73500000Y-114000000D03*
X73500000Y-98000000D03*
D13*
X73500000Y-85300000D03*
X68000000Y-85300000D03*
D14*
X68000000Y-98000000D03*
X68000000Y-82500000D03*
D13*
X68000000Y-69800000D03*
X85500000Y-101300000D03*
D14*
X85500000Y-114000000D03*
X85500000Y-98000000D03*
D13*
X85500000Y-85300000D03*
X40500000Y-105880000D03*
X45580000Y-113500000D03*
X43040000Y-105880000D03*
X43040000Y-113500000D03*
X45580000Y-105880000D03*
D16*
X40500000Y-113500000D03*
X40500000Y-98000000D03*
D13*
X45580000Y-90380000D03*
X43040000Y-98000000D03*
X43040000Y-90380000D03*
X45580000Y-98000000D03*
X40500000Y-90380000D03*
D16*
X40500000Y-82500000D03*
D13*
X45580000Y-74880000D03*
X43040000Y-82500000D03*
X43040000Y-74880000D03*
X45580000Y-82500000D03*
X40500000Y-74880000D03*
X59500000Y-105880000D03*
X64580000Y-113500000D03*
X62040000Y-105880000D03*
X62040000Y-113500000D03*
X64580000Y-105880000D03*
D16*
X59500000Y-113500000D03*
X94000000Y-114000000D03*
D13*
X99080000Y-106380000D03*
X96540000Y-114000000D03*
X96540000Y-106380000D03*
X99080000Y-114000000D03*
X94000000Y-106380000D03*
D16*
X94000000Y-98000000D03*
D13*
X99080000Y-90380000D03*
X96540000Y-98000000D03*
X96540000Y-90380000D03*
X99080000Y-98000000D03*
X94000000Y-90380000D03*
D16*
X94000000Y-83000000D03*
D13*
X99080000Y-75380000D03*
X96540000Y-83000000D03*
X96540000Y-75380000D03*
X99080000Y-83000000D03*
X94000000Y-75380000D03*
X59500000Y-90380000D03*
X64580000Y-98000000D03*
X62040000Y-90380000D03*
X62040000Y-98000000D03*
X64580000Y-90380000D03*
D16*
X59500000Y-98000000D03*
D13*
X59500000Y-74880000D03*
X64580000Y-82500000D03*
X62040000Y-74880000D03*
X62040000Y-82500000D03*
X64580000Y-74880000D03*
D16*
X59500000Y-82500000D03*
D13*
X77000000Y-106380000D03*
X82080000Y-114000000D03*
X79540000Y-106380000D03*
X79540000Y-114000000D03*
X82080000Y-106380000D03*
D16*
X77000000Y-114000000D03*
X76975001Y-98000000D03*
D13*
X82055001Y-90380000D03*
X79515001Y-98000000D03*
X79515001Y-90380000D03*
X82055001Y-98000000D03*
X76975001Y-90380000D03*
M02*
